999
"DXF R12 Output" (www.mydxf.blogspot.com)
 0 
SECTION
 2 
HEADER
 9 
$ACADVER
 1 
AC1009
 9 
$EXTMIN
 10 
 0 
 20 
 0 
 9 
$EXTMAX
 10 
 8.5 
 20 
 11 
 0 
ENDSEC
 0 
SECTION
 2 
ENTITIES
0
LINE
8
Layer 1
10
124.570000
20
51.373700
11
124.570000
21
62.373700
0
LINE
8
Layer 1
10
124.570000
20
62.373700
11
122.187000
21
62.373700
0
LINE
8
Layer 1
10
124.570000
20
51.373700
11
122.187000
21
51.373700
0
LINE
8
Layer 1
10
124.085000
20
88.366200
11
124.085000
21
90.366200
0
LINE
8
Layer 1
10
118.235000
20
88.366200
11
118.235000
21
76.266200
0
LINE
8
Layer 1
10
124.085000
20
90.366200
11
118.485000
21
90.366200
0
LINE
8
Layer 1
10
124.335000
20
76.266200
11
118.235000
21
76.266200
0
LINE
8
Layer 1
10
118.485000
20
88.366200
11
118.485000
21
90.366200
0
LINE
8
Layer 1
10
124.335000
20
88.366200
11
118.235000
21
88.366200
0
LINE
8
Layer 1
10
124.335000
20
88.366200
11
124.335000
21
76.266200
0
LINE
8
Layer 1
10
118.485000
20
88.366200
11
118.485000
21
90.366200
0
LINE
8
Layer 1
10
124.335000
20
88.366200
11
124.335000
21
76.266200
0
LINE
8
Layer 1
10
118.485000
20
90.366200
11
124.085000
21
90.366200
0
LINE
8
Layer 1
10
118.235000
20
76.266200
11
124.335000
21
76.266200
0
LINE
8
Layer 1
10
124.085000
20
88.366200
11
124.085000
21
90.366200
0
LINE
8
Layer 1
10
118.235000
20
88.366200
11
124.335000
21
88.366200
0
LINE
8
Layer 1
10
118.235000
20
88.366200
11
118.235000
21
76.266200
0
LINE
8
Layer 1
10
46.239300
20
13.791300
11
46.239300
21
25.791300
0
LINE
8
Layer 1
10
30.239300
20
25.791300
11
46.239300
21
25.791300
0
LINE
8
Layer 1
10
30.239300
20
25.791300
11
30.239300
21
13.791300
0
LINE
8
Layer 1
10
46.239300
20
13.791300
11
30.239300
21
13.791300
0
LINE
8
Layer 1
10
111.231000
20
89.770900
11
111.231000
21
84.690900
0
LINE
8
Layer 1
10
103.865000
20
84.690900
11
103.865000
21
89.770900
0
LINE
8
Layer 1
10
103.865000
20
89.770900
11
111.231000
21
89.770900
0
LINE
8
Layer 1
10
111.231000
20
84.690900
11
103.865000
21
84.690900
0
LINE
8
Layer 1
10
32.235000
20
27.793700
11
44.235000
21
27.793700
0
LINE
8
Layer 1
10
32.235000
20
27.793700
11
32.235000
21
11.793700
0
LINE
8
Layer 1
10
44.235000
20
11.793700
11
44.235000
21
27.793700
0
LINE
8
Layer 1
10
44.235000
20
11.793700
11
32.235000
21
11.793700
0
LINE
8
Layer 1
10
35.739300
20
36.291300
11
35.739300
21
50.291300
0
LINE
8
Layer 1
10
35.739300
20
50.291300
11
21.739300
21
50.291300
0
LINE
8
Layer 1
10
21.739300
20
36.291300
11
35.739300
21
36.291300
0
LINE
8
Layer 1
10
21.739300
20
50.291300
11
21.739300
21
36.291300
0
LINE
8
Layer 1
10
40.739300
20
55.291300
11
40.739300
21
41.291300
0
LINE
8
Layer 1
10
54.739300
20
41.291300
11
54.739300
21
55.291300
0
LINE
8
Layer 1
10
40.739300
20
41.291300
11
54.739300
21
41.291300
0
LINE
8
Layer 1
10
54.739300
20
55.291300
11
40.739300
21
55.291300
0
LINE
8
Layer 1
10
78.739300
20
47.791300
11
78.739300
21
33.791300
0
LINE
8
Layer 1
10
78.739300
20
33.791300
11
92.739300
21
33.791300
0
LINE
8
Layer 1
10
92.739300
20
47.791300
11
78.739300
21
47.791300
0
LINE
8
Layer 1
10
92.739300
20
33.791300
11
92.739300
21
47.791300
0
LINE
8
Layer 1
10
16.739300
20
37.791300
11
2.739270
21
37.791300
0
LINE
8
Layer 1
10
2.739270
20
37.791300
11
2.739270
21
23.791300
0
LINE
8
Layer 1
10
16.739300
20
23.791300
11
16.739300
21
37.791300
0
LINE
8
Layer 1
10
2.739270
20
23.791300
11
16.739300
21
23.791300
0
LINE
8
Layer 1
10
59.739300
20
55.291300
11
73.739300
21
55.291300
0
LINE
8
Layer 1
10
73.739300
20
69.291300
11
59.739300
21
69.291300
0
LINE
8
Layer 1
10
73.739300
20
55.291300
11
73.739300
21
69.291300
0
LINE
8
Layer 1
10
59.739300
20
69.291300
11
59.739300
21
55.291300
0
LINE
8
Layer 1
10
59.739300
20
88.291300
11
59.739300
21
74.291300
0
LINE
8
Layer 1
10
73.739300
20
88.291300
11
59.739300
21
88.291300
0
LINE
8
Layer 1
10
73.739300
20
74.291300
11
73.739300
21
88.291300
0
LINE
8
Layer 1
10
59.739300
20
74.291300
11
73.739300
21
74.291300
0
LINE
8
Layer 1
10
59.739300
20
50.291300
11
59.739300
21
36.291300
0
LINE
8
Layer 1
10
59.739300
20
36.291300
11
73.739300
21
36.291300
0
LINE
8
Layer 1
10
73.739300
20
50.291300
11
59.739300
21
50.291300
0
LINE
8
Layer 1
10
73.739300
20
36.291300
11
73.739300
21
50.291300
0
LINE
8
Layer 1
10
21.739300
20
55.291300
11
35.739300
21
55.291300
0
LINE
8
Layer 1
10
35.739300
20
69.291300
11
21.739300
21
69.291300
0
LINE
8
Layer 1
10
21.739300
20
69.291300
11
21.739300
21
55.291300
0
LINE
8
Layer 1
10
35.739300
20
55.291300
11
35.739300
21
69.291300
0
LINE
8
Layer 1
10
40.739300
20
79.291300
11
54.739300
21
79.291300
0
LINE
8
Layer 1
10
40.739300
20
93.291300
11
40.739300
21
79.291300
0
LINE
8
Layer 1
10
54.739300
20
79.291300
11
54.739300
21
93.291300
0
LINE
8
Layer 1
10
54.739300
20
93.291300
11
40.739300
21
93.291300
0
LINE
8
Layer 1
10
92.739300
20
52.791300
11
92.739300
21
66.791300
0
LINE
8
Layer 1
10
78.739300
20
52.791300
11
92.739300
21
52.791300
0
LINE
8
Layer 1
10
78.739300
20
66.791300
11
78.739300
21
52.791300
0
LINE
8
Layer 1
10
92.739300
20
66.791300
11
78.739300
21
66.791300
0
LINE
8
Layer 1
10
92.739300
20
71.791300
11
92.739300
21
85.791300
0
LINE
8
Layer 1
10
78.739300
20
71.791300
11
92.739300
21
71.791300
0
LINE
8
Layer 1
10
78.739300
20
85.791300
11
78.739300
21
71.791300
0
LINE
8
Layer 1
10
92.739300
20
85.791300
11
78.739300
21
85.791300
0
LINE
8
Layer 1
10
54.739300
20
74.291300
11
40.739300
21
74.291300
0
LINE
8
Layer 1
10
40.739300
20
74.291300
11
40.739300
21
60.291300
0
LINE
8
Layer 1
10
40.739300
20
60.291300
11
54.739300
21
60.291300
0
LINE
8
Layer 1
10
54.739300
20
60.291300
11
54.739300
21
74.291300
0
LINE
8
Layer 1
10
16.739300
20
61.791300
11
16.739300
21
75.791300
0
LINE
8
Layer 1
10
2.739280
20
61.791300
11
16.739300
21
61.791300
0
LINE
8
Layer 1
10
16.739300
20
75.791300
11
2.739280
21
75.791300
0
LINE
8
Layer 1
10
2.739280
20
75.791300
11
2.739280
21
61.791300
0
LINE
8
Layer 1
10
35.739300
20
88.291300
11
21.739300
21
88.291300
0
LINE
8
Layer 1
10
21.739300
20
88.291300
11
21.739300
21
74.291300
0
LINE
8
Layer 1
10
35.739300
20
74.291300
11
35.739300
21
88.291300
0
LINE
8
Layer 1
10
21.739300
20
74.291300
11
35.739300
21
74.291300
0
LINE
8
Layer 1
10
2.739280
20
42.791300
11
16.739300
21
42.791300
0
LINE
8
Layer 1
10
16.739300
20
42.791300
11
16.739300
21
56.791300
0
LINE
8
Layer 1
10
2.739280
20
56.791300
11
2.739280
21
42.791300
0
LINE
8
Layer 1
10
16.739300
20
56.791300
11
2.739280
21
56.791300
0
LINE
8
Layer 1
10
95.768600
20
23.139100
11
81.981200
21
25.570200
0
LINE
8
Layer 1
10
81.981200
20
25.570200
11
79.550200
21
11.782900
0
LINE
8
Layer 1
10
79.550200
20
11.782900
11
93.337500
21
9.351840
0
LINE
8
Layer 1
10
93.337500
20
9.351840
11
95.768600
21
23.139100
0
LINE
8
Layer 1
10
112.128000
20
3.053840
11
116.916000
21
16.209500
0
LINE
8
Layer 1
10
116.916000
20
16.209500
11
103.760000
21
20.997800
0
LINE
8
Layer 1
10
103.760000
20
20.997800
11
98.971800
21
7.842130
0
LINE
8
Layer 1
10
98.971800
20
7.842130
11
112.128000
21
3.053840
0
LINE
8
Layer 1
10
59.739300
20
26.291300
11
59.739300
21
12.291300
0
LINE
8
Layer 1
10
73.739300
20
26.291300
11
59.739300
21
26.291300
0
LINE
8
Layer 1
10
59.739300
20
12.291300
11
73.739300
21
12.291300
0
LINE
8
Layer 1
10
73.739300
20
12.291300
11
73.739300
21
26.291300
0
LINE
8
Layer 1
10
115.017000
20
1.628770
11
114.569125
21
0.890827
0
LINE
8
Layer 1
10
114.569125
20
0.890827
11
113.873000
21
0.380559
0
LINE
8
Layer 1
10
96.965000
20
88.313700
11
122.285000
21
88.318700
0
LINE
8
Layer 1
10
0.164383
20
11.931400
11
0.165001
21
74.533700
0
LINE
8
Layer 1
10
0.805963
20
10.382100
11
0.331058
21
11.092925
0
LINE
8
Layer 1
10
0.331058
20
11.092925
11
0.164383
21
11.931400
0
LINE
8
Layer 1
10
95.682000
20
6.313980
11
76.210100
21
9.747880
0
LINE
8
Layer 1
10
7.866720
20
84.662600
11
12.444855
21
87.062837
0
LINE
8
Layer 1
10
12.444855
20
87.062837
11
17.371838
21
89.216992
0
LINE
8
Layer 1
10
17.371838
20
89.216992
11
22.531518
21
91.103986
0
LINE
8
Layer 1
10
22.531518
20
91.103986
11
27.807740
21
92.702738
0
LINE
8
Layer 1
10
27.807740
20
92.702738
11
33.084352
21
93.992165
0
LINE
8
Layer 1
10
33.084352
20
93.992165
11
38.245202
21
94.951189
0
LINE
8
Layer 1
10
38.245202
20
94.951189
11
43.174135
21
95.558728
0
LINE
8
Layer 1
10
43.174135
20
95.558728
11
47.755000
21
95.793700
0
LINE
8
Layer 1
10
90.545000
20
89.763700
11
81.384302
21
92.410108
0
LINE
8
Layer 1
10
81.384302
20
92.410108
11
76.893925
21
93.499465
0
LINE
8
Layer 1
10
76.893925
20
93.499465
11
72.210638
21
94.405788
0
LINE
8
Layer 1
10
72.210638
20
94.405788
11
67.144771
21
95.108724
0
LINE
8
Layer 1
10
67.144771
20
95.108724
11
61.506655
21
95.587923
0
LINE
8
Layer 1
10
61.506655
20
95.587923
11
55.106621
21
95.823033
0
LINE
8
Layer 1
10
55.106621
20
95.823033
11
47.755000
21
95.793700
0
LINE
8
Layer 1
10
124.745000
20
29.793700
11
124.411250
21
27.914950
0
LINE
8
Layer 1
10
124.411250
20
27.914950
11
123.665000
21
25.773700
0
LINE
8
Layer 1
10
0.165001
20
74.533700
11
0.305028
21
76.799933
0
LINE
8
Layer 1
10
0.305028
20
76.799933
11
0.622123
21
77.884736
0
LINE
8
Layer 1
10
0.622123
20
77.884736
11
1.210216
21
78.998562
0
LINE
8
Layer 1
10
1.210216
20
78.998562
11
2.149015
21
80.187338
0
LINE
8
Layer 1
10
2.149015
20
80.187338
11
3.518226
21
81.496986
0
LINE
8
Layer 1
10
3.518226
20
81.496986
11
5.397559
21
82.973432
0
LINE
8
Layer 1
10
5.397559
20
82.973432
11
7.866720
21
84.662600
0
LINE
8
Layer 1
10
113.873000
20
0.380559
11
113.034500
21
0.175708
0
LINE
8
Layer 1
10
113.034500
20
0.175708
11
112.181000
21
0.307478
0
LINE
8
Layer 1
10
115.017000
20
1.628770
11
123.665000
21
25.773700
0
LINE
8
Layer 1
10
90.545000
20
89.763700
11
93.193700
21
88.931225
0
LINE
8
Layer 1
10
93.193700
20
88.931225
11
95.118575
21
88.483084
0
LINE
8
Layer 1
10
95.118575
20
88.483084
11
96.965000
21
88.313700
0
LINE
8
Layer 1
10
76.210100
20
9.747880
11
2.355230
21
9.740430
0
LINE
8
Layer 1
10
124.745000
20
29.793700
11
124.765000
21
85.813700
0
LINE
8
Layer 1
10
124.065000
20
87.579100
11
124.592750
21
86.766937
0
LINE
8
Layer 1
10
124.592750
20
86.766937
11
124.765000
21
85.813700
0
LINE
8
Layer 1
10
122.285000
20
88.318700
11
123.260125
21
88.123838
0
LINE
8
Layer 1
10
123.260125
20
88.123838
11
124.065000
21
87.579100
0
LINE
8
Layer 1
10
2.355230
20
9.740430
11
1.516767
21
9.907151
0
LINE
8
Layer 1
10
1.516767
20
9.907151
11
0.805963
21
10.382100
0
LINE
8
Layer 1
10
112.181000
20
0.307478
11
95.682000
21
6.313980
 0 
ENDSEC
 0 
EOF