999
"DXF R12 Output" (www.mydxf.blogspot.com)
 0 
SECTION
 2 
HEADER
 9 
$ACADVER
 1 
AC1009
 9 
$EXTMIN
 10 
 0 
 20 
 0 
 9 
$EXTMAX
 10 
 8.5 
 20 
 11 
 0 
ENDSEC
 0 
SECTION
 2 
ENTITIES
0
LINE
8
Layer 1
10
0.793749
20
297.794000
11
-0.793749
21
296.206000
0
LINE
8
Layer 1
10
0.000000
20
298.323000
11
0.000000
21
295.677000
0
LINE
8
Layer 1
10
2.116660
20
295.942000
11
1.058330
21
294.883670
0
LINE
8
Layer 1
10
1.587500
20
296.471000
11
0.529170
21
295.412670
0
LINE
8
Layer 1
10
1.058330
20
297.000000
11
0.000000
21
295.941670
0
LINE
8
0
10
437.589000
20
1045.000000
11
432.221500
21
1043.975000
0
LINE
8
0
10
432.221500
20
1043.975000
11
426.839000
21
1043.040000
0
LINE
8
0
10
426.839000
20
1043.040000
11
414.083236
21
1041.441191
0
LINE
8
0
10
414.083236
20
1041.441191
11
401.378953
21
1039.457656
0
LINE
8
0
10
401.378953
20
1039.457656
11
388.743037
21
1037.078730
0
LINE
8
0
10
388.743037
20
1037.078730
11
376.192375
21
1034.293750
0
LINE
8
0
10
376.192375
20
1034.293750
11
363.743854
21
1031.092051
0
LINE
8
0
10
363.743854
20
1031.092051
11
351.414359
21
1027.462969
0
LINE
8
0
10
351.414359
20
1027.462969
11
339.220779
21
1023.395840
0
LINE
8
0
10
339.220779
20
1023.395840
11
327.180000
21
1018.880000
0
LINE
8
0
10
327.180000
20
1018.880000
11
319.629534
21
1015.843714
0
LINE
8
0
10
319.629534
20
1015.843714
11
312.155020
21
1012.636637
0
LINE
8
0
10
312.155020
20
1012.636637
11
304.757410
21
1009.263311
0
LINE
8
0
10
304.757410
20
1009.263311
11
297.437656
21
1005.728281
0
LINE
8
0
10
297.437656
20
1005.728281
11
290.196711
21
1002.036091
0
LINE
8
0
10
290.196711
20
1002.036091
11
283.035527
21
998.191285
0
LINE
8
0
10
283.035527
20
998.191285
11
275.955056
21
994.198407
0
LINE
8
0
10
275.955056
20
994.198407
11
268.956250
21
990.062000
0
LINE
8
0
10
268.956250
20
990.062000
11
262.040061
21
985.786609
0
LINE
8
0
10
262.040061
20
985.786609
11
255.207441
21
981.376777
0
LINE
8
0
10
255.207441
20
981.376777
11
248.459343
21
976.837049
0
LINE
8
0
10
248.459343
20
976.837049
11
241.796719
21
972.171969
0
LINE
8
0
10
241.796719
20
972.171969
11
228.731699
21
962.483926
0
LINE
8
0
10
228.731699
20
962.483926
11
216.020000
21
952.349000
0
LINE
8
0
10
216.020000
20
952.349000
11
208.111094
21
956.599195
0
LINE
8
0
10
208.111094
20
956.599195
11
200.064375
21
960.565563
0
LINE
8
0
10
200.064375
20
960.565563
11
191.898594
21
964.279273
0
LINE
8
0
10
191.898594
20
964.279273
11
183.632500
21
967.771500
0
LINE
8
0
10
183.632500
20
967.771500
11
175.284844
21
971.073414
0
LINE
8
0
10
175.284844
20
971.073414
11
166.874375
21
974.216188
0
LINE
8
0
10
166.874375
20
974.216188
11
149.940000
21
980.149000
0
LINE
8
0
10
149.940000
20
980.149000
11
144.625762
21
983.425330
0
LINE
8
0
10
144.625762
20
983.425330
11
139.192344
21
986.486516
0
LINE
8
0
10
139.192344
20
986.486516
11
133.653691
21
989.350850
0
LINE
8
0
10
133.653691
20
989.350850
11
128.023750
21
992.036625
0
LINE
8
0
10
128.023750
20
992.036625
11
122.316465
21
994.562135
0
LINE
8
0
10
122.316465
20
994.562135
11
116.545781
21
996.945672
0
LINE
8
0
10
116.545781
20
996.945672
11
104.870000
21
1001.360000
0
LINE
8
0
10
104.870000
20
1001.360000
11
97.074029
21
1004.028652
0
LINE
8
0
10
97.074029
20
1004.028652
11
89.219942
21
1006.533594
0
LINE
8
0
10
89.219942
20
1006.533594
11
81.309612
21
1008.858301
0
LINE
8
0
10
81.309612
20
1008.858301
11
73.344912
21
1010.986250
0
LINE
8
0
10
73.344912
20
1010.986250
11
65.327718
21
1012.900918
0
LINE
8
0
10
65.327718
20
1012.900918
11
57.259902
21
1014.585781
0
LINE
8
0
10
57.259902
20
1014.585781
11
49.143338
21
1016.024316
0
LINE
8
0
10
49.143338
20
1016.024316
11
40.979900
21
1017.200000
0
LINE
8
0
10
40.979900
20
1017.200000
11
35.501364
21
1017.607812
0
LINE
8
0
10
35.501364
20
1017.607812
11
30.008737
21
1017.807500
0
LINE
8
0
10
30.008737
20
1017.807500
11
24.514217
21
1017.793437
0
LINE
8
0
10
24.514217
20
1017.793437
11
19.030000
21
1017.560000
0
LINE
8
0
10
19.030000
20
1017.560000
11
15.602655
21
1017.043281
0
LINE
8
0
10
15.602655
20
1017.043281
11
12.213745
21
1016.171250
0
LINE
8
0
10
12.213745
20
1016.171250
11
10.586731
21
1015.554238
0
LINE
8
0
10
10.586731
20
1015.554238
11
9.032960
21
1014.791094
0
LINE
8
0
10
9.032960
20
1014.791094
11
7.573643
21
1013.862715
0
LINE
8
0
10
7.573643
20
1013.862715
11
6.229990
21
1012.750000
0
LINE
8
0
10
6.229990
20
1012.750000
11
5.306126
21
1011.755645
0
LINE
8
0
10
5.306126
20
1011.755645
11
4.505308
21
1010.678906
0
LINE
8
0
10
4.505308
20
1010.678906
11
3.217499
21
1008.331250
0
LINE
8
0
10
3.217499
20
1008.331250
11
2.255937
21
1005.812969
0
LINE
8
0
10
2.255937
20
1005.812969
11
1.510000
21
1003.230000
0
LINE
8
0
10
1.510000
20
1003.230000
11
0.000000
21
1000.680000
0
LINE
8
0
10
454.309000
20
1045.000000
11
440.577750
21
1044.012500
0
LINE
8
0
10
440.577750
20
1044.012500
11
426.839000
21
1043.040000
0
LINE
8
0
10
426.839000
20
1043.040000
11
432.221500
21
1043.975000
0
LINE
8
0
10
432.221500
20
1043.975000
11
437.589000
21
1045.000000
0
LINE
8
0
10
437.589000
20
1045.000000
11
454.309000
21
1045.000000
0
LINE
8
0
10
508.739000
20
1045.000000
11
524.579703
21
1043.995117
0
LINE
8
0
10
524.579703
20
1043.995117
11
540.379625
21
1042.409688
0
LINE
8
0
10
540.379625
20
1042.409688
11
548.255064
21
1041.394214
0
LINE
8
0
10
548.255064
20
1041.394214
11
556.109234
21
1040.227539
0
LINE
8
0
10
556.109234
20
1040.227539
11
563.938443
21
1038.907642
0
LINE
8
0
10
563.938443
20
1038.907642
11
571.739000
21
1037.432500
0
LINE
8
0
10
571.739000
20
1037.432500
11
579.507213
21
1035.800093
0
LINE
8
0
10
579.507213
20
1035.800093
11
587.239391
21
1034.008398
0
LINE
8
0
10
587.239391
20
1034.008398
11
594.931842
21
1032.055396
0
LINE
8
0
10
594.931842
20
1032.055396
11
602.580875
21
1029.939063
0
LINE
8
0
10
602.580875
20
1029.939063
11
610.182799
21
1027.657378
0
LINE
8
0
10
610.182799
20
1027.657378
11
617.733922
21
1025.208320
0
LINE
8
0
10
617.733922
20
1025.208320
11
625.230553
21
1022.589868
0
LINE
8
0
10
625.230553
20
1022.589868
11
632.669000
21
1019.800000
0
LINE
8
0
10
632.669000
20
1019.800000
11
639.918375
21
1016.940062
0
LINE
8
0
10
639.918375
20
1016.940062
11
647.100719
21
1013.923980
0
LINE
8
0
10
647.100719
20
1013.923980
11
654.214859
21
1010.755479
0
LINE
8
0
10
654.214859
20
1010.755479
11
661.259625
21
1007.438281
0
LINE
8
0
10
661.259625
20
1007.438281
11
668.233844
21
1003.976111
0
LINE
8
0
10
668.233844
20
1003.976111
11
675.136344
21
1000.372691
0
LINE
8
0
10
675.136344
20
1000.372691
11
681.965953
21
996.631747
0
LINE
8
0
10
681.965953
20
996.631747
11
688.721500
21
992.757000
0
LINE
8
0
10
688.721500
20
992.757000
11
702.005719
21
984.620996
0
LINE
8
0
10
702.005719
20
984.620996
11
714.979625
21
975.994469
0
LINE
8
0
10
714.979625
20
975.994469
11
727.633844
21
966.907207
0
LINE
8
0
10
727.633844
20
966.907207
11
739.959000
21
957.389000
0
LINE
8
0
10
739.959000
20
957.389000
11
747.699000
21
961.205367
0
LINE
8
0
10
747.699000
20
961.205367
11
755.542125
21
964.789937
0
LINE
8
0
10
755.542125
20
964.789937
11
763.474312
21
968.169664
0
LINE
8
0
10
763.474312
20
968.169664
11
771.481500
21
971.371500
0
LINE
8
0
10
771.481500
20
971.371500
11
787.664625
21
977.349312
0
LINE
8
0
10
787.664625
20
977.349312
11
803.979000
21
982.939000
0
LINE
8
0
10
803.979000
20
982.939000
11
820.533219
21
987.585719
0
LINE
8
0
10
820.533219
20
987.585719
11
828.858551
21
989.740504
0
LINE
8
0
10
828.858551
20
989.740504
11
837.217750
21
991.755250
0
LINE
8
0
10
837.217750
20
991.755250
11
845.612105
21
993.609215
0
LINE
8
0
10
845.612105
20
993.609215
11
854.042906
21
995.281656
0
LINE
8
0
10
854.042906
20
995.281656
11
862.511441
21
996.751832
0
LINE
8
0
10
862.511441
20
996.751832
11
871.019000
21
997.999000
0
LINE
8
0
10
871.019000
20
997.999000
11
880.144625
21
998.904141
0
LINE
8
0
10
880.144625
20
998.904141
11
889.311500
21
999.464375
0
LINE
8
0
10
889.311500
20
999.464375
11
893.896344
21
999.518971
0
LINE
8
0
10
893.896344
20
999.518971
11
898.474625
21
999.371922
0
LINE
8
0
10
898.474625
20
999.371922
11
903.040719
21
998.984756
0
LINE
8
0
10
903.040719
20
998.984756
11
907.589000
21
998.319000
0
LINE
8
0
10
907.589000
20
998.319000
11
911.964000
21
997.298687
0
LINE
8
0
10
911.964000
20
997.298687
11
914.129469
21
996.614977
0
LINE
8
0
10
914.129469
20
996.614977
11
916.234000
21
995.781500
0
LINE
8
0
10
916.234000
20
995.781500
11
918.242906
21
994.772711
0
LINE
8
0
10
918.242906
20
994.772711
11
920.121500
21
993.563063
0
LINE
8
0
10
920.121500
20
993.563063
11
921.835094
21
992.127008
0
LINE
8
0
10
921.835094
20
992.127008
11
923.349000
21
990.439000
0
LINE
8
0
10
923.349000
20
990.439000
11
924.925348
21
988.073609
0
LINE
8
0
10
924.925348
20
988.073609
11
926.191031
21
985.563375
0
LINE
8
0
10
926.191031
20
985.563375
11
927.182262
21
982.935953
0
LINE
8
0
10
927.182262
20
982.935953
11
927.935250
21
980.219000
0
LINE
8
0
10
927.935250
20
980.219000
11
928.486207
21
977.440172
0
LINE
8
0
10
928.486207
20
977.440172
11
928.871344
21
974.627125
0
LINE
8
0
10
928.871344
20
974.627125
11
929.289000
21
969.009000
0
LINE
8
0
10
929.289000
20
969.009000
11
929.035870
21
963.535929
0
LINE
8
0
10
929.035870
20
963.535929
11
928.564742
21
958.099273
0
LINE
8
0
10
928.564742
20
958.099273
11
927.891759
21
952.697247
0
LINE
8
0
10
927.891759
20
952.697247
11
927.033063
21
947.328063
0
LINE
8
0
10
927.033063
20
947.328063
11
926.004796
21
941.989933
0
LINE
8
0
10
926.004796
20
941.989933
11
924.823102
21
936.681070
0
LINE
8
0
10
924.823102
20
936.681070
11
922.064000
21
926.144000
0
LINE
8
0
10
922.064000
20
926.144000
11
918.884898
21
915.702555
0
LINE
8
0
10
918.884898
20
915.702555
11
915.414938
21
905.342437
0
LINE
8
0
10
915.414938
20
905.342437
11
908.119000
21
884.809000
0
LINE
8
0
10
908.119000
20
884.809000
11
905.312750
21
878.856344
0
LINE
8
0
10
905.312750
20
878.856344
11
902.686500
21
872.820250
0
LINE
8
0
10
902.686500
20
872.820250
11
900.086500
21
866.771031
0
LINE
8
0
10
900.086500
20
866.771031
11
897.359000
21
860.779000
0
LINE
8
0
10
897.359000
20
860.779000
11
891.767125
21
849.103219
0
LINE
8
0
10
891.767125
20
849.103219
11
885.946500
21
837.535250
0
LINE
8
0
10
885.946500
20
837.535250
11
879.724625
21
826.186656
0
LINE
8
0
10
879.724625
20
826.186656
11
876.409312
21
820.629488
0
LINE
8
0
10
876.409312
20
820.629488
11
872.929000
21
815.169000
0
LINE
8
0
10
872.929000
20
815.169000
11
872.369625
21
814.188531
0
LINE
8
0
10
872.369625
20
814.188531
11
872.309000
21
813.175250
0
LINE
8
0
10
872.309000
20
813.175250
11
872.653375
21
812.186344
0
LINE
8
0
10
872.653375
20
812.186344
11
873.309000
21
811.279000
0
LINE
8
0
10
873.309000
20
811.279000
11
888.644156
21
789.740250
0
LINE
8
0
10
888.644156
20
789.740250
11
903.665250
21
767.984000
0
LINE
8
0
10
903.665250
20
767.984000
11
918.448219
21
746.062750
0
LINE
8
0
10
918.448219
20
746.062750
11
933.069000
21
724.029000
0
LINE
8
0
10
933.069000
20
724.029000
11
936.392711
21
719.063045
0
LINE
8
0
10
936.392711
20
719.063045
11
939.551187
21
713.982609
0
LINE
8
0
10
939.551187
20
713.982609
11
942.517945
21
708.787588
0
LINE
8
0
10
942.517945
20
708.787588
11
945.266500
21
703.477875
0
LINE
8
0
10
945.266500
20
703.477875
11
947.770367
21
698.053365
0
LINE
8
0
10
947.770367
20
698.053365
11
950.003062
21
692.513953
0
LINE
8
0
10
950.003062
20
692.513953
11
951.938102
21
686.859533
0
LINE
8
0
10
951.938102
20
686.859533
11
953.549000
21
681.090000
0
LINE
8
0
10
953.549000
20
681.090000
11
954.435851
21
677.522358
0
LINE
8
0
10
954.435851
20
677.522358
11
955.174430
21
673.928555
0
LINE
8
0
10
955.174430
20
673.928555
11
956.217437
21
666.679688
0
LINE
8
0
10
956.217437
20
666.679688
11
956.699352
21
659.377852
0
LINE
8
0
10
956.699352
20
659.377852
11
956.641500
21
652.057500
0
LINE
8
0
10
956.641500
20
652.057500
11
956.065211
21
644.753086
0
LINE
8
0
10
956.065211
20
644.753086
11
954.991812
21
637.499063
0
LINE
8
0
10
954.991812
20
637.499063
11
953.442633
21
630.329883
0
LINE
8
0
10
953.442633
20
630.329883
11
951.439000
21
623.280000
0
LINE
8
0
10
951.439000
20
623.280000
11
950.629000
21
621.440000
0
LINE
8
0
10
950.629000
20
621.440000
11
941.919000
21
619.830000
0
LINE
8
0
10
941.919000
20
619.830000
11
940.099000
21
621.540000
0
LINE
8
0
10
940.099000
20
621.540000
11
926.861734
21
618.992168
0
LINE
8
0
10
926.861734
20
618.992168
11
913.725250
21
616.022344
0
LINE
8
0
10
913.725250
20
616.022344
11
900.671266
21
612.711035
0
LINE
8
0
10
900.671266
20
612.711035
11
887.681500
21
609.138750
0
LINE
8
0
10
887.681500
20
609.138750
11
861.821500
21
601.533281
0
LINE
8
0
10
861.821500
20
601.533281
11
835.999000
21
593.850000
0
LINE
8
0
10
835.999000
20
593.850000
11
802.279469
21
583.776719
0
LINE
8
0
10
802.279469
20
583.776719
11
768.495250
21
573.916250
0
LINE
8
0
10
768.495250
20
573.916250
11
734.592906
21
564.477656
0
LINE
8
0
10
734.592906
20
564.477656
11
717.580738
21
559.981895
0
LINE
8
0
10
717.580738
20
559.981895
11
700.519000
21
555.670000
0
LINE
8
0
10
700.519000
20
555.670000
11
672.781070
21
549.098945
0
LINE
8
0
10
672.781070
20
549.098945
11
658.853351
21
546.015347
0
LINE
8
0
10
658.853351
20
546.015347
11
644.888687
21
543.084063
0
LINE
8
0
10
644.888687
20
543.084063
11
630.888751
21
540.318364
0
LINE
8
0
10
630.888751
20
540.318364
11
616.855211
21
537.731523
0
LINE
8
0
10
616.855211
20
537.731523
11
602.789737
21
535.336812
0
LINE
8
0
10
602.789737
20
535.336812
11
588.694000
21
533.147500
0
LINE
8
0
10
588.694000
20
533.147500
11
574.569669
21
531.176860
0
LINE
8
0
10
574.569669
20
531.176860
11
560.418414
21
529.438164
0
LINE
8
0
10
560.418414
20
529.438164
11
546.241905
21
527.944683
0
LINE
8
0
10
546.241905
20
527.944683
11
532.041812
21
526.709687
0
LINE
8
0
10
532.041812
20
526.709687
11
517.819806
21
525.746450
0
LINE
8
0
10
517.819806
20
525.746450
11
503.577555
21
525.068242
0
LINE
8
0
10
503.577555
20
525.068242
11
489.316729
21
524.688335
0
LINE
8
0
10
489.316729
20
524.688335
11
475.039000
21
524.620000
0
LINE
8
0
10
475.039000
20
524.620000
11
456.543828
21
524.806211
0
LINE
8
0
10
456.543828
20
524.806211
11
438.068062
21
525.522812
0
LINE
8
0
10
438.068062
20
525.522812
11
419.618828
21
526.736758
0
LINE
8
0
10
419.618828
20
526.736758
11
401.203250
21
528.415000
0
LINE
8
0
10
401.203250
20
528.415000
11
382.828453
21
530.524492
0
LINE
8
0
10
382.828453
20
530.524492
11
364.501562
21
533.032187
0
LINE
8
0
10
364.501562
20
533.032187
11
346.229703
21
535.905039
0
LINE
8
0
10
346.229703
20
535.905039
11
328.020000
21
539.110000
0
LINE
8
0
10
328.020000
20
539.110000
11
315.399458
21
541.487556
0
LINE
8
0
10
315.399458
20
541.487556
11
302.811758
21
544.013105
0
LINE
8
0
10
302.811758
20
544.013105
11
277.728438
21
549.472969
0
LINE
8
0
10
277.728438
20
549.472969
11
252.757148
21
555.419160
0
LINE
8
0
10
252.757148
20
555.419160
11
227.885000
21
561.781250
0
LINE
8
0
10
227.885000
20
561.781250
11
203.099102
21
568.488809
0
LINE
8
0
10
203.099102
20
568.488809
11
178.386562
21
575.471406
0
LINE
8
0
10
178.386562
20
575.471406
11
153.734492
21
582.658613
0
LINE
8
0
10
153.734492
20
582.658613
11
129.130000
21
589.980000
0
LINE
8
0
10
129.130000
20
589.980000
11
90.052450
21
601.693750
0
LINE
8
0
10
90.052450
20
601.693750
11
70.478041
21
607.418906
0
LINE
8
0
10
70.478041
20
607.418906
11
50.839900
21
612.920000
0
LINE
8
0
10
50.839900
20
612.920000
11
41.002145
21
615.462656
0
LINE
8
0
10
41.002145
20
615.462656
11
31.109987
21
617.788750
0
LINE
8
0
10
31.109987
20
617.788750
11
21.165311
21
619.887969
0
LINE
8
0
10
21.165311
20
619.887969
11
11.170000
21
621.750000
0
LINE
8
0
10
11.170000
20
621.750000
11
9.152185
21
628.713828
0
LINE
8
0
10
9.152185
20
628.713828
11
7.554371
21
635.792500
0
LINE
8
0
10
7.554371
20
635.792500
11
6.399995
21
642.955547
0
LINE
8
0
10
6.399995
20
642.955547
11
5.712495
21
650.172500
0
LINE
8
0
10
5.712495
20
650.172500
11
5.515307
21
657.412891
0
LINE
8
0
10
5.515307
20
657.412891
11
5.831869
21
664.646250
0
LINE
8
0
10
5.831869
20
664.646250
11
6.685618
21
671.842109
0
LINE
8
0
10
6.685618
20
671.842109
11
8.099990
21
678.970000
0
LINE
8
0
10
8.099990
20
678.970000
11
9.532532
21
684.392613
0
LINE
8
0
10
9.532532
20
684.392613
11
11.227808
21
689.735469
0
LINE
8
0
10
11.227808
20
689.735469
11
13.174802
21
694.991090
0
LINE
8
0
10
13.174802
20
694.991090
11
15.362499
21
700.152000
0
LINE
8
0
10
15.362499
20
700.152000
11
17.779882
21
705.210723
0
LINE
8
0
10
17.779882
20
705.210723
11
20.415937
21
710.159781
0
LINE
8
0
10
20.415937
20
710.159781
11
23.259648
21
714.991699
0
LINE
8
0
10
23.259648
20
714.991699
11
26.300000
21
719.699000
0
LINE
8
0
10
26.300000
20
719.699000
11
40.489942
21
741.196969
0
LINE
8
0
10
40.489942
20
741.196969
11
54.882412
21
762.562750
0
LINE
8
0
10
54.882412
20
762.562750
11
69.443652
21
783.814156
0
LINE
8
0
10
69.443652
20
783.814156
11
84.139900
21
804.969000
0
LINE
8
0
10
84.139900
20
804.969000
11
81.672478
21
807.106090
0
LINE
8
0
10
81.672478
20
807.106090
11
79.423025
21
809.437594
0
LINE
8
0
10
79.423025
20
809.437594
11
77.358259
21
811.930113
0
LINE
8
0
10
77.358259
20
811.930113
11
75.444900
21
814.550250
0
LINE
8
0
10
75.444900
20
814.550250
11
71.939275
21
820.039781
0
LINE
8
0
10
71.939275
20
820.039781
11
68.639900
21
825.639000
0
LINE
8
0
10
68.639900
20
825.639000
11
62.212713
21
837.492281
0
LINE
8
0
10
62.212713
20
837.492281
11
56.154900
21
849.537750
0
LINE
8
0
10
56.154900
20
849.537750
11
50.412087
21
861.738844
0
LINE
8
0
10
50.412087
20
861.738844
11
44.929900
21
874.059000
0
LINE
8
0
10
44.929900
20
874.059000
11
41.972412
21
881.235250
0
LINE
8
0
10
41.972412
20
881.235250
11
40.480567
21
884.818219
0
LINE
8
0
10
40.480567
20
884.818219
11
38.820000
21
888.329000
0
LINE
8
0
10
38.820000
20
888.329000
11
31.743750
21
908.595250
0
LINE
8
0
10
31.743750
20
908.595250
11
28.457344
21
918.812281
0
LINE
8
0
10
28.457344
20
918.812281
11
25.530000
21
929.139000
0
LINE
8
0
10
25.530000
20
929.139000
11
22.822500
21
940.138844
0
LINE
8
0
10
22.822500
20
940.138844
11
21.674766
21
945.697066
0
LINE
8
0
10
21.674766
20
945.697066
11
20.722500
21
951.287750
0
LINE
8
0
10
20.722500
20
951.287750
11
20.009297
21
956.906090
0
LINE
8
0
10
20.009297
20
956.906090
11
19.578750
21
962.547281
0
LINE
8
0
10
19.578750
20
962.547281
11
19.474453
21
968.206520
0
LINE
8
0
10
19.474453
20
968.206520
11
19.740000
21
973.879000
0
LINE
8
0
10
19.740000
20
973.879000
11
20.188301
21
976.889645
0
LINE
8
0
10
20.188301
20
976.889645
11
20.870156
21
979.911656
0
LINE
8
0
10
20.870156
20
979.911656
11
21.814746
21
982.873902
0
LINE
8
0
10
21.814746
20
982.873902
11
23.051250
21
985.705250
0
LINE
8
0
10
23.051250
20
985.705250
11
24.608848
21
988.334566
0
LINE
8
0
10
24.608848
20
988.334566
11
26.516719
21
990.690719
0
LINE
8
0
10
26.516719
20
990.690719
11
28.804043
21
992.702574
0
LINE
8
0
10
28.804043
20
992.702574
11
30.099119
21
993.557162
0
LINE
8
0
10
30.099119
20
993.557162
11
31.500000
21
994.299000
0
LINE
8
0
10
31.500000
20
994.299000
11
35.112994
21
995.709645
0
LINE
8
0
10
35.112994
20
995.709645
11
38.821036
21
996.775406
0
LINE
8
0
10
38.821036
20
996.775406
11
42.603850
21
997.539527
0
LINE
8
0
10
42.603850
20
997.539527
11
46.441163
21
998.045250
0
LINE
8
0
10
46.441163
20
998.045250
11
50.312698
21
998.335816
0
LINE
8
0
10
50.312698
20
998.335816
11
54.198183
21
998.454469
0
LINE
8
0
10
54.198183
20
998.454469
11
61.929900
21
998.349000
0
LINE
8
0
10
61.929900
20
998.349000
11
73.155920
21
997.401676
0
LINE
8
0
10
73.155920
20
997.401676
11
84.318666
21
995.973531
0
LINE
8
0
10
84.318666
20
995.973531
11
95.417666
21
994.115309
0
LINE
8
0
10
95.417666
20
994.115309
11
106.452450
21
991.877750
0
LINE
8
0
10
106.452450
20
991.877750
11
117.422546
21
989.311598
0
LINE
8
0
10
117.422546
20
989.311598
11
128.327484
21
986.467594
0
LINE
8
0
10
128.327484
20
986.467594
11
139.166793
21
983.396480
0
LINE
8
0
10
139.166793
20
983.396480
11
149.940000
21
980.149000
0
LINE
8
0
10
149.940000
20
980.149000
11
166.874375
21
974.216188
0
LINE
8
0
10
166.874375
20
974.216188
11
175.284844
21
971.073414
0
LINE
8
0
10
175.284844
20
971.073414
11
183.632500
21
967.771500
0
LINE
8
0
10
183.632500
20
967.771500
11
191.898594
21
964.279273
0
LINE
8
0
10
191.898594
20
964.279273
11
200.064375
21
960.565563
0
LINE
8
0
10
200.064375
20
960.565563
11
208.111094
21
956.599195
0
LINE
8
0
10
208.111094
20
956.599195
11
216.020000
21
952.349000
0
LINE
8
0
10
216.020000
20
952.349000
11
228.731699
21
962.483926
0
LINE
8
0
10
228.731699
20
962.483926
11
241.796719
21
972.171969
0
LINE
8
0
10
241.796719
20
972.171969
11
248.459343
21
976.837049
0
LINE
8
0
10
248.459343
20
976.837049
11
255.207441
21
981.376777
0
LINE
8
0
10
255.207441
20
981.376777
11
262.040061
21
985.786609
0
LINE
8
0
10
262.040061
20
985.786609
11
268.956250
21
990.062000
0
LINE
8
0
10
268.956250
20
990.062000
11
275.955056
21
994.198407
0
LINE
8
0
10
275.955056
20
994.198407
11
283.035527
21
998.191285
0
LINE
8
0
10
283.035527
20
998.191285
11
290.196711
21
1002.036091
0
LINE
8
0
10
290.196711
20
1002.036091
11
297.437656
21
1005.728281
0
LINE
8
0
10
297.437656
20
1005.728281
11
304.757410
21
1009.263311
0
LINE
8
0
10
304.757410
20
1009.263311
11
312.155020
21
1012.636637
0
LINE
8
0
10
312.155020
20
1012.636637
11
319.629534
21
1015.843714
0
LINE
8
0
10
319.629534
20
1015.843714
11
327.180000
21
1018.880000
0
LINE
8
0
10
327.180000
20
1018.880000
11
339.220779
21
1023.395840
0
LINE
8
0
10
339.220779
20
1023.395840
11
351.414359
21
1027.462969
0
LINE
8
0
10
351.414359
20
1027.462969
11
363.743854
21
1031.092051
0
LINE
8
0
10
363.743854
20
1031.092051
11
376.192375
21
1034.293750
0
LINE
8
0
10
376.192375
20
1034.293750
11
388.743037
21
1037.078730
0
LINE
8
0
10
388.743037
20
1037.078730
11
401.378953
21
1039.457656
0
LINE
8
0
10
401.378953
20
1039.457656
11
414.083236
21
1041.441191
0
LINE
8
0
10
414.083236
20
1041.441191
11
426.839000
21
1043.040000
0
LINE
8
0
10
426.839000
20
1043.040000
11
440.577750
21
1044.012500
0
LINE
8
0
10
440.577750
20
1044.012500
11
454.309000
21
1045.000000
0
LINE
8
0
10
454.309000
20
1045.000000
11
508.739000
21
1045.000000
0
LINE
8
0
10
0.000000
20
989.689000
11
1.177969
21
983.621656
0
LINE
8
0
10
1.177969
20
983.621656
11
2.268749
21
977.517750
0
LINE
8
0
10
2.268749
20
977.517750
11
2.908884
21
974.491051
0
LINE
8
0
10
2.908884
20
974.491051
11
3.680152
21
971.501969
0
LINE
8
0
10
3.680152
20
971.501969
11
4.633528
21
968.566090
0
LINE
8
0
10
4.633528
20
968.566090
11
5.819990
21
965.699000
0
LINE
8
0
10
5.819990
20
965.699000
11
8.805794
21
956.066520
0
LINE
8
0
10
8.805794
20
956.066520
11
12.090777
21
946.535406
0
LINE
8
0
10
12.090777
20
946.535406
11
15.660056
21
937.107652
0
LINE
8
0
10
15.660056
20
937.107652
11
19.498749
21
927.785250
0
LINE
8
0
10
19.498749
20
927.785250
11
23.591972
21
918.570191
0
LINE
8
0
10
23.591972
20
918.570191
11
27.924844
21
909.464469
0
LINE
8
0
10
27.924844
20
909.464469
11
32.482480
21
900.470074
0
LINE
8
0
10
32.482480
20
900.470074
11
37.250000
21
891.589000
0
LINE
8
0
10
37.250000
20
891.589000
11
37.273125
21
890.604313
0
LINE
8
0
10
37.273125
20
890.604313
11
37.532500
21
889.696500
0
LINE
8
0
10
37.532500
20
889.696500
11
38.043125
21
888.919938
0
LINE
8
0
10
38.043125
20
888.919938
11
38.820000
21
888.329000
0
LINE
8
0
10
38.820000
20
888.329000
11
40.480567
21
884.818219
0
LINE
8
0
10
40.480567
20
884.818219
11
41.972412
21
881.235250
0
LINE
8
0
10
41.972412
20
881.235250
11
44.929900
21
874.059000
0
LINE
8
0
10
44.929900
20
874.059000
11
50.412087
21
861.738844
0
LINE
8
0
10
50.412087
20
861.738844
11
56.154900
21
849.537750
0
LINE
8
0
10
56.154900
20
849.537750
11
62.212713
21
837.492281
0
LINE
8
0
10
62.212713
20
837.492281
11
68.639900
21
825.639000
0
LINE
8
0
10
68.639900
20
825.639000
11
71.939275
21
820.039781
0
LINE
8
0
10
71.939275
20
820.039781
11
75.444900
21
814.550250
0
LINE
8
0
10
75.444900
20
814.550250
11
77.358259
21
811.930113
0
LINE
8
0
10
77.358259
20
811.930113
11
79.423025
21
809.437594
0
LINE
8
0
10
79.423025
20
809.437594
11
81.672478
21
807.106090
0
LINE
8
0
10
81.672478
20
807.106090
11
84.139900
21
804.969000
0
LINE
8
0
10
84.139900
20
804.969000
11
69.443652
21
783.814156
0
LINE
8
0
10
69.443652
20
783.814156
11
54.882412
21
762.562750
0
LINE
8
0
10
54.882412
20
762.562750
11
40.489942
21
741.196969
0
LINE
8
0
10
40.489942
20
741.196969
11
26.300000
21
719.699000
0
LINE
8
0
10
26.300000
20
719.699000
11
23.259648
21
714.991699
0
LINE
8
0
10
23.259648
20
714.991699
11
20.415937
21
710.159781
0
LINE
8
0
10
20.415937
20
710.159781
11
17.779882
21
705.210723
0
LINE
8
0
10
17.779882
20
705.210723
11
15.362499
21
700.152000
0
LINE
8
0
10
15.362499
20
700.152000
11
13.174802
21
694.991090
0
LINE
8
0
10
13.174802
20
694.991090
11
11.227808
21
689.735469
0
LINE
8
0
10
11.227808
20
689.735469
11
9.532532
21
684.392613
0
LINE
8
0
10
9.532532
20
684.392613
11
8.099990
21
678.970000
0
LINE
8
0
10
8.099990
20
678.970000
11
6.685618
21
671.842109
0
LINE
8
0
10
6.685618
20
671.842109
11
5.831869
21
664.646250
0
LINE
8
0
10
5.831869
20
664.646250
11
5.515307
21
657.412891
0
LINE
8
0
10
5.515307
20
657.412891
11
5.712495
21
650.172500
0
LINE
8
0
10
5.712495
20
650.172500
11
6.399995
21
642.955547
0
LINE
8
0
10
6.399995
20
642.955547
11
7.554371
21
635.792500
0
LINE
8
0
10
7.554371
20
635.792500
11
9.152185
21
628.713828
0
LINE
8
0
10
9.152185
20
628.713828
11
11.170000
21
621.750000
0
LINE
8
0
10
11.170000
20
621.750000
11
12.592344
21
617.052656
0
LINE
8
0
10
12.592344
20
617.052656
11
14.403750
21
612.498750
0
LINE
8
0
10
14.403750
20
612.498750
11
16.453281
21
608.040469
0
LINE
8
0
10
16.453281
20
608.040469
11
18.590000
21
603.630000
0
LINE
8
0
10
18.590000
20
603.630000
11
22.988101
21
595.725371
0
LINE
8
0
10
22.988101
20
595.725371
11
27.796703
21
588.079844
0
LINE
8
0
10
27.796703
20
588.079844
11
32.981004
21
580.687207
0
LINE
8
0
10
32.981004
20
580.687207
11
38.506200
21
573.541250
0
LINE
8
0
10
38.506200
20
573.541250
11
44.337490
21
566.635762
0
LINE
8
0
10
44.337490
20
566.635762
11
50.440072
21
559.964531
0
LINE
8
0
10
50.440072
20
559.964531
11
56.779143
21
553.521348
0
LINE
8
0
10
56.779143
20
553.521348
11
63.319900
21
547.300000
0
LINE
8
0
10
63.319900
20
547.300000
11
73.907521
21
538.021699
0
LINE
8
0
10
73.907521
20
538.021699
11
84.850228
21
529.182969
0
LINE
8
0
10
84.850228
20
529.182969
11
96.114033
21
520.759316
0
LINE
8
0
10
96.114033
20
520.759316
11
107.664950
21
512.726250
0
LINE
8
0
10
107.664950
20
512.726250
11
119.468992
21
505.059277
0
LINE
8
0
10
119.468992
20
505.059277
11
131.492172
21
497.733906
0
LINE
8
0
10
131.492172
20
497.733906
11
143.700504
21
490.725645
0
LINE
8
0
10
143.700504
20
490.725645
11
156.060000
21
484.010000
0
LINE
8
0
10
156.060000
20
484.010000
11
166.215342
21
478.793142
0
LINE
8
0
10
166.215342
20
478.793142
11
176.455234
21
473.749824
0
LINE
8
0
10
176.455234
20
473.749824
11
186.776104
21
468.877805
0
LINE
8
0
10
186.776104
20
468.877805
11
197.174375
21
464.174844
0
LINE
8
0
10
197.174375
20
464.174844
11
207.646475
21
459.638699
0
LINE
8
0
10
207.646475
20
459.638699
11
218.188828
21
455.267129
0
LINE
8
0
10
218.188828
20
455.267129
11
228.797861
21
451.057893
0
LINE
8
0
10
228.797861
20
451.057893
11
239.470000
21
447.008750
0
LINE
8
0
10
239.470000
20
447.008750
11
250.201670
21
443.117458
0
LINE
8
0
10
250.201670
20
443.117458
11
260.989297
21
439.381777
0
LINE
8
0
10
260.989297
20
439.381777
11
271.829307
21
435.799465
0
LINE
8
0
10
271.829307
20
435.799465
11
282.718125
21
432.368281
0
LINE
8
0
10
282.718125
20
432.368281
11
293.652178
21
429.085984
0
LINE
8
0
10
293.652178
20
429.085984
11
304.627891
21
425.950332
0
LINE
8
0
10
304.627891
20
425.950332
11
326.690000
21
420.110000
0
LINE
8
0
10
326.690000
20
420.110000
11
322.756250
21
408.506250
0
LINE
8
0
10
322.756250
20
408.506250
11
318.980000
21
396.850000
0
LINE
8
0
10
318.980000
20
396.850000
11
316.442136
21
396.300591
0
LINE
8
0
10
316.442136
20
396.300591
11
313.982715
21
395.575664
0
LINE
8
0
10
313.982715
20
395.575664
11
311.598616
21
394.687671
0
LINE
8
0
10
311.598616
20
394.687671
11
309.286719
21
393.649062
0
LINE
8
0
10
309.286719
20
393.649062
11
304.867051
21
391.169805
0
LINE
8
0
10
304.867051
20
391.169805
11
300.698750
21
388.237500
0
LINE
8
0
10
300.698750
20
388.237500
11
296.756855
21
384.951758
0
LINE
8
0
10
296.756855
20
384.951758
11
293.016406
21
381.412188
0
LINE
8
0
10
293.016406
20
381.412188
11
289.452441
21
377.718398
0
LINE
8
0
10
289.452441
20
377.718398
11
286.040000
21
373.970000
0
LINE
8
0
10
286.040000
20
373.970000
11
281.528633
21
368.278965
0
LINE
8
0
10
281.528633
20
368.278965
11
277.241562
21
362.418594
0
LINE
8
0
10
277.241562
20
362.418594
11
273.178086
21
356.400488
0
LINE
8
0
10
273.178086
20
356.400488
11
269.337500
21
350.236250
0
LINE
8
0
10
269.337500
20
350.236250
11
265.719102
21
343.937480
0
LINE
8
0
10
265.719102
20
343.937480
11
262.322188
21
337.515781
0
LINE
8
0
10
262.322188
20
337.515781
11
259.146055
21
330.982754
0
LINE
8
0
10
259.146055
20
330.982754
11
256.190000
21
324.350000
0
LINE
8
0
10
256.190000
20
324.350000
11
252.366873
21
325.174346
0
LINE
8
0
10
252.366873
20
325.174346
11
248.521230
21
325.805859
0
LINE
8
0
10
248.521230
20
325.805859
11
244.658684
21
326.249756
0
LINE
8
0
10
244.658684
20
326.249756
11
240.784844
21
326.511250
0
LINE
8
0
10
240.784844
20
326.511250
11
236.905320
21
326.595557
0
LINE
8
0
10
236.905320
20
326.595557
11
233.025723
21
326.507891
0
LINE
8
0
10
233.025723
20
326.507891
11
229.151663
21
326.253467
0
LINE
8
0
10
229.151663
20
326.253467
11
225.288750
21
325.837500
0
LINE
8
0
10
225.288750
20
325.837500
11
221.442595
21
325.265205
0
LINE
8
0
10
221.442595
20
325.265205
11
217.618809
21
324.541797
0
LINE
8
0
10
217.618809
20
324.541797
11
210.060781
21
322.662500
0
LINE
8
0
10
210.060781
20
322.662500
11
202.659551
21
320.241328
0
LINE
8
0
10
202.659551
20
320.241328
11
195.460000
21
317.320000
0
LINE
8
0
10
195.460000
20
317.320000
11
192.533696
21
315.763547
0
LINE
8
0
10
192.533696
20
315.763547
11
189.703164
21
314.076973
0
LINE
8
0
10
189.703164
20
314.076973
11
184.289688
21
310.367656
0
LINE
8
0
10
184.289688
20
310.367656
11
179.140117
21
306.300449
0
LINE
8
0
10
179.140117
20
306.300449
11
174.175000
21
301.983750
0
LINE
8
0
10
174.175000
20
301.983750
11
164.480312
21
293.035469
0
LINE
8
0
10
164.480312
20
293.035469
11
159.591836
21
288.620684
0
LINE
8
0
10
159.591836
20
288.620684
11
154.570000
21
284.390000
0
LINE
8
0
10
154.570000
20
284.390000
11
150.219863
21
281.045586
0
LINE
8
0
10
150.219863
20
281.045586
11
145.649531
21
277.965312
0
LINE
8
0
10
145.649531
20
277.965312
11
140.877871
21
275.194883
0
LINE
8
0
10
140.877871
20
275.194883
11
135.923750
21
272.780000
0
LINE
8
0
10
135.923750
20
272.780000
11
130.806035
21
270.766367
0
LINE
8
0
10
130.806035
20
270.766367
11
125.543594
21
269.199687
0
LINE
8
0
10
125.543594
20
269.199687
11
120.155293
21
268.125664
0
LINE
8
0
10
120.155293
20
268.125664
11
114.660000
21
267.590000
0
LINE
8
0
10
114.660000
20
267.590000
11
109.489488
21
269.275234
0
LINE
8
0
10
109.489488
20
269.275234
11
104.437797
21
271.286250
0
LINE
8
0
10
104.437797
20
271.286250
11
99.523445
21
273.612266
0
LINE
8
0
10
99.523445
20
273.612266
11
94.764950
21
276.242500
0
LINE
8
0
10
94.764950
20
276.242500
11
90.180830
21
279.166172
0
LINE
8
0
10
90.180830
20
279.166172
11
85.789603
21
282.372500
0
LINE
8
0
10
85.789603
20
282.372500
11
81.609787
21
285.850703
0
LINE
8
0
10
81.609787
20
285.850703
11
77.659900
21
289.590000
0
LINE
8
0
10
77.659900
20
289.590000
11
75.119275
21
292.200710
0
LINE
8
0
10
75.119275
20
292.200710
11
72.703338
21
294.921152
0
LINE
8
0
10
72.703338
20
294.921152
11
70.413494
21
297.745042
0
LINE
8
0
10
70.413494
20
297.745042
11
68.251150
21
300.666094
0
LINE
8
0
10
68.251150
20
300.666094
11
66.217712
21
303.678025
0
LINE
8
0
10
66.217712
20
303.678025
11
64.314588
21
306.774551
0
LINE
8
0
10
64.314588
20
306.774551
11
62.543181
21
309.949387
0
LINE
8
0
10
62.543181
20
309.949387
11
60.904900
21
313.196250
0
LINE
8
0
10
60.904900
20
313.196250
11
58.033338
21
319.880918
0
LINE
8
0
10
58.033338
20
319.880918
11
55.711150
21
326.778281
0
LINE
8
0
10
55.711150
20
326.778281
11
53.949587
21
333.838066
0
LINE
8
0
10
53.949587
20
333.838066
11
52.759900
21
341.010000
0
LINE
8
0
10
52.759900
20
341.010000
11
52.052400
21
345.027500
0
LINE
8
0
10
52.052400
20
345.027500
11
51.762439
21
345.993789
0
LINE
8
0
10
51.762439
20
345.993789
11
51.350837
21
346.890938
0
LINE
8
0
10
51.350837
20
346.890938
11
50.779392
21
347.691992
0
LINE
8
0
10
50.779392
20
347.691992
11
50.009900
21
348.370000
0
LINE
8
0
10
50.009900
20
348.370000
11
48.901795
21
348.205254
0
LINE
8
0
10
48.901795
20
348.205254
11
48.022556
21
347.743906
0
LINE
8
0
10
48.022556
20
347.743906
11
47.338552
21
347.046543
0
LINE
8
0
10
47.338552
20
347.046543
11
46.816150
21
346.173750
0
LINE
8
0
10
46.816150
20
346.173750
11
46.121619
21
344.144219
0
LINE
8
0
10
46.121619
20
344.144219
11
45.669900
21
342.140000
0
LINE
8
0
10
45.669900
20
342.140000
11
43.799553
21
332.717246
0
LINE
8
0
10
43.799553
20
332.717246
11
42.099603
21
323.261094
0
LINE
8
0
10
42.099603
20
323.261094
11
40.575439
21
313.774707
0
LINE
8
0
10
40.575439
20
313.774707
11
39.232450
21
304.261250
0
LINE
8
0
10
39.232450
20
304.261250
11
38.076023
21
294.723887
0
LINE
8
0
10
38.076023
20
294.723887
11
37.111547
21
285.165781
0
LINE
8
0
10
37.111547
20
285.165781
11
36.344410
21
275.590098
0
LINE
8
0
10
36.344410
20
275.590098
11
35.780000
21
266.000000
0
LINE
8
0
10
35.780000
20
266.000000
11
35.658301
21
258.856875
0
LINE
8
0
10
35.658301
20
258.856875
11
35.659530
21
251.670625
0
LINE
8
0
10
35.659530
20
251.670625
11
35.871928
21
244.475937
0
LINE
8
0
10
35.871928
20
244.475937
11
36.383737
21
237.307500
0
LINE
8
0
10
36.383737
20
237.307500
11
37.283198
21
230.200000
0
LINE
8
0
10
37.283198
20
230.200000
11
38.658552
21
223.188125
0
LINE
8
0
10
38.658552
20
223.188125
11
39.552263
21
219.728887
0
LINE
8
0
10
39.552263
20
219.728887
11
40.598038
21
216.306563
0
LINE
8
0
10
40.598038
20
216.306563
11
41.806907
21
212.925488
0
LINE
8
0
10
41.806907
20
212.925488
11
43.189900
21
209.590000
0
LINE
8
0
10
43.189900
20
209.590000
11
45.117595
21
204.232402
0
LINE
8
0
10
45.117595
20
204.232402
11
47.408338
21
199.011094
0
LINE
8
0
10
47.408338
20
199.011094
11
50.054861
21
193.958301
0
LINE
8
0
10
50.054861
20
193.958301
11
53.049900
21
189.106250
0
LINE
8
0
10
53.049900
20
189.106250
11
56.386189
21
184.487168
0
LINE
8
0
10
56.386189
20
184.487168
11
60.056462
21
180.133281
0
LINE
8
0
10
60.056462
20
180.133281
11
64.053455
21
176.076816
0
LINE
8
0
10
64.053455
20
176.076816
11
68.369900
21
172.350000
0
LINE
8
0
10
68.369900
20
172.350000
11
71.392831
21
169.908477
0
LINE
8
0
10
71.392831
20
169.908477
11
74.502717
21
167.601250
0
LINE
8
0
10
74.502717
20
167.601250
11
80.959916
21
163.366250
0
LINE
8
0
10
80.959916
20
163.366250
11
87.694619
21
159.598125
0
LINE
8
0
10
87.694619
20
159.598125
11
94.659950
21
156.250000
0
LINE
8
0
10
94.659950
20
156.250000
11
101.809031
21
153.275000
0
LINE
8
0
10
101.809031
20
153.275000
11
109.094984
21
150.626250
0
LINE
8
0
10
109.094984
20
150.626250
11
116.470933
21
148.256875
0
LINE
8
0
10
116.470933
20
148.256875
11
123.890000
21
146.120000
0
LINE
8
0
10
123.890000
20
146.120000
11
131.042800
21
144.187368
0
LINE
8
0
10
131.042800
20
144.187368
11
138.278965
21
142.543633
0
LINE
8
0
10
138.278965
20
142.543633
11
145.583889
21
141.193159
0
LINE
8
0
10
145.583889
20
141.193159
11
152.942969
21
140.140312
0
LINE
8
0
10
152.942969
20
140.140312
11
160.341599
21
139.389458
0
LINE
8
0
10
160.341599
20
139.389458
11
167.765176
21
138.944961
0
LINE
8
0
10
167.765176
20
138.944961
11
175.199094
21
138.811187
0
LINE
8
0
10
175.199094
20
138.811187
11
182.628750
21
138.992500
0
LINE
8
0
10
182.628750
20
138.992500
11
190.039539
21
139.493267
0
LINE
8
0
10
190.039539
20
139.493267
11
197.416855
21
140.317852
0
LINE
8
0
10
197.416855
20
140.317852
11
204.746096
21
141.470620
0
LINE
8
0
10
204.746096
20
141.470620
11
212.012656
21
142.955938
0
LINE
8
0
10
212.012656
20
142.955938
11
219.201931
21
144.778169
0
LINE
8
0
10
219.201931
20
144.778169
11
226.299316
21
146.941680
0
LINE
8
0
10
226.299316
20
146.941680
11
233.290208
21
149.450835
0
LINE
8
0
10
233.290208
20
149.450835
11
240.160000
21
152.310000
0
LINE
8
0
10
240.160000
20
152.310000
11
238.119531
21
147.619844
0
LINE
8
0
10
238.119531
20
147.619844
11
236.218750
21
142.861250
0
LINE
8
0
10
236.218750
20
142.861250
11
234.691094
21
137.984531
0
LINE
8
0
10
234.691094
20
137.984531
11
234.140137
21
135.486348
0
LINE
8
0
10
234.140137
20
135.486348
11
233.770000
21
132.940000
0
LINE
8
0
10
233.770000
20
132.940000
11
233.448789
21
128.894746
0
LINE
8
0
10
233.448789
20
128.894746
11
233.379063
21
124.789844
0
LINE
8
0
10
233.379063
20
124.789844
11
233.607930
21
120.679082
0
LINE
8
0
10
233.607930
20
120.679082
11
234.182500
21
116.616250
0
LINE
8
0
10
234.182500
20
116.616250
11
235.149883
21
112.655137
0
LINE
8
0
10
235.149883
20
112.655137
11
236.557187
21
108.849531
0
LINE
8
0
10
236.557187
20
108.849531
11
238.451523
21
105.253223
0
LINE
8
0
10
238.451523
20
105.253223
11
239.596050
21
103.550364
0
LINE
8
0
10
239.596050
20
103.550364
11
240.880000
21
101.920000
0
LINE
8
0
10
240.880000
20
101.920000
11
243.798340
21
98.548537
0
LINE
8
0
10
243.798340
20
98.548537
11
247.074219
21
95.574548
0
LINE
8
0
10
247.074219
20
95.574548
11
250.656426
21
92.987727
0
LINE
8
0
10
250.656426
20
92.987727
11
254.493750
21
90.777762
0
LINE
8
0
10
254.493750
20
90.777762
11
258.534980
21
88.934347
0
LINE
8
0
10
258.534980
20
88.934347
11
262.728906
21
87.447170
0
LINE
8
0
10
262.728906
20
87.447170
11
267.024316
21
86.305924
0
LINE
8
0
10
267.024316
20
86.305924
11
271.370000
21
85.500300
0
LINE
8
0
10
271.370000
20
85.500300
11
274.394749
21
85.167072
0
LINE
8
0
10
274.394749
20
85.167072
11
277.421270
21
84.992605
0
LINE
8
0
10
277.421270
20
84.992605
11
283.463281
21
85.098737
0
LINE
8
0
10
283.463281
20
85.098737
11
289.463340
21
85.776277
0
LINE
8
0
10
289.463340
20
85.776277
11
295.388750
21
86.982800
0
LINE
8
0
10
295.388750
20
86.982800
11
301.206816
21
88.675886
0
LINE
8
0
10
301.206816
20
88.675886
11
306.884844
21
90.813112
0
LINE
8
0
10
306.884844
20
90.813112
11
312.390137
21
93.352058
0
LINE
8
0
10
312.390137
20
93.352058
11
317.690000
21
96.250300
0
LINE
8
0
10
317.690000
20
96.250300
11
322.089590
21
99.145982
0
LINE
8
0
10
322.089590
20
99.145982
11
326.361094
21
102.273252
0
LINE
8
0
10
326.361094
20
102.273252
11
330.456113
21
105.639604
0
LINE
8
0
10
330.456113
20
105.639604
11
334.326250
21
109.252538
0
LINE
8
0
10
334.326250
20
109.252538
11
337.923105
21
113.119547
0
LINE
8
0
10
337.923105
20
113.119547
11
341.198281
21
117.248130
0
LINE
8
0
10
341.198281
20
117.248130
11
344.103379
21
121.645782
0
LINE
8
0
10
344.103379
20
121.645782
11
346.590000
21
126.320000
0
LINE
8
0
10
346.590000
20
126.320000
11
349.577500
21
132.721250
0
LINE
8
0
10
349.577500
20
132.721250
11
350.890313
21
135.993594
0
LINE
8
0
10
350.890313
20
135.993594
11
352.010000
21
139.340000
0
LINE
8
0
10
352.010000
20
139.340000
11
356.216094
21
147.284844
0
LINE
8
0
10
356.216094
20
147.284844
11
360.248750
21
155.318750
0
LINE
8
0
10
360.248750
20
155.318750
11
364.009531
21
163.478281
0
LINE
8
0
10
364.009531
20
163.478281
11
367.400000
21
171.800000
0
LINE
8
0
10
367.400000
20
171.800000
11
368.280000
21
174.070000
0
LINE
8
0
10
368.280000
20
174.070000
11
375.280469
21
171.671250
0
LINE
8
0
10
375.280469
20
171.671250
11
382.261250
21
169.197500
0
LINE
8
0
10
382.261250
20
169.197500
11
389.296406
21
166.892500
0
LINE
8
0
10
389.296406
20
166.892500
11
392.857520
21
165.879453
0
LINE
8
0
10
392.857520
20
165.879453
11
396.460000
21
165.000000
0
LINE
8
0
10
396.460000
20
165.000000
11
395.645781
21
156.643438
0
LINE
8
0
10
395.645781
20
156.643438
11
394.731250
21
148.285000
0
LINE
8
0
10
394.731250
20
148.285000
11
394.144082
21
144.126758
0
LINE
8
0
10
394.144082
20
144.126758
11
393.421094
21
139.994062
0
LINE
8
0
10
393.421094
20
139.994062
11
392.525371
21
135.895586
0
LINE
8
0
10
392.525371
20
135.895586
11
391.420000
21
131.840000
0
LINE
8
0
10
391.420000
20
131.840000
11
389.348281
21
125.836192
0
LINE
8
0
10
389.348281
20
125.836192
11
386.988750
21
119.952036
0
LINE
8
0
10
386.988750
20
119.952036
11
384.398594
21
114.164684
0
LINE
8
0
10
384.398594
20
114.164684
11
381.635000
21
108.451288
0
LINE
8
0
10
381.635000
20
108.451288
11
375.816250
21
97.154970
0
LINE
8
0
10
375.816250
20
97.154970
11
369.990000
21
85.880300
0
LINE
8
0
10
369.990000
20
85.880300
11
365.524844
21
77.104050
0
LINE
8
0
10
365.524844
20
77.104050
11
363.478535
21
72.610222
0
LINE
8
0
10
363.478535
20
72.610222
11
361.613750
21
68.042800
0
LINE
8
0
10
361.613750
20
68.042800
11
359.973496
21
63.399441
0
LINE
8
0
10
359.973496
20
63.399441
11
358.600781
21
58.677800
0
LINE
8
0
10
358.600781
20
58.677800
11
357.538613
21
53.875534
0
LINE
8
0
10
357.538613
20
53.875534
11
356.830000
21
48.990300
0
LINE
8
0
10
356.830000
20
48.990300
11
356.609648
21
43.989206
0
LINE
8
0
10
356.609648
20
43.989206
11
356.861562
21
38.959052
0
LINE
8
0
10
356.861562
20
38.959052
11
357.593945
21
33.964524
0
LINE
8
0
10
357.593945
20
33.964524
11
358.815000
21
29.070312
0
LINE
8
0
10
358.815000
20
29.070312
11
360.532930
21
24.341106
0
LINE
8
0
10
360.532930
20
24.341106
11
362.755938
21
19.841592
0
LINE
8
0
10
362.755938
20
19.841592
11
364.059409
21
17.698186
0
LINE
8
0
10
364.059409
20
17.698186
11
365.492227
21
15.636461
0
LINE
8
0
10
365.492227
20
15.636461
11
367.055415
21
13.664503
0
LINE
8
0
10
367.055415
20
13.664503
11
368.750000
21
11.790400
0
LINE
8
0
10
368.750000
20
11.790400
11
371.932811
21
9.174257
0
LINE
8
0
10
371.932811
20
9.174257
11
375.370609
21
6.946945
0
LINE
8
0
10
375.370609
20
6.946945
11
379.021197
21
5.091354
0
LINE
8
0
10
379.021197
20
5.091354
11
382.842375
21
3.590374
0
LINE
8
0
10
382.842375
20
3.590374
11
386.791943
21
2.426896
0
LINE
8
0
10
386.791943
20
2.426896
11
390.827703
21
1.583809
0
LINE
8
0
10
390.827703
20
1.583809
11
394.907455
21
1.044005
0
LINE
8
0
10
394.907455
20
1.044005
11
398.989000
21
0.790373
0
LINE
8
0
10
398.989000
20
0.790373
11
404.505934
21
1.164883
0
LINE
8
0
10
404.505934
20
1.164883
11
409.944469
21
2.070839
0
LINE
8
0
10
409.944469
20
2.070839
11
415.274957
21
3.474374
0
LINE
8
0
10
415.274957
20
3.474374
11
420.467750
21
5.341620
0
LINE
8
0
10
420.467750
20
5.341620
11
425.493199
21
7.638713
0
LINE
8
0
10
425.493199
20
7.638713
11
430.321656
21
10.331785
0
LINE
8
0
10
430.321656
20
10.331785
11
434.923473
21
13.386969
0
LINE
8
0
10
434.923473
20
13.386969
11
439.269000
21
16.770400
0
LINE
8
0
10
439.269000
20
16.770400
11
442.964840
21
19.926207
0
LINE
8
0
10
442.964840
20
19.926207
11
446.446344
21
23.306436
0
LINE
8
0
10
446.446344
20
23.306436
11
449.711988
21
26.892688
0
LINE
8
0
10
449.711988
20
26.892688
11
452.760250
21
30.666562
0
LINE
8
0
10
452.760250
20
30.666562
11
455.589605
21
34.609661
0
LINE
8
0
10
455.589605
20
34.609661
11
458.198531
21
38.703583
0
LINE
8
0
10
458.198531
20
38.703583
11
460.585504
21
42.929929
0
LINE
8
0
10
460.585504
20
42.929929
11
462.749000
21
47.270300
0
LINE
8
0
10
462.749000
20
47.270300
11
464.251969
21
50.711296
0
LINE
8
0
10
464.251969
20
50.711296
11
465.427750
21
54.248269
0
LINE
8
0
10
465.427750
20
54.248269
11
466.339156
21
57.860945
0
LINE
8
0
10
466.339156
20
57.860945
11
467.049000
21
61.529050
0
LINE
8
0
10
467.049000
20
61.529050
11
468.115250
21
68.950456
0
LINE
8
0
10
468.115250
20
68.950456
11
469.129000
21
76.350300
0
LINE
8
0
10
469.129000
20
76.350300
11
471.545406
21
87.918847
0
LINE
8
0
10
471.545406
20
87.918847
11
473.490250
21
99.576400
0
LINE
8
0
10
473.490250
20
99.576400
11
474.260348
21
105.434763
0
LINE
8
0
10
474.260348
20
105.434763
11
474.881969
21
111.310828
0
LINE
8
0
10
474.881969
20
111.310828
11
475.344918
21
117.203079
0
LINE
8
0
10
475.344918
20
117.203079
11
475.639000
21
123.110000
0
LINE
8
0
10
475.639000
20
123.110000
11
475.797750
21
139.298750
0
LINE
8
0
10
475.797750
20
139.298750
11
475.676969
21
147.391719
0
LINE
8
0
10
475.676969
20
147.391719
11
475.379000
21
155.480000
0
LINE
8
0
10
475.379000
20
155.480000
11
482.424000
21
155.595312
0
LINE
8
0
10
482.424000
20
155.595312
11
489.461500
21
155.900000
0
LINE
8
0
10
489.461500
20
155.900000
11
503.529000
21
156.740000
0
LINE
8
0
10
503.529000
20
156.740000
11
503.099020
21
146.868340
0
LINE
8
0
10
503.099020
20
146.868340
11
502.965406
21
136.981098
0
LINE
8
0
10
502.965406
20
136.981098
11
503.152652
21
127.093629
0
LINE
8
0
10
503.152652
20
127.093629
11
503.685250
21
117.221288
0
LINE
8
0
10
503.685250
20
117.221288
11
504.587691
21
107.379429
0
LINE
8
0
10
504.587691
20
107.379429
11
505.884469
21
97.583408
0
LINE
8
0
10
505.884469
20
97.583408
11
507.600074
21
87.848580
0
LINE
8
0
10
507.600074
20
87.848580
11
509.759000
21
78.190300
0
LINE
8
0
10
509.759000
20
78.190300
11
511.602750
21
64.917800
0
LINE
8
0
10
511.602750
20
64.917800
11
512.175895
21
61.621355
0
LINE
8
0
10
512.175895
20
61.621355
11
512.890719
21
58.359363
0
LINE
8
0
10
512.890719
20
58.359363
11
513.795621
21
55.144714
0
LINE
8
0
10
513.795621
20
55.144714
11
514.939000
21
51.990300
0
LINE
8
0
10
514.939000
20
51.990300
11
516.649469
21
48.074929
0
LINE
8
0
10
516.649469
20
48.074929
11
518.582125
21
44.271706
0
LINE
8
0
10
518.582125
20
44.271706
11
520.720094
21
40.581218
0
LINE
8
0
10
520.720094
20
40.581218
11
523.046500
21
37.004050
0
LINE
8
0
10
523.046500
20
37.004050
11
525.544469
21
33.540788
0
LINE
8
0
10
525.544469
20
33.540788
11
528.197125
21
30.192019
0
LINE
8
0
10
528.197125
20
30.192019
11
530.987594
21
26.958327
0
LINE
8
0
10
530.987594
20
26.958327
11
533.899000
21
23.840300
0
LINE
8
0
10
533.899000
20
23.840300
11
537.674703
21
20.423457
0
LINE
8
0
10
537.674703
20
20.423457
11
541.640250
21
17.197853
0
LINE
8
0
10
541.640250
20
17.197853
11
545.789547
21
14.204741
0
LINE
8
0
10
545.789547
20
14.204741
11
550.116500
21
11.485373
0
LINE
8
0
10
550.116500
20
11.485373
11
554.615016
21
9.080999
0
LINE
8
0
10
554.615016
20
9.080999
11
559.279000
21
7.032873
0
LINE
8
0
10
559.279000
20
7.032873
11
564.102359
21
5.382246
0
LINE
8
0
10
564.102359
20
5.382246
11
569.079000
21
4.170370
0
LINE
8
0
10
569.079000
20
4.170370
11
571.792784
21
3.650350
0
LINE
8
0
10
571.792784
20
3.650350
11
574.541930
21
3.279745
0
LINE
8
0
10
574.541930
20
3.279745
11
577.315626
21
3.059608
0
LINE
8
0
10
577.315626
20
3.059608
11
580.103063
21
2.990995
0
LINE
8
0
10
580.103063
20
2.990995
11
582.893429
21
3.074961
0
LINE
8
0
10
582.893429
20
3.074961
11
585.675914
21
3.312559
0
LINE
8
0
10
585.675914
20
3.312559
11
588.439708
21
3.704845
0
LINE
8
0
10
588.439708
20
3.704845
11
591.174000
21
4.252874
0
LINE
8
0
10
591.174000
20
4.252874
11
593.867979
21
4.957700
0
LINE
8
0
10
593.867979
20
4.957700
11
596.510836
21
5.820377
0
LINE
8
0
10
596.510836
20
5.820377
11
599.091759
21
6.841962
0
LINE
8
0
10
599.091759
20
6.841962
11
601.599938
21
8.023508
0
LINE
8
0
10
601.599938
20
8.023508
11
604.024562
21
9.366070
0
LINE
8
0
10
604.024562
20
9.366070
11
606.354820
21
10.870703
0
LINE
8
0
10
606.354820
20
10.870703
11
608.579903
21
12.538461
0
LINE
8
0
10
608.579903
20
12.538461
11
610.689000
21
14.370400
0
LINE
8
0
10
610.689000
20
14.370400
11
612.666129
21
16.667047
0
LINE
8
0
10
612.666129
20
16.667047
11
614.429156
21
19.123780
0
LINE
8
0
10
614.429156
20
19.123780
11
615.991793
21
21.716926
0
LINE
8
0
10
615.991793
20
21.716926
11
617.367750
21
24.422812
0
LINE
8
0
10
617.367750
20
24.422812
11
618.570738
21
27.217766
0
LINE
8
0
10
618.570738
20
27.217766
11
619.614469
21
30.078114
0
LINE
8
0
10
619.614469
20
30.078114
11
621.279000
21
35.900300
0
LINE
8
0
10
621.279000
20
35.900300
11
621.839945
21
39.255612
0
LINE
8
0
10
621.839945
20
39.255612
11
622.162809
21
42.609988
0
LINE
8
0
10
622.162809
20
42.609988
11
622.260760
21
45.959206
0
LINE
8
0
10
622.260760
20
45.959206
11
622.146969
21
49.299050
0
LINE
8
0
10
622.146969
20
49.299050
11
621.834603
21
52.625300
0
LINE
8
0
10
621.834603
20
52.625300
11
621.336832
21
55.933737
0
LINE
8
0
10
621.336832
20
55.933737
11
620.666825
21
59.220144
0
LINE
8
0
10
620.666825
20
59.220144
11
619.837750
21
62.480300
0
LINE
8
0
10
619.837750
20
62.480300
11
617.755074
21
68.904988
0
LINE
8
0
10
617.755074
20
68.904988
11
615.194156
21
75.174050
0
LINE
8
0
10
615.194156
20
75.174050
11
612.260348
21
81.253737
0
LINE
8
0
10
612.260348
20
81.253737
11
609.059000
21
87.110300
0
LINE
8
0
10
609.059000
20
87.110300
11
602.295250
21
100.228564
0
LINE
8
0
10
602.295250
20
100.228564
11
598.879859
21
106.795112
0
LINE
8
0
10
598.879859
20
106.795112
11
595.576500
21
113.412537
0
LINE
8
0
10
595.576500
20
113.412537
11
592.485953
21
120.115289
0
LINE
8
0
10
592.485953
20
120.115289
11
589.709000
21
126.937817
0
LINE
8
0
10
589.709000
20
126.937817
11
587.346422
21
133.914571
0
LINE
8
0
10
587.346422
20
133.914571
11
586.352018
21
137.471548
0
LINE
8
0
10
586.352018
20
137.471548
11
585.499000
21
141.080000
0
LINE
8
0
10
585.499000
20
141.080000
11
584.264000
21
149.301094
0
LINE
8
0
10
584.264000
20
149.301094
11
583.239000
21
157.551250
0
LINE
8
0
10
583.239000
20
157.551250
11
582.484000
21
165.825781
0
LINE
8
0
10
582.484000
20
165.825781
11
582.059000
21
174.120000
0
LINE
8
0
10
582.059000
20
174.120000
11
591.095250
21
177.858750
0
LINE
8
0
10
591.095250
20
177.858750
11
600.019000
21
181.860000
0
LINE
8
0
10
600.019000
20
181.860000
11
600.999000
21
181.400000
0
LINE
8
0
10
600.999000
20
181.400000
11
604.740406
21
171.690781
0
LINE
8
0
10
604.740406
20
171.690781
11
608.955250
21
162.181250
0
LINE
8
0
10
608.955250
20
162.181250
11
613.591969
21
152.868594
0
LINE
8
0
10
613.591969
20
152.868594
11
618.599000
21
143.750000
0
LINE
8
0
10
618.599000
20
143.750000
11
623.115250
21
133.811250
0
LINE
8
0
10
623.115250
20
133.811250
11
625.572594
21
128.937969
0
LINE
8
0
10
625.572594
20
128.937969
11
628.239000
21
124.180000
0
LINE
8
0
10
628.239000
20
124.180000
11
631.881656
21
119.349669
0
LINE
8
0
10
631.881656
20
119.349669
11
635.894625
21
114.832348
0
LINE
8
0
10
635.894625
20
114.832348
11
640.244156
21
110.637301
0
LINE
8
0
10
640.244156
20
110.637301
11
644.896500
21
106.773787
0
LINE
8
0
10
644.896500
20
106.773787
11
649.817906
21
103.251069
0
LINE
8
0
10
649.817906
20
103.251069
11
654.974625
21
100.078408
0
LINE
8
0
10
654.974625
20
100.078408
11
660.332906
21
97.265064
0
LINE
8
0
10
660.332906
20
97.265064
11
665.859000
21
94.820300
0
LINE
8
0
10
665.859000
20
94.820300
11
670.008902
21
93.346511
0
LINE
8
0
10
670.008902
20
93.346511
11
674.242594
21
92.078738
0
LINE
8
0
10
674.242594
20
92.078738
11
678.543551
21
91.044870
0
LINE
8
0
10
678.543551
20
91.044870
11
682.895250
21
90.272800
0
LINE
8
0
10
682.895250
20
90.272800
11
687.281168
21
89.790417
0
LINE
8
0
10
687.281168
20
89.790417
11
691.684781
21
89.625612
0
LINE
8
0
10
691.684781
20
89.625612
11
696.089566
21
89.806277
0
LINE
8
0
10
696.089566
20
89.806277
11
700.479000
21
90.360300
0
LINE
8
0
10
700.479000
20
90.360300
11
704.915250
21
91.185631
0
LINE
8
0
10
704.915250
20
91.185631
11
709.257750
21
92.434827
0
LINE
8
0
10
709.257750
20
92.434827
11
713.467125
21
94.090187
0
LINE
8
0
10
713.467125
20
94.090187
11
717.504000
21
96.134012
0
LINE
8
0
10
717.504000
20
96.134012
11
721.329000
21
98.548606
0
LINE
8
0
10
721.329000
20
98.548606
11
724.902750
21
101.316267
0
LINE
8
0
10
724.902750
20
101.316267
11
728.185875
21
104.419298
0
LINE
8
0
10
728.185875
20
104.419298
11
731.139000
21
107.840000
0
LINE
8
0
10
731.139000
20
107.840000
11
733.314156
21
111.190449
0
LINE
8
0
10
733.314156
20
111.190449
11
735.006500
21
114.761094
0
LINE
8
0
10
735.006500
20
114.761094
11
736.256344
21
118.505879
0
LINE
8
0
10
736.256344
20
118.505879
11
737.104000
21
122.378750
0
LINE
8
0
10
737.104000
20
122.378750
11
737.589781
21
126.333652
0
LINE
8
0
10
737.589781
20
126.333652
11
737.754000
21
130.324531
0
LINE
8
0
10
737.754000
20
130.324531
11
737.636969
21
134.305332
0
LINE
8
0
10
737.636969
20
134.305332
11
737.279000
21
138.230000
0
LINE
8
0
10
737.279000
20
138.230000
11
736.659437
21
141.396614
0
LINE
8
0
10
736.659437
20
141.396614
11
735.850777
21
144.495566
0
LINE
8
0
10
735.850777
20
144.495566
11
734.864315
21
147.527400
0
LINE
8
0
10
734.864315
20
147.527400
11
733.711344
21
150.492656
0
LINE
8
0
10
733.711344
20
150.492656
11
732.403158
21
153.391877
0
LINE
8
0
10
732.403158
20
153.391877
11
730.951051
21
156.225605
0
LINE
8
0
10
730.951051
20
156.225605
11
727.660250
21
161.698750
0
LINE
8
0
10
727.660250
20
161.698750
11
723.929293
21
166.916426
0
LINE
8
0
10
723.929293
20
166.916426
11
719.848531
21
171.882969
0
LINE
8
0
10
719.848531
20
171.882969
11
715.508316
21
176.602715
0
LINE
8
0
10
715.508316
20
176.602715
11
710.999000
21
181.080000
0
LINE
8
0
10
710.999000
20
181.080000
11
705.229469
21
186.783750
0
LINE
8
0
10
705.229469
20
186.783750
11
699.620250
21
192.645000
0
LINE
8
0
10
699.620250
20
192.645000
11
688.519000
21
204.480000
0
LINE
8
0
10
688.519000
20
204.480000
11
686.414000
21
206.978750
0
LINE
8
0
10
686.414000
20
206.978750
11
684.729000
21
209.770000
0
LINE
8
0
10
684.729000
20
209.770000
11
689.017926
21
212.971152
0
LINE
8
0
10
689.017926
20
212.971152
11
693.082906
21
216.441719
0
LINE
8
0
10
693.082906
20
216.441719
11
696.917496
21
220.162363
0
LINE
8
0
10
696.917496
20
220.162363
11
700.515250
21
224.113750
0
LINE
8
0
10
700.515250
20
224.113750
11
703.869723
21
228.276543
0
LINE
8
0
10
703.869723
20
228.276543
11
706.974469
21
232.631406
0
LINE
8
0
10
706.974469
20
232.631406
11
709.823043
21
237.159004
0
LINE
8
0
10
709.823043
20
237.159004
11
712.409000
21
241.840000
0
LINE
8
0
10
712.409000
20
241.840000
11
714.816207
21
247.137324
0
LINE
8
0
10
714.816207
20
247.137324
11
716.826031
21
252.598594
0
LINE
8
0
10
716.826031
20
252.598594
11
718.428277
21
258.192754
0
LINE
8
0
10
718.428277
20
258.192754
11
719.612750
21
263.888750
0
LINE
8
0
10
719.612750
20
263.888750
11
720.369254
21
269.655527
0
LINE
8
0
10
720.369254
20
269.655527
11
720.687594
21
275.462031
0
LINE
8
0
10
720.687594
20
275.462031
11
720.557574
21
281.277207
0
LINE
8
0
10
720.557574
20
281.277207
11
719.969000
21
287.070000
0
LINE
8
0
10
719.969000
20
287.070000
11
718.908512
21
293.270879
0
LINE
8
0
10
718.908512
20
293.270879
11
717.558219
21
299.407656
0
LINE
8
0
10
717.558219
20
299.407656
11
715.942379
21
305.479043
0
LINE
8
0
10
715.942379
20
305.479043
11
714.085250
21
311.483750
0
LINE
8
0
10
714.085250
20
311.483750
11
712.011090
21
317.420488
0
LINE
8
0
10
712.011090
20
317.420488
11
709.744156
21
323.287969
0
LINE
8
0
10
709.744156
20
323.287969
11
707.308707
21
329.084902
0
LINE
8
0
10
707.308707
20
329.084902
11
704.729000
21
334.810000
0
LINE
8
0
10
704.729000
20
334.810000
11
701.660895
21
341.061445
0
LINE
8
0
10
701.660895
20
341.061445
11
698.399781
21
347.220312
0
LINE
8
0
10
698.399781
20
347.220312
11
694.939215
21
353.270898
0
LINE
8
0
10
694.939215
20
353.270898
11
691.272750
21
359.197500
0
LINE
8
0
10
691.272750
20
359.197500
11
687.393941
21
364.984414
0
LINE
8
0
10
687.393941
20
364.984414
11
683.296344
21
370.615938
0
LINE
8
0
10
683.296344
20
370.615938
11
678.973512
21
376.076367
0
LINE
8
0
10
678.973512
20
376.076367
11
674.419000
21
381.350000
0
LINE
8
0
10
674.419000
20
381.350000
11
669.261656
21
386.469531
0
LINE
8
0
10
669.261656
20
386.469531
11
666.545230
21
388.905605
0
LINE
8
0
10
666.545230
20
388.905605
11
663.722750
21
391.211250
0
LINE
8
0
10
663.722750
20
391.211250
11
660.783551
21
393.350488
0
LINE
8
0
10
660.783551
20
393.350488
11
657.716969
21
395.287344
0
LINE
8
0
10
657.716969
20
395.287344
11
654.512340
21
396.985840
0
LINE
8
0
10
654.512340
20
396.985840
11
651.159000
21
398.410000
0
LINE
8
0
10
651.159000
20
398.410000
11
648.119000
21
399.490000
0
LINE
8
0
10
648.119000
20
399.490000
11
640.369000
21
420.880000
0
LINE
8
0
10
640.369000
20
420.880000
11
645.627750
21
422.613750
0
LINE
8
0
10
645.627750
20
422.613750
11
650.999000
21
424.010000
0
LINE
8
0
10
650.999000
20
424.010000
11
665.938863
21
428.168437
0
LINE
8
0
10
665.938863
20
428.168437
11
680.799156
21
432.604375
0
LINE
8
0
10
680.799156
20
432.604375
11
695.573434
21
437.318750
0
LINE
8
0
10
695.573434
20
437.318750
11
710.255250
21
442.312500
0
LINE
8
0
10
710.255250
20
442.312500
11
724.838160
21
447.586563
0
LINE
8
0
10
724.838160
20
447.586563
11
739.315719
21
453.141875
0
LINE
8
0
10
739.315719
20
453.141875
11
753.681480
21
458.979375
0
LINE
8
0
10
753.681480
20
458.979375
11
767.929000
21
465.100000
0
LINE
8
0
10
767.929000
20
465.100000
11
778.996793
21
470.188555
0
LINE
8
0
10
778.996793
20
470.188555
11
789.989469
21
475.446562
0
LINE
8
0
10
789.989469
20
475.446562
11
800.890973
21
480.892539
0
LINE
8
0
10
800.890973
20
480.892539
11
811.685250
21
486.545000
0
LINE
8
0
10
811.685250
20
486.545000
11
822.356246
21
492.422461
0
LINE
8
0
10
822.356246
20
492.422461
11
832.887906
21
498.543437
0
LINE
8
0
10
832.887906
20
498.543437
11
843.264176
21
504.926445
0
LINE
8
0
10
843.264176
20
504.926445
11
853.469000
21
511.590000
0
LINE
8
0
10
853.469000
20
511.590000
11
862.024391
21
517.349160
0
LINE
8
0
10
862.024391
20
517.349160
11
870.434000
21
523.330156
0
LINE
8
0
10
870.434000
20
523.330156
11
878.676734
21
529.542012
0
LINE
8
0
10
878.676734
20
529.542012
11
886.731500
21
535.993750
0
LINE
8
0
10
886.731500
20
535.993750
11
894.577203
21
542.694395
0
LINE
8
0
10
894.577203
20
542.694395
11
902.192750
21
549.652969
0
LINE
8
0
10
902.192750
20
549.652969
11
909.557047
21
556.878496
0
LINE
8
0
10
909.557047
20
556.878496
11
916.649000
21
564.380000
0
LINE
8
0
10
916.649000
20
564.380000
11
921.205992
21
569.508379
0
LINE
8
0
10
921.205992
20
569.508379
11
925.583687
21
574.795781
0
LINE
8
0
10
925.583687
20
574.795781
11
929.769664
21
580.238105
0
LINE
8
0
10
929.769664
20
580.238105
11
933.751500
21
585.831250
0
LINE
8
0
10
933.751500
20
585.831250
11
937.516773
21
591.571113
0
LINE
8
0
10
937.516773
20
591.571113
11
941.053063
21
597.453594
0
LINE
8
0
10
941.053063
20
597.453594
11
944.347945
21
603.474590
0
LINE
8
0
10
944.347945
20
603.474590
11
947.389000
21
609.630000
0
LINE
8
0
10
947.389000
20
609.630000
11
948.852906
21
612.915938
0
LINE
8
0
10
948.852906
20
612.915938
11
950.235250
21
616.252500
0
LINE
8
0
10
950.235250
20
616.252500
11
950.793004
21
617.955586
0
LINE
8
0
10
950.793004
20
617.955586
11
951.206969
21
619.690313
0
LINE
8
0
10
951.206969
20
619.690313
11
951.436012
21
621.463008
0
LINE
8
0
10
951.436012
20
621.463008
11
951.439000
21
623.280000
0
LINE
8
0
10
951.439000
20
623.280000
11
953.442633
21
630.329883
0
LINE
8
0
10
953.442633
20
630.329883
11
954.991812
21
637.499063
0
LINE
8
0
10
954.991812
20
637.499063
11
956.065211
21
644.753086
0
LINE
8
0
10
956.065211
20
644.753086
11
956.641500
21
652.057500
0
LINE
8
0
10
956.641500
20
652.057500
11
956.699352
21
659.377852
0
LINE
8
0
10
956.699352
20
659.377852
11
956.217437
21
666.679688
0
LINE
8
0
10
956.217437
20
666.679688
11
955.174430
21
673.928555
0
LINE
8
0
10
955.174430
20
673.928555
11
954.435851
21
677.522358
0
LINE
8
0
10
954.435851
20
677.522358
11
953.549000
21
681.090000
0
LINE
8
0
10
953.549000
20
681.090000
11
951.938102
21
686.859533
0
LINE
8
0
10
951.938102
20
686.859533
11
950.003062
21
692.513953
0
LINE
8
0
10
950.003062
20
692.513953
11
947.770367
21
698.053365
0
LINE
8
0
10
947.770367
20
698.053365
11
945.266500
21
703.477875
0
LINE
8
0
10
945.266500
20
703.477875
11
942.517945
21
708.787588
0
LINE
8
0
10
942.517945
20
708.787588
11
939.551187
21
713.982609
0
LINE
8
0
10
939.551187
20
713.982609
11
936.392711
21
719.063045
0
LINE
8
0
10
936.392711
20
719.063045
11
933.069000
21
724.029000
0
LINE
8
0
10
933.069000
20
724.029000
11
918.448219
21
746.062750
0
LINE
8
0
10
918.448219
20
746.062750
11
903.665250
21
767.984000
0
LINE
8
0
10
903.665250
20
767.984000
11
888.644156
21
789.740250
0
LINE
8
0
10
888.644156
20
789.740250
11
873.309000
21
811.279000
0
LINE
8
0
10
873.309000
20
811.279000
11
872.653375
21
812.186344
0
LINE
8
0
10
872.653375
20
812.186344
11
872.309000
21
813.175250
0
LINE
8
0
10
872.309000
20
813.175250
11
872.369625
21
814.188531
0
LINE
8
0
10
872.369625
20
814.188531
11
872.929000
21
815.169000
0
LINE
8
0
10
872.929000
20
815.169000
11
876.409312
21
820.629488
0
LINE
8
0
10
876.409312
20
820.629488
11
879.724625
21
826.186656
0
LINE
8
0
10
879.724625
20
826.186656
11
885.946500
21
837.535250
0
LINE
8
0
10
885.946500
20
837.535250
11
891.767125
21
849.103219
0
LINE
8
0
10
891.767125
20
849.103219
11
897.359000
21
860.779000
0
LINE
8
0
10
897.359000
20
860.779000
11
900.086500
21
866.771031
0
LINE
8
0
10
900.086500
20
866.771031
11
902.686500
21
872.820250
0
LINE
8
0
10
902.686500
20
872.820250
11
905.312750
21
878.856344
0
LINE
8
0
10
905.312750
20
878.856344
11
908.119000
21
884.809000
0
LINE
8
0
10
908.119000
20
884.809000
11
911.613609
21
890.474078
0
LINE
8
0
10
911.613609
20
890.474078
11
914.931500
21
896.240875
0
LINE
8
0
10
914.931500
20
896.240875
11
918.090016
21
902.096734
0
LINE
8
0
10
918.090016
20
902.096734
11
921.106500
21
908.029000
0
LINE
8
0
10
921.106500
20
908.029000
11
926.782750
21
920.072125
0
LINE
8
0
10
926.782750
20
920.072125
11
932.099000
21
932.269000
0
LINE
8
0
10
932.099000
20
932.269000
11
937.268531
21
945.610562
0
LINE
8
0
10
937.268531
20
945.610562
11
939.668668
21
952.359039
0
LINE
8
0
10
939.668668
20
952.359039
11
941.895250
21
959.164000
0
LINE
8
0
10
941.895250
20
959.164000
11
943.910426
21
966.028961
0
LINE
8
0
10
943.910426
20
966.028961
11
945.676344
21
972.957437
0
LINE
8
0
10
945.676344
20
972.957437
11
947.155152
21
979.952945
0
LINE
8
0
10
947.155152
20
979.952945
11
948.309000
21
987.019000
0
LINE
8
0
10
948.309000
20
987.019000
11
948.685094
21
993.326656
0
LINE
8
0
10
948.685094
20
993.326656
11
948.743707
21
996.537520
0
LINE
8
0
10
948.743707
20
996.537520
11
948.610250
21
999.732000
0
LINE
8
0
10
948.610250
20
999.732000
11
948.205387
21
1002.869293
0
LINE
8
0
10
948.205387
20
1002.869293
11
947.449781
21
1005.908594
0
LINE
8
0
10
947.449781
20
1005.908594
11
946.264098
21
1008.809098
0
LINE
8
0
10
946.264098
20
1008.809098
11
944.569000
21
1011.530000
0
LINE
8
0
10
944.569000
20
1011.530000
11
943.598834
21
1012.583982
0
LINE
8
0
10
943.598834
20
1012.583982
11
942.553141
21
1013.506230
0
LINE
8
0
10
942.553141
20
1013.506230
11
940.264000
21
1014.994844
0
LINE
8
0
10
940.264000
20
1014.994844
11
937.759234
21
1016.074473
0
LINE
8
0
10
937.759234
20
1016.074473
11
935.096500
21
1016.823750
0
LINE
8
0
10
935.096500
20
1016.823750
11
932.333453
21
1017.321309
0
LINE
8
0
10
932.333453
20
1017.321309
11
929.527750
21
1017.645781
0
LINE
8
0
10
929.527750
20
1017.645781
11
924.019000
21
1018.090000
0
LINE
8
0
10
924.019000
20
1018.090000
11
918.068941
21
1017.917715
0
LINE
8
0
10
918.068941
20
1017.917715
11
912.137281
21
1017.493594
0
LINE
8
0
10
912.137281
20
1017.493594
11
906.225543
21
1016.844238
0
LINE
8
0
10
906.225543
20
1016.844238
11
900.335250
21
1015.996250
0
LINE
8
0
10
900.335250
20
1015.996250
11
894.467926
21
1014.976230
0
LINE
8
0
10
894.467926
20
1014.976230
11
888.625094
21
1013.810781
0
LINE
8
0
10
888.625094
20
1013.810781
11
877.019000
21
1011.150000
0
LINE
8
0
10
877.019000
20
1011.150000
11
867.555543
21
1008.576500
0
LINE
8
0
10
867.555543
20
1008.576500
11
858.140719
21
1005.787187
0
LINE
8
0
10
858.140719
20
1005.787187
11
848.797848
21
1002.753844
0
LINE
8
0
10
848.797848
20
1002.753844
11
839.550250
21
999.448250
0
LINE
8
0
10
839.550250
20
999.448250
11
830.421246
21
995.842188
0
LINE
8
0
10
830.421246
20
995.842188
11
821.434156
21
991.907438
0
LINE
8
0
10
821.434156
20
991.907438
11
812.612301
21
987.615781
0
LINE
8
0
10
812.612301
20
987.615781
11
803.979000
21
982.939000
0
LINE
8
0
10
803.979000
20
982.939000
11
787.664625
21
977.349312
0
LINE
8
0
10
787.664625
20
977.349312
11
771.481500
21
971.371500
0
LINE
8
0
10
771.481500
20
971.371500
11
763.474312
21
968.169664
0
LINE
8
0
10
763.474312
20
968.169664
11
755.542125
21
964.789937
0
LINE
8
0
10
755.542125
20
964.789937
11
747.699000
21
961.205367
0
LINE
8
0
10
747.699000
20
961.205367
11
739.959000
21
957.389000
0
LINE
8
0
10
739.959000
20
957.389000
11
727.633844
21
966.907207
0
LINE
8
0
10
727.633844
20
966.907207
11
714.979625
21
975.994469
0
LINE
8
0
10
714.979625
20
975.994469
11
702.005719
21
984.620996
0
LINE
8
0
10
702.005719
20
984.620996
11
688.721500
21
992.757000
0
LINE
8
0
10
688.721500
20
992.757000
11
681.965953
21
996.631747
0
LINE
8
0
10
681.965953
20
996.631747
11
675.136344
21
1000.372691
0
LINE
8
0
10
675.136344
20
1000.372691
11
668.233844
21
1003.976111
0
LINE
8
0
10
668.233844
20
1003.976111
11
661.259625
21
1007.438281
0
LINE
8
0
10
661.259625
20
1007.438281
11
654.214859
21
1010.755479
0
LINE
8
0
10
654.214859
20
1010.755479
11
647.100719
21
1013.923980
0
LINE
8
0
10
647.100719
20
1013.923980
11
639.918375
21
1016.940062
0
LINE
8
0
10
639.918375
20
1016.940062
11
632.669000
21
1019.800000
0
LINE
8
0
10
632.669000
20
1019.800000
11
625.230553
21
1022.589868
0
LINE
8
0
10
625.230553
20
1022.589868
11
617.733922
21
1025.208320
0
LINE
8
0
10
617.733922
20
1025.208320
11
610.182799
21
1027.657378
0
LINE
8
0
10
610.182799
20
1027.657378
11
602.580875
21
1029.939063
0
LINE
8
0
10
602.580875
20
1029.939063
11
594.931842
21
1032.055396
0
LINE
8
0
10
594.931842
20
1032.055396
11
587.239391
21
1034.008398
0
LINE
8
0
10
587.239391
20
1034.008398
11
579.507213
21
1035.800093
0
LINE
8
0
10
579.507213
20
1035.800093
11
571.739000
21
1037.432500
0
LINE
8
0
10
571.739000
20
1037.432500
11
563.938443
21
1038.907642
0
LINE
8
0
10
563.938443
20
1038.907642
11
556.109234
21
1040.227539
0
LINE
8
0
10
556.109234
20
1040.227539
11
548.255064
21
1041.394214
0
LINE
8
0
10
548.255064
20
1041.394214
11
540.379625
21
1042.409688
0
LINE
8
0
10
540.379625
20
1042.409688
11
524.579703
21
1043.995117
0
LINE
8
0
10
524.579703
20
1043.995117
11
508.739000
21
1045.000000
0
LINE
8
0
10
877.019000
20
1011.150000
11
888.625094
21
1013.810781
0
LINE
8
0
10
888.625094
20
1013.810781
11
894.467926
21
1014.976230
0
LINE
8
0
10
894.467926
20
1014.976230
11
900.335250
21
1015.996250
0
LINE
8
0
10
900.335250
20
1015.996250
11
906.225543
21
1016.844238
0
LINE
8
0
10
906.225543
20
1016.844238
11
912.137281
21
1017.493594
0
LINE
8
0
10
912.137281
20
1017.493594
11
918.068941
21
1017.917715
0
LINE
8
0
10
918.068941
20
1017.917715
11
924.019000
21
1018.090000
0
LINE
8
0
10
924.019000
20
1018.090000
11
929.527750
21
1017.645781
0
LINE
8
0
10
929.527750
20
1017.645781
11
932.333453
21
1017.321309
0
LINE
8
0
10
932.333453
20
1017.321309
11
935.096500
21
1016.823750
0
LINE
8
0
10
935.096500
20
1016.823750
11
937.759234
21
1016.074473
0
LINE
8
0
10
937.759234
20
1016.074473
11
940.264000
21
1014.994844
0
LINE
8
0
10
940.264000
20
1014.994844
11
942.553141
21
1013.506230
0
LINE
8
0
10
942.553141
20
1013.506230
11
943.598834
21
1012.583982
0
LINE
8
0
10
943.598834
20
1012.583982
11
944.569000
21
1011.530000
0
LINE
8
0
10
944.569000
20
1011.530000
11
946.264098
21
1008.809098
0
LINE
8
0
10
946.264098
20
1008.809098
11
947.449781
21
1005.908594
0
LINE
8
0
10
947.449781
20
1005.908594
11
948.205387
21
1002.869293
0
LINE
8
0
10
948.205387
20
1002.869293
11
948.610250
21
999.732000
0
LINE
8
0
10
948.610250
20
999.732000
11
948.743707
21
996.537520
0
LINE
8
0
10
948.743707
20
996.537520
11
948.685094
21
993.326656
0
LINE
8
0
10
948.685094
20
993.326656
11
948.309000
21
987.019000
0
LINE
8
0
10
948.309000
20
987.019000
11
947.155152
21
979.952945
0
LINE
8
0
10
947.155152
20
979.952945
11
945.676344
21
972.957437
0
LINE
8
0
10
945.676344
20
972.957437
11
943.910426
21
966.028961
0
LINE
8
0
10
943.910426
20
966.028961
11
941.895250
21
959.164000
0
LINE
8
0
10
941.895250
20
959.164000
11
939.668668
21
952.359039
0
LINE
8
0
10
939.668668
20
952.359039
11
937.268531
21
945.610562
0
LINE
8
0
10
937.268531
20
945.610562
11
932.099000
21
932.269000
0
LINE
8
0
10
932.099000
20
932.269000
11
926.782750
21
920.072125
0
LINE
8
0
10
926.782750
20
920.072125
11
921.106500
21
908.029000
0
LINE
8
0
10
921.106500
20
908.029000
11
918.090016
21
902.096734
0
LINE
8
0
10
918.090016
20
902.096734
11
914.931500
21
896.240875
0
LINE
8
0
10
914.931500
20
896.240875
11
911.613609
21
890.474078
0
LINE
8
0
10
911.613609
20
890.474078
11
908.119000
21
884.809000
0
LINE
8
0
10
908.119000
20
884.809000
11
915.414938
21
905.342437
0
LINE
8
0
10
915.414938
20
905.342437
11
918.884898
21
915.702555
0
LINE
8
0
10
918.884898
20
915.702555
11
922.064000
21
926.144000
0
LINE
8
0
10
922.064000
20
926.144000
11
924.823102
21
936.681070
0
LINE
8
0
10
924.823102
20
936.681070
11
926.004796
21
941.989933
0
LINE
8
0
10
926.004796
20
941.989933
11
927.033063
21
947.328063
0
LINE
8
0
10
927.033063
20
947.328063
11
927.891759
21
952.697247
0
LINE
8
0
10
927.891759
20
952.697247
11
928.564742
21
958.099273
0
LINE
8
0
10
928.564742
20
958.099273
11
929.035870
21
963.535929
0
LINE
8
0
10
929.035870
20
963.535929
11
929.289000
21
969.009000
0
LINE
8
0
10
929.289000
20
969.009000
11
928.871344
21
974.627125
0
LINE
8
0
10
928.871344
20
974.627125
11
928.486207
21
977.440172
0
LINE
8
0
10
928.486207
20
977.440172
11
927.935250
21
980.219000
0
LINE
8
0
10
927.935250
20
980.219000
11
927.182262
21
982.935953
0
LINE
8
0
10
927.182262
20
982.935953
11
926.191031
21
985.563375
0
LINE
8
0
10
926.191031
20
985.563375
11
924.925348
21
988.073609
0
LINE
8
0
10
924.925348
20
988.073609
11
923.349000
21
990.439000
0
LINE
8
0
10
923.349000
20
990.439000
11
921.835094
21
992.127008
0
LINE
8
0
10
921.835094
20
992.127008
11
920.121500
21
993.563063
0
LINE
8
0
10
920.121500
20
993.563063
11
918.242906
21
994.772711
0
LINE
8
0
10
918.242906
20
994.772711
11
916.234000
21
995.781500
0
LINE
8
0
10
916.234000
20
995.781500
11
914.129469
21
996.614977
0
LINE
8
0
10
914.129469
20
996.614977
11
911.964000
21
997.298687
0
LINE
8
0
10
911.964000
20
997.298687
11
907.589000
21
998.319000
0
LINE
8
0
10
907.589000
20
998.319000
11
903.040719
21
998.984756
0
LINE
8
0
10
903.040719
20
998.984756
11
898.474625
21
999.371922
0
LINE
8
0
10
898.474625
20
999.371922
11
893.896344
21
999.518971
0
LINE
8
0
10
893.896344
20
999.518971
11
889.311500
21
999.464375
0
LINE
8
0
10
889.311500
20
999.464375
11
880.144625
21
998.904141
0
LINE
8
0
10
880.144625
20
998.904141
11
871.019000
21
997.999000
0
LINE
8
0
10
871.019000
20
997.999000
11
862.511441
21
996.751832
0
LINE
8
0
10
862.511441
20
996.751832
11
854.042906
21
995.281656
0
LINE
8
0
10
854.042906
20
995.281656
11
845.612105
21
993.609215
0
LINE
8
0
10
845.612105
20
993.609215
11
837.217750
21
991.755250
0
LINE
8
0
10
837.217750
20
991.755250
11
828.858551
21
989.740504
0
LINE
8
0
10
828.858551
20
989.740504
11
820.533219
21
987.585719
0
LINE
8
0
10
820.533219
20
987.585719
11
803.979000
21
982.939000
0
LINE
8
0
10
803.979000
20
982.939000
11
812.612301
21
987.615781
0
LINE
8
0
10
812.612301
20
987.615781
11
821.434156
21
991.907438
0
LINE
8
0
10
821.434156
20
991.907438
11
830.421246
21
995.842188
0
LINE
8
0
10
830.421246
20
995.842188
11
839.550250
21
999.448250
0
LINE
8
0
10
839.550250
20
999.448250
11
848.797848
21
1002.753844
0
LINE
8
0
10
848.797848
20
1002.753844
11
858.140719
21
1005.787187
0
LINE
8
0
10
858.140719
20
1005.787187
11
867.555543
21
1008.576500
0
LINE
8
0
10
867.555543
20
1008.576500
11
877.019000
21
1011.150000
0
LINE
8
0
10
6.229990
20
1012.750000
11
7.573643
21
1013.862715
0
LINE
8
0
10
7.573643
20
1013.862715
11
9.032960
21
1014.791094
0
LINE
8
0
10
9.032960
20
1014.791094
11
10.586731
21
1015.554238
0
LINE
8
0
10
10.586731
20
1015.554238
11
12.213745
21
1016.171250
0
LINE
8
0
10
12.213745
20
1016.171250
11
15.602655
21
1017.043281
0
LINE
8
0
10
15.602655
20
1017.043281
11
19.030000
21
1017.560000
0
LINE
8
0
10
19.030000
20
1017.560000
11
24.514217
21
1017.793437
0
LINE
8
0
10
24.514217
20
1017.793437
11
30.008737
21
1017.807500
0
LINE
8
0
10
30.008737
20
1017.807500
11
35.501364
21
1017.607812
0
LINE
8
0
10
35.501364
20
1017.607812
11
40.979900
21
1017.200000
0
LINE
8
0
10
40.979900
20
1017.200000
11
49.143338
21
1016.024316
0
LINE
8
0
10
49.143338
20
1016.024316
11
57.259902
21
1014.585781
0
LINE
8
0
10
57.259902
20
1014.585781
11
65.327718
21
1012.900918
0
LINE
8
0
10
65.327718
20
1012.900918
11
73.344912
21
1010.986250
0
LINE
8
0
10
73.344912
20
1010.986250
11
81.309612
21
1008.858301
0
LINE
8
0
10
81.309612
20
1008.858301
11
89.219942
21
1006.533594
0
LINE
8
0
10
89.219942
20
1006.533594
11
97.074029
21
1004.028652
0
LINE
8
0
10
97.074029
20
1004.028652
11
104.870000
21
1001.360000
0
LINE
8
0
10
104.870000
20
1001.360000
11
116.545781
21
996.945672
0
LINE
8
0
10
116.545781
20
996.945672
11
122.316465
21
994.562135
0
LINE
8
0
10
122.316465
20
994.562135
11
128.023750
21
992.036625
0
LINE
8
0
10
128.023750
20
992.036625
11
133.653691
21
989.350850
0
LINE
8
0
10
133.653691
20
989.350850
11
139.192344
21
986.486516
0
LINE
8
0
10
139.192344
20
986.486516
11
144.625762
21
983.425330
0
LINE
8
0
10
144.625762
20
983.425330
11
149.940000
21
980.149000
0
LINE
8
0
10
149.940000
20
980.149000
11
139.166793
21
983.396480
0
LINE
8
0
10
139.166793
20
983.396480
11
128.327484
21
986.467594
0
LINE
8
0
10
128.327484
20
986.467594
11
117.422546
21
989.311598
0
LINE
8
0
10
117.422546
20
989.311598
11
106.452450
21
991.877750
0
LINE
8
0
10
106.452450
20
991.877750
11
95.417666
21
994.115309
0
LINE
8
0
10
95.417666
20
994.115309
11
84.318666
21
995.973531
0
LINE
8
0
10
84.318666
20
995.973531
11
73.155920
21
997.401676
0
LINE
8
0
10
73.155920
20
997.401676
11
61.929900
21
998.349000
0
LINE
8
0
10
61.929900
20
998.349000
11
54.198183
21
998.454469
0
LINE
8
0
10
54.198183
20
998.454469
11
50.312698
21
998.335816
0
LINE
8
0
10
50.312698
20
998.335816
11
46.441163
21
998.045250
0
LINE
8
0
10
46.441163
20
998.045250
11
42.603850
21
997.539527
0
LINE
8
0
10
42.603850
20
997.539527
11
38.821036
21
996.775406
0
LINE
8
0
10
38.821036
20
996.775406
11
35.112994
21
995.709645
0
LINE
8
0
10
35.112994
20
995.709645
11
31.500000
21
994.299000
0
LINE
8
0
10
31.500000
20
994.299000
11
30.099119
21
993.557162
0
LINE
8
0
10
30.099119
20
993.557162
11
28.804043
21
992.702574
0
LINE
8
0
10
28.804043
20
992.702574
11
26.516719
21
990.690719
0
LINE
8
0
10
26.516719
20
990.690719
11
24.608848
21
988.334566
0
LINE
8
0
10
24.608848
20
988.334566
11
23.051250
21
985.705250
0
LINE
8
0
10
23.051250
20
985.705250
11
21.814746
21
982.873902
0
LINE
8
0
10
21.814746
20
982.873902
11
20.870156
21
979.911656
0
LINE
8
0
10
20.870156
20
979.911656
11
20.188301
21
976.889645
0
LINE
8
0
10
20.188301
20
976.889645
11
19.740000
21
973.879000
0
LINE
8
0
10
19.740000
20
973.879000
11
19.474453
21
968.206520
0
LINE
8
0
10
19.474453
20
968.206520
11
19.578750
21
962.547281
0
LINE
8
0
10
19.578750
20
962.547281
11
20.009297
21
956.906090
0
LINE
8
0
10
20.009297
20
956.906090
11
20.722500
21
951.287750
0
LINE
8
0
10
20.722500
20
951.287750
11
21.674766
21
945.697066
0
LINE
8
0
10
21.674766
20
945.697066
11
22.822500
21
940.138844
0
LINE
8
0
10
22.822500
20
940.138844
11
25.530000
21
929.139000
0
LINE
8
0
10
25.530000
20
929.139000
11
28.457344
21
918.812281
0
LINE
8
0
10
28.457344
20
918.812281
11
31.743750
21
908.595250
0
LINE
8
0
10
31.743750
20
908.595250
11
38.820000
21
888.329000
0
LINE
8
0
10
38.820000
20
888.329000
11
38.043125
21
888.919938
0
LINE
8
0
10
38.043125
20
888.919938
11
37.532500
21
889.696500
0
LINE
8
0
10
37.532500
20
889.696500
11
37.273125
21
890.604313
0
LINE
8
0
10
37.273125
20
890.604313
11
37.250000
21
891.589000
0
LINE
8
0
10
37.250000
20
891.589000
11
32.482480
21
900.470074
0
LINE
8
0
10
32.482480
20
900.470074
11
27.924844
21
909.464469
0
LINE
8
0
10
27.924844
20
909.464469
11
23.591972
21
918.570191
0
LINE
8
0
10
23.591972
20
918.570191
11
19.498749
21
927.785250
0
LINE
8
0
10
19.498749
20
927.785250
11
15.660056
21
937.107652
0
LINE
8
0
10
15.660056
20
937.107652
11
12.090777
21
946.535406
0
LINE
8
0
10
12.090777
20
946.535406
11
8.805794
21
956.066520
0
LINE
8
0
10
8.805794
20
956.066520
11
5.819990
21
965.699000
0
LINE
8
0
10
5.819990
20
965.699000
11
3.768433
21
974.963391
0
LINE
8
0
10
3.768433
20
974.963391
11
2.856677
21
979.625146
0
LINE
8
0
10
2.856677
20
979.625146
11
2.089999
21
984.306625
0
LINE
8
0
10
2.089999
20
984.306625
11
1.520195
21
989.007838
0
LINE
8
0
10
1.520195
20
989.007838
11
1.199062
21
993.728797
0
LINE
8
0
10
1.199062
20
993.728797
11
1.178398
21
998.469514
0
LINE
8
0
10
1.178398
20
998.469514
11
1.510000
21
1003.230000
0
LINE
8
0
10
1.510000
20
1003.230000
11
2.255937
21
1005.812969
0
LINE
8
0
10
2.255937
20
1005.812969
11
3.217499
21
1008.331250
0
LINE
8
0
10
3.217499
20
1008.331250
11
4.505308
21
1010.678906
0
LINE
8
0
10
4.505308
20
1010.678906
11
5.306126
21
1011.755645
0
LINE
8
0
10
5.306126
20
1011.755645
11
6.229990
21
1012.750000
0
LINE
8
0
10
1.510000
20
1003.230000
11
1.178398
21
998.469514
0
LINE
8
0
10
1.178398
20
998.469514
11
1.199062
21
993.728797
0
LINE
8
0
10
1.199062
20
993.728797
11
1.520195
21
989.007838
0
LINE
8
0
10
1.520195
20
989.007838
11
2.089999
21
984.306625
0
LINE
8
0
10
2.089999
20
984.306625
11
2.856677
21
979.625146
0
LINE
8
0
10
2.856677
20
979.625146
11
3.768433
21
974.963391
0
LINE
8
0
10
3.768433
20
974.963391
11
5.819990
21
965.699000
0
LINE
8
0
10
5.819990
20
965.699000
11
4.633528
21
968.566090
0
LINE
8
0
10
4.633528
20
968.566090
11
3.680152
21
971.501969
0
LINE
8
0
10
3.680152
20
971.501969
11
2.908884
21
974.491051
0
LINE
8
0
10
2.908884
20
974.491051
11
2.268749
21
977.517750
0
LINE
8
0
10
2.268749
20
977.517750
11
1.177969
21
983.621656
0
LINE
8
0
10
1.177969
20
983.621656
11
0.000000
21
989.689000
0
LINE
8
0
10
0.000000
20
1000.680000
11
1.510000
21
1003.230000
0
LINE
8
0
10
0.000000
20
989.689000
11
0.000000
21
1000.680000
0
LINE
8
0
10
842.499000
20
950.239000
11
848.461500
21
950.670250
0
LINE
8
0
10
848.461500
20
950.670250
11
851.475094
21
950.796578
0
LINE
8
0
10
851.475094
20
950.796578
11
854.484000
21
950.786500
0
LINE
8
0
10
854.484000
20
950.786500
11
857.468531
21
950.582359
0
LINE
8
0
10
857.468531
20
950.582359
11
860.409000
21
950.126500
0
LINE
8
0
10
860.409000
20
950.126500
11
863.285719
21
949.361266
0
LINE
8
0
10
863.285719
20
949.361266
11
866.079000
21
948.229000
0
LINE
8
0
10
866.079000
20
948.229000
11
868.212516
21
947.084449
0
LINE
8
0
10
868.212516
20
947.084449
11
870.219000
21
945.670719
0
LINE
8
0
10
870.219000
20
945.670719
11
872.043609
21
944.013941
0
LINE
8
0
10
872.043609
20
944.013941
11
873.631500
21
942.140250
0
LINE
8
0
10
873.631500
20
942.140250
11
874.927828
21
940.075777
0
LINE
8
0
10
874.927828
20
940.075777
11
875.877750
21
937.846656
0
LINE
8
0
10
875.877750
20
937.846656
11
876.426422
21
935.479020
0
LINE
8
0
10
876.426422
20
935.479020
11
876.519000
21
932.999000
0
LINE
8
0
10
876.519000
20
932.999000
11
876.127965
21
929.112633
0
LINE
8
0
10
876.127965
20
929.112633
11
875.351969
21
925.317438
0
LINE
8
0
10
875.351969
20
925.317438
11
874.246676
21
921.608023
0
LINE
8
0
10
874.246676
20
921.608023
11
872.867750
21
917.979000
0
LINE
8
0
10
872.867750
20
917.979000
11
871.270855
21
914.424977
0
LINE
8
0
10
871.270855
20
914.424977
11
869.511656
21
910.940563
0
LINE
8
0
10
869.511656
20
910.940563
11
865.729000
21
904.159000
0
LINE
8
0
10
865.729000
20
904.159000
11
862.166656
21
898.271187
0
LINE
8
0
10
862.166656
20
898.271187
11
858.485250
21
892.456500
0
LINE
8
0
10
858.485250
20
892.456500
11
854.798219
21
886.645562
0
LINE
8
0
10
854.798219
20
886.645562
11
851.219000
21
880.769000
0
LINE
8
0
10
851.219000
20
880.769000
11
848.016188
21
875.850875
0
LINE
8
0
10
848.016188
20
875.850875
11
846.279898
21
873.469859
0
LINE
8
0
10
846.279898
20
873.469859
11
844.429000
21
871.184000
0
LINE
8
0
10
844.429000
20
871.184000
11
842.444977
21
869.025641
0
LINE
8
0
10
842.444977
20
869.025641
11
840.309313
21
867.027125
0
LINE
8
0
10
840.309313
20
867.027125
11
838.003492
21
865.220797
0
LINE
8
0
10
838.003492
20
865.220797
11
835.509000
21
863.639000
0
LINE
8
0
10
835.509000
20
863.639000
11
834.664156
21
863.252594
0
LINE
8
0
10
834.664156
20
863.252594
11
833.820250
21
863.292750
0
LINE
8
0
10
833.820250
20
863.292750
11
833.060719
21
863.691031
0
LINE
8
0
10
833.060719
20
863.691031
11
832.469000
21
864.379000
0
LINE
8
0
10
832.469000
20
864.379000
11
820.380406
21
878.742125
0
LINE
8
0
10
820.380406
20
878.742125
11
807.947750
21
892.809000
0
LINE
8
0
10
807.947750
20
892.809000
11
795.168219
21
906.560875
0
LINE
8
0
10
795.168219
20
906.560875
11
782.039000
21
919.979000
0
LINE
8
0
10
782.039000
20
919.979000
11
781.392594
21
920.654781
0
LINE
8
0
10
781.392594
20
920.654781
11
781.217750
21
921.462750
0
LINE
8
0
10
781.217750
20
921.462750
11
781.483531
21
922.261344
0
LINE
8
0
10
781.483531
20
922.261344
11
782.159000
21
922.909000
0
LINE
8
0
10
782.159000
20
922.909000
11
787.430875
21
926.963414
0
LINE
8
0
10
787.430875
20
926.963414
11
792.918375
21
930.704938
0
LINE
8
0
10
792.918375
20
930.704938
11
798.598062
21
934.145992
0
LINE
8
0
10
798.598062
20
934.145992
11
804.446500
21
937.299000
0
LINE
8
0
10
804.446500
20
937.299000
11
810.440250
21
940.176383
0
LINE
8
0
10
810.440250
20
940.176383
11
816.555875
21
942.790562
0
LINE
8
0
10
816.555875
20
942.790562
11
822.769937
21
945.153961
0
LINE
8
0
10
822.769937
20
945.153961
11
829.059000
21
947.279000
0
LINE
8
0
10
829.059000
20
947.279000
11
835.737750
21
948.946500
0
LINE
8
0
10
835.737750
20
948.946500
11
839.101031
21
949.672438
0
LINE
8
0
10
839.101031
20
949.672438
11
842.499000
21
950.239000
0
LINE
8
0
10
96.349900
20
940.409000
11
99.819527
21
940.729066
0
LINE
8
0
10
99.819527
20
940.729066
11
103.278371
21
940.856402
0
LINE
8
0
10
103.278371
20
940.856402
11
106.724556
21
940.801717
0
LINE
8
0
10
106.724556
20
940.801717
11
110.156208
21
940.575719
0
LINE
8
0
10
110.156208
20
940.575719
11
113.571452
21
940.189115
0
LINE
8
0
10
113.571452
20
940.189115
11
116.968413
21
939.652613
0
LINE
8
0
10
116.968413
20
939.652613
11
123.699988
21
938.172750
0
LINE
8
0
10
123.699988
20
938.172750
11
130.335932
21
936.221793
0
LINE
8
0
10
130.335932
20
936.221793
11
136.861248
21
933.885406
0
LINE
8
0
10
136.861248
20
933.885406
11
143.260937
21
931.249254
0
LINE
8
0
10
143.260937
20
931.249254
11
149.520000
21
928.399000
0
LINE
8
0
10
149.520000
20
928.399000
11
155.482969
21
925.335406
0
LINE
8
0
10
155.482969
20
925.335406
11
161.268750
21
921.942750
0
LINE
8
0
10
161.268750
20
921.942750
11
166.857656
21
918.233219
0
LINE
8
0
10
166.857656
20
918.233219
11
172.230000
21
914.219000
0
LINE
8
0
10
172.230000
20
914.219000
11
172.650098
21
913.896754
0
LINE
8
0
10
172.650098
20
913.896754
11
172.849531
21
913.538531
0
LINE
8
0
10
172.849531
20
913.538531
11
172.868262
21
913.157105
0
LINE
8
0
10
172.868262
20
913.157105
11
172.746250
21
912.765250
0
LINE
8
0
10
172.746250
20
912.765250
11
172.239844
21
912.001344
0
LINE
8
0
10
172.239844
20
912.001344
11
171.650000
21
911.349000
0
LINE
8
0
10
171.650000
20
911.349000
11
158.847187
21
897.820094
0
LINE
8
0
10
158.847187
20
897.820094
11
146.380000
21
883.982750
0
LINE
8
0
10
146.380000
20
883.982750
11
134.257812
21
869.843531
0
LINE
8
0
10
134.257812
20
869.843531
11
122.490000
21
855.409000
0
LINE
8
0
10
122.490000
20
855.409000
11
121.781719
21
854.595250
0
LINE
8
0
10
121.781719
20
854.595250
11
120.828750
21
854.194000
0
LINE
8
0
10
120.828750
20
854.194000
11
119.791406
21
854.227750
0
LINE
8
0
10
119.791406
20
854.227750
11
118.830000
21
854.719000
0
LINE
8
0
10
118.830000
20
854.719000
11
116.727129
21
856.250719
0
LINE
8
0
10
116.727129
20
856.250719
11
114.760781
21
857.937125
0
LINE
8
0
10
114.760781
20
857.937125
11
112.919355
21
859.757594
0
LINE
8
0
10
112.919355
20
859.757594
11
111.191250
21
861.691500
0
LINE
8
0
10
111.191250
20
861.691500
11
108.028594
21
865.817125
0
LINE
8
0
10
108.028594
20
865.817125
11
105.180000
21
870.149000
0
LINE
8
0
10
105.180000
20
870.149000
11
99.229942
21
879.804313
0
LINE
8
0
10
99.229942
20
879.804313
11
93.174913
21
889.409000
0
LINE
8
0
10
93.174913
20
889.409000
11
90.243968
21
894.264430
0
LINE
8
0
10
90.243968
20
894.264430
11
87.449902
21
899.193688
0
LINE
8
0
10
87.449902
20
899.193688
11
84.847088
21
904.225602
0
LINE
8
0
10
84.847088
20
904.225602
11
82.489900
21
909.389000
0
LINE
8
0
10
82.489900
20
909.389000
11
80.950369
21
914.261188
0
LINE
8
0
10
80.950369
20
914.261188
11
80.280154
21
916.763023
0
LINE
8
0
10
80.280154
20
916.763023
11
79.766150
21
919.289000
0
LINE
8
0
10
79.766150
20
919.289000
11
79.475740
21
921.824352
0
LINE
8
0
10
79.475740
20
921.824352
11
79.476306
21
924.354312
0
LINE
8
0
10
79.476306
20
924.354312
11
79.835232
21
926.864117
0
LINE
8
0
10
79.835232
20
926.864117
11
80.619900
21
929.339000
0
LINE
8
0
10
80.619900
20
929.339000
11
81.810955
21
931.560699
0
LINE
8
0
10
81.810955
20
931.560699
11
83.319587
21
933.528219
0
LINE
8
0
10
83.319587
20
933.528219
11
85.097752
21
935.248941
0
LINE
8
0
10
85.097752
20
935.248941
11
87.097400
21
936.730250
0
LINE
8
0
10
87.097400
20
936.730250
11
89.270486
21
937.979527
0
LINE
8
0
10
89.270486
20
937.979527
11
91.568962
21
939.004156
0
LINE
8
0
10
91.568962
20
939.004156
11
93.944783
21
939.811520
0
LINE
8
0
10
93.944783
20
939.811520
11
96.349900
21
940.409000
0
LINE
8
0
10
234.080000
20
660.790000
11
236.793630
21
661.120789
0
LINE
8
0
10
236.793630
20
661.120789
11
239.513574
21
661.211152
0
LINE
8
0
10
239.513574
20
661.211152
11
242.225286
21
661.069338
0
LINE
8
0
10
242.225286
20
661.069338
11
244.914219
21
660.703594
0
LINE
8
0
10
244.914219
20
660.703594
11
247.565828
21
660.122166
0
LINE
8
0
10
247.565828
20
660.122166
11
250.165566
21
659.333301
0
LINE
8
0
10
250.165566
20
659.333301
11
252.698889
21
658.345247
0
LINE
8
0
10
252.698889
20
658.345247
11
255.151250
21
657.166250
0
LINE
8
0
10
255.151250
20
657.166250
11
257.508103
21
655.804558
0
LINE
8
0
10
257.508103
20
655.804558
11
259.754902
21
654.268418
0
LINE
8
0
10
259.754902
20
654.268418
11
261.877102
21
652.566077
0
LINE
8
0
10
261.877102
20
652.566077
11
263.860156
21
650.705781
0
LINE
8
0
10
263.860156
20
650.705781
11
265.689519
21
648.695779
0
LINE
8
0
10
265.689519
20
648.695779
11
267.350645
21
646.544316
0
LINE
8
0
10
267.350645
20
646.544316
11
268.828987
21
644.259641
0
LINE
8
0
10
268.828987
20
644.259641
11
270.110000
21
641.850000
0
LINE
8
0
10
270.110000
20
641.850000
11
271.641914
21
638.441895
0
LINE
8
0
10
271.641914
20
638.441895
11
272.727813
21
634.902656
0
LINE
8
0
10
272.727813
20
634.902656
11
273.390430
21
631.269902
0
LINE
8
0
10
273.390430
20
631.269902
11
273.652500
21
627.581250
0
LINE
8
0
10
273.652500
20
627.581250
11
273.536758
21
623.874316
0
LINE
8
0
10
273.536758
20
623.874316
11
273.065938
21
620.186719
0
LINE
8
0
10
273.065938
20
620.186719
11
272.262773
21
616.556074
0
LINE
8
0
10
272.262773
20
616.556074
11
271.150000
21
613.020000
0
LINE
8
0
10
271.150000
20
613.020000
11
271.596621
21
615.640469
0
LINE
8
0
10
271.596621
20
615.640469
11
271.878594
21
618.303125
0
LINE
8
0
10
271.878594
20
618.303125
11
271.972832
21
620.983594
0
LINE
8
0
10
271.972832
20
620.983594
11
271.856250
21
623.657500
0
LINE
8
0
10
271.856250
20
623.657500
11
271.505762
21
626.300469
0
LINE
8
0
10
271.505762
20
626.300469
11
270.898281
21
628.888125
0
LINE
8
0
10
270.898281
20
628.888125
11
270.010723
21
631.396094
0
LINE
8
0
10
270.010723
20
631.396094
11
268.820000
21
633.800000
0
LINE
8
0
10
268.820000
20
633.800000
11
267.830542
21
635.516138
0
LINE
8
0
10
267.830542
20
635.516138
11
266.713086
21
637.143945
0
LINE
8
0
10
266.713086
20
637.143945
11
264.129687
21
640.115937
0
LINE
8
0
10
264.129687
20
640.115937
11
261.140820
21
642.678711
0
LINE
8
0
10
261.140820
20
642.678711
11
257.817500
21
644.795000
0
LINE
8
0
10
257.817500
20
644.795000
11
254.230742
21
646.427539
0
LINE
8
0
10
254.230742
20
646.427539
11
250.451563
21
647.539062
0
LINE
8
0
10
250.451563
20
647.539062
11
246.550977
21
648.092305
0
LINE
8
0
10
246.550977
20
648.092305
11
244.577349
21
648.147925
0
LINE
8
0
10
244.577349
20
648.147925
11
242.600000
21
648.050000
0
LINE
8
0
10
242.600000
20
648.050000
11
240.064055
21
647.753682
0
LINE
8
0
10
240.064055
20
647.753682
11
237.588535
21
647.201016
0
LINE
8
0
10
237.588535
20
647.201016
11
235.188162
21
646.407061
0
LINE
8
0
10
235.188162
20
646.407061
11
232.877656
21
645.386875
0
LINE
8
0
10
232.877656
20
645.386875
11
230.671741
21
644.155518
0
LINE
8
0
10
230.671741
20
644.155518
11
228.585137
21
642.728047
0
LINE
8
0
10
228.585137
20
642.728047
11
226.632566
21
641.119521
0
LINE
8
0
10
226.632566
20
641.119521
11
224.828750
21
639.345000
0
LINE
8
0
10
224.828750
20
639.345000
11
223.188411
21
637.419541
0
LINE
8
0
10
223.188411
20
637.419541
11
221.726270
21
635.358203
0
LINE
8
0
10
221.726270
20
635.358203
11
220.457048
21
633.176045
0
LINE
8
0
10
220.457048
20
633.176045
11
219.395469
21
630.888125
0
LINE
8
0
10
219.395469
20
630.888125
11
218.556252
21
628.509502
0
LINE
8
0
10
218.556252
20
628.509502
11
217.954121
21
626.055234
0
LINE
8
0
10
217.954121
20
626.055234
11
217.603796
21
623.540381
0
LINE
8
0
10
217.603796
20
623.540381
11
217.520000
21
620.980000
0
LINE
8
0
10
217.520000
20
620.980000
11
217.528640
21
618.832380
0
LINE
8
0
10
217.528640
20
618.832380
11
217.725527
21
616.705137
0
LINE
8
0
10
217.725527
20
616.705137
11
218.102737
21
614.608567
0
LINE
8
0
10
218.102737
20
614.608567
11
218.652344
21
612.552969
0
LINE
8
0
10
218.652344
20
612.552969
11
219.366423
21
610.548640
0
LINE
8
0
10
219.366423
20
610.548640
11
220.237051
21
608.605879
0
LINE
8
0
10
220.237051
20
608.605879
11
221.256301
21
606.734983
0
LINE
8
0
10
221.256301
20
606.734983
11
222.416250
21
604.946250
0
LINE
8
0
10
222.416250
20
604.946250
11
223.708972
21
603.249978
0
LINE
8
0
10
223.708972
20
603.249978
11
225.126543
21
601.656465
0
LINE
8
0
10
225.126543
20
601.656465
11
226.661038
21
600.176008
0
LINE
8
0
10
226.661038
20
600.176008
11
228.304531
21
598.818906
0
LINE
8
0
10
228.304531
20
598.818906
11
230.049099
21
597.595457
0
LINE
8
0
10
230.049099
20
597.595457
11
231.886816
21
596.515957
0
LINE
8
0
10
231.886816
20
596.515957
11
233.809758
21
595.590706
0
LINE
8
0
10
233.809758
20
595.590706
11
235.810000
21
594.830000
0
LINE
8
0
10
235.810000
20
594.830000
11
237.916211
21
594.236582
0
LINE
8
0
10
237.916211
20
594.236582
11
240.063438
21
593.795156
0
LINE
8
0
10
240.063438
20
593.795156
11
242.238320
21
593.511465
0
LINE
8
0
10
242.238320
20
593.511465
11
244.427500
21
593.391250
0
LINE
8
0
10
244.427500
20
593.391250
11
246.617617
21
593.440254
0
LINE
8
0
10
246.617617
20
593.440254
11
248.795313
21
593.664219
0
LINE
8
0
10
248.795313
20
593.664219
11
250.947227
21
594.068887
0
LINE
8
0
10
250.947227
20
594.068887
11
253.060000
21
594.660000
0
LINE
8
0
10
253.060000
20
594.660000
11
249.758848
21
593.426855
0
LINE
8
0
10
249.758848
20
593.426855
11
246.351406
21
592.529219
0
LINE
8
0
10
246.351406
20
592.529219
11
242.872949
21
591.973535
0
LINE
8
0
10
242.872949
20
591.973535
11
239.358750
21
591.766250
0
LINE
8
0
10
239.358750
20
591.766250
11
235.844082
21
591.913809
0
LINE
8
0
10
235.844082
20
591.913809
11
232.364219
21
592.422656
0
LINE
8
0
10
232.364219
20
592.422656
11
228.954434
21
593.299238
0
LINE
8
0
10
228.954434
20
593.299238
11
225.650000
21
594.550000
0
LINE
8
0
10
225.650000
20
594.550000
11
222.689863
21
595.953281
0
LINE
8
0
10
222.689863
20
595.953281
11
219.888281
21
597.642500
0
LINE
8
0
10
219.888281
20
597.642500
11
217.262246
21
599.594219
0
LINE
8
0
10
217.262246
20
599.594219
11
214.828750
21
601.785000
0
LINE
8
0
10
214.828750
20
601.785000
11
212.604785
21
604.191406
0
LINE
8
0
10
212.604785
20
604.191406
11
210.607344
21
606.790000
0
LINE
8
0
10
210.607344
20
606.790000
11
208.853418
21
609.557344
0
LINE
8
0
10
208.853418
20
609.557344
11
207.360000
21
612.470000
0
LINE
8
0
10
207.360000
20
612.470000
11
206.173555
21
615.593867
0
LINE
8
0
10
206.173555
20
615.593867
11
205.299062
21
618.817813
0
LINE
8
0
10
205.299062
20
618.817813
11
204.736289
21
622.111602
0
LINE
8
0
10
204.736289
20
622.111602
11
204.485000
21
625.445000
0
LINE
8
0
10
204.485000
20
625.445000
11
204.544961
21
628.787773
0
LINE
8
0
10
204.544961
20
628.787773
11
204.915937
21
632.109688
0
LINE
8
0
10
204.915937
20
632.109688
11
205.597695
21
635.380508
0
LINE
8
0
10
205.597695
20
635.380508
11
206.590000
21
638.570000
0
LINE
8
0
10
206.590000
20
638.570000
11
207.475288
21
640.711387
0
LINE
8
0
10
207.475288
20
640.711387
11
208.506211
21
642.784688
0
LINE
8
0
10
208.506211
20
642.784688
11
209.675356
21
644.782988
0
LINE
8
0
10
209.675356
20
644.782988
11
210.975313
21
646.699375
0
LINE
8
0
10
210.975313
20
646.699375
11
212.398667
21
648.526934
0
LINE
8
0
10
212.398667
20
648.526934
11
213.938008
21
650.258750
0
LINE
8
0
10
213.938008
20
650.258750
11
217.335000
21
653.407500
0
LINE
8
0
10
217.335000
20
653.407500
11
219.177827
21
654.810605
0
LINE
8
0
10
219.177827
20
654.810605
11
221.106992
21
656.090312
0
LINE
8
0
10
221.106992
20
656.090312
11
223.115083
21
657.239707
0
LINE
8
0
10
223.115083
20
657.239707
11
225.194687
21
658.251875
0
LINE
8
0
10
225.194687
20
658.251875
11
227.338394
21
659.119902
0
LINE
8
0
10
227.338394
20
659.119902
11
229.538789
21
659.836875
0
LINE
8
0
10
229.538789
20
659.836875
11
231.788462
21
660.395879
0
LINE
8
0
10
231.788462
20
660.395879
11
234.080000
21
660.790000
0
LINE
8
0
10
715.989000
20
660.800000
11
718.651119
21
661.122510
0
LINE
8
0
10
718.651119
20
661.122510
11
721.318453
21
661.213984
0
LINE
8
0
10
721.318453
20
661.213984
11
723.977467
21
661.082217
0
LINE
8
0
10
723.977467
20
661.082217
11
726.614625
21
660.735000
0
LINE
8
0
10
726.614625
20
660.735000
11
729.216393
21
660.180127
0
LINE
8
0
10
729.216393
20
660.180127
11
731.769234
21
659.425391
0
LINE
8
0
10
731.769234
20
659.425391
11
734.259615
21
658.478584
0
LINE
8
0
10
734.259615
20
658.478584
11
736.674000
21
657.347500
0
LINE
8
0
10
736.674000
20
657.347500
11
738.998854
21
656.039932
0
LINE
8
0
10
738.998854
20
656.039932
11
741.220641
21
654.563672
0
LINE
8
0
10
741.220641
20
654.563672
11
743.325826
21
652.926514
0
LINE
8
0
10
743.325826
20
652.926514
11
745.300875
21
651.136250
0
LINE
8
0
10
745.300875
20
651.136250
11
747.132252
21
649.200674
0
LINE
8
0
10
747.132252
20
649.200674
11
748.806422
21
647.127578
0
LINE
8
0
10
748.806422
20
647.127578
11
750.309850
21
644.924756
0
LINE
8
0
10
750.309850
20
644.924756
11
751.629000
21
642.600000
0
LINE
8
0
10
751.629000
20
642.600000
11
752.657525
21
640.509456
0
LINE
8
0
10
752.657525
20
640.509456
11
753.530953
21
638.354707
0
LINE
8
0
10
753.530953
20
638.354707
11
754.249811
21
636.146082
0
LINE
8
0
10
754.249811
20
636.146082
11
754.814625
21
633.893906
0
LINE
8
0
10
754.814625
20
633.893906
11
755.225924
21
631.608508
0
LINE
8
0
10
755.225924
20
631.608508
11
755.484234
21
629.300215
0
LINE
8
0
10
755.484234
20
629.300215
11
755.590084
21
626.979353
0
LINE
8
0
10
755.590084
20
626.979353
11
755.544000
21
624.656250
0
LINE
8
0
10
755.544000
20
624.656250
11
755.346510
21
622.341233
0
LINE
8
0
10
755.346510
20
622.341233
11
754.998141
21
620.044629
0
LINE
8
0
10
754.998141
20
620.044629
11
754.499420
21
617.776765
0
LINE
8
0
10
754.499420
20
617.776765
11
753.850875
21
615.547969
0
LINE
8
0
10
753.850875
20
615.547969
11
753.053033
21
613.368567
0
LINE
8
0
10
753.053033
20
613.368567
11
752.106422
21
611.248887
0
LINE
8
0
10
752.106422
20
611.248887
11
751.011568
21
609.199255
0
LINE
8
0
10
751.011568
20
609.199255
11
749.769000
21
607.230000
0
LINE
8
0
10
749.769000
20
607.230000
11
748.107997
21
604.922891
0
LINE
8
0
10
748.107997
20
604.922891
11
746.253004
21
602.773281
0
LINE
8
0
10
746.253004
20
602.773281
11
744.221673
21
600.789375
0
LINE
8
0
10
744.221673
20
600.789375
11
742.031656
21
598.979375
0
LINE
8
0
10
742.031656
20
598.979375
11
739.700604
21
597.351484
0
LINE
8
0
10
739.700604
20
597.351484
11
737.246168
21
595.913906
0
LINE
8
0
10
737.246168
20
595.913906
11
734.686000
21
594.674844
0
LINE
8
0
10
734.686000
20
594.674844
11
732.037750
21
593.642500
0
LINE
8
0
10
732.037750
20
593.642500
11
729.319071
21
592.825078
0
LINE
8
0
10
729.319071
20
592.825078
11
726.547613
21
592.230781
0
LINE
8
0
10
726.547613
20
592.230781
11
723.741029
21
591.867812
0
LINE
8
0
10
723.741029
20
591.867812
11
720.916969
21
591.744375
0
LINE
8
0
10
720.916969
20
591.744375
11
718.093084
21
591.868672
0
LINE
8
0
10
718.093084
20
591.868672
11
715.287027
21
592.248906
0
LINE
8
0
10
715.287027
20
592.248906
11
712.516449
21
592.893281
0
LINE
8
0
10
712.516449
20
592.893281
11
709.799000
21
593.810000
0
LINE
8
0
10
709.799000
20
593.810000
11
712.240953
21
593.511484
0
LINE
8
0
10
712.240953
20
593.511484
11
714.702125
21
593.400000
0
LINE
8
0
10
714.702125
20
593.400000
11
717.164234
21
593.481641
0
LINE
8
0
10
717.164234
20
593.481641
11
719.609000
21
593.762500
0
LINE
8
0
10
719.609000
20
593.762500
11
722.018141
21
594.248672
0
LINE
8
0
10
722.018141
20
594.248672
11
724.373375
21
594.946250
0
LINE
8
0
10
724.373375
20
594.946250
11
726.656422
21
595.861328
0
LINE
8
0
10
726.656422
20
595.861328
11
728.849000
21
597.000000
0
LINE
8
0
10
728.849000
20
597.000000
11
730.552218
21
598.050713
0
LINE
8
0
10
730.552218
20
598.050713
11
732.163648
21
599.228047
0
LINE
8
0
10
732.163648
20
599.228047
11
735.091813
21
601.926250
0
LINE
8
0
10
735.091813
20
601.926250
11
737.594820
21
605.021953
0
LINE
8
0
10
737.594820
20
605.021953
11
739.634000
21
608.442500
0
LINE
8
0
10
739.634000
20
608.442500
11
741.170680
21
612.115234
0
LINE
8
0
10
741.170680
20
612.115234
11
742.166187
21
615.967500
0
LINE
8
0
10
742.166187
20
615.967500
11
742.448917
21
617.938252
0
LINE
8
0
10
742.448917
20
617.938252
11
742.581852
21
619.926641
0
LINE
8
0
10
742.581852
20
619.926641
11
742.560157
21
621.923584
0
LINE
8
0
10
742.560157
20
621.923584
11
742.379000
21
623.920000
0
LINE
8
0
10
742.379000
20
623.920000
11
742.050948
21
626.163755
0
LINE
8
0
10
742.050948
20
626.163755
11
741.523648
21
628.357852
0
LINE
8
0
10
741.523648
20
628.357852
11
740.807384
21
630.491538
0
LINE
8
0
10
740.807384
20
630.491538
11
739.912437
21
632.554063
0
LINE
8
0
10
739.912437
20
632.554063
11
738.849093
21
634.534673
0
LINE
8
0
10
738.849093
20
634.534673
11
737.627633
21
636.422617
0
LINE
8
0
10
737.627633
20
636.422617
11
736.258341
21
638.207144
0
LINE
8
0
10
736.258341
20
638.207144
11
734.751500
21
639.877500
0
LINE
8
0
10
734.751500
20
639.877500
11
733.117394
21
641.422935
0
LINE
8
0
10
733.117394
20
641.422935
11
731.366305
21
642.832695
0
LINE
8
0
10
731.366305
20
642.832695
11
729.508517
21
644.096030
0
LINE
8
0
10
729.508517
20
644.096030
11
727.554312
21
645.202188
0
LINE
8
0
10
727.554312
20
645.202188
11
725.513976
21
646.140415
0
LINE
8
0
10
725.513976
20
646.140415
11
723.397789
21
646.899961
0
LINE
8
0
10
723.397789
20
646.899961
11
721.216036
21
647.470073
0
LINE
8
0
10
721.216036
20
647.470073
11
718.979000
21
647.840000
0
LINE
8
0
10
718.979000
20
647.840000
11
716.504225
21
648.114187
0
LINE
8
0
10
716.504225
20
648.114187
11
714.033141
21
648.134121
0
LINE
8
0
10
714.033141
20
648.134121
11
711.581861
21
647.910862
0
LINE
8
0
10
711.581861
20
647.910862
11
709.166500
21
647.455469
0
LINE
8
0
10
709.166500
20
647.455469
11
706.803170
21
646.779001
0
LINE
8
0
10
706.803170
20
646.779001
11
704.507984
21
645.892520
0
LINE
8
0
10
704.507984
20
645.892520
11
702.297057
21
644.807083
0
LINE
8
0
10
702.297057
20
644.807083
11
700.186500
21
643.533750
0
LINE
8
0
10
700.186500
20
643.533750
11
698.192428
21
642.083582
0
LINE
8
0
10
698.192428
20
642.083582
11
696.330953
21
640.467637
0
LINE
8
0
10
696.330953
20
640.467637
11
694.618189
21
638.696975
0
LINE
8
0
10
694.618189
20
638.696975
11
693.070250
21
636.782656
0
LINE
8
0
10
693.070250
20
636.782656
11
691.703248
21
634.735740
0
LINE
8
0
10
691.703248
20
634.735740
11
690.533297
21
632.567285
0
LINE
8
0
10
690.533297
20
632.567285
11
689.576510
21
630.288352
0
LINE
8
0
10
689.576510
20
630.288352
11
688.849000
21
627.910000
0
LINE
8
0
10
688.849000
20
627.910000
11
688.281187
21
624.705000
0
LINE
8
0
10
688.281187
20
624.705000
11
688.094000
21
621.455000
0
LINE
8
0
10
688.094000
20
621.455000
11
688.176813
21
618.190000
0
LINE
8
0
10
688.176813
20
618.190000
11
688.419000
21
614.940000
0
LINE
8
0
10
688.419000
20
614.940000
11
687.511031
21
617.878672
0
LINE
8
0
10
687.511031
20
617.878672
11
686.866500
21
620.888125
0
LINE
8
0
10
686.866500
20
620.888125
11
686.488219
21
623.943516
0
LINE
8
0
10
686.488219
20
623.943516
11
686.379000
21
627.020000
0
LINE
8
0
10
686.379000
20
627.020000
11
686.541656
21
630.092734
0
LINE
8
0
10
686.541656
20
630.092734
11
686.979000
21
633.136875
0
LINE
8
0
10
686.979000
20
633.136875
11
687.693844
21
636.127578
0
LINE
8
0
10
687.693844
20
636.127578
11
688.689000
21
639.040000
0
LINE
8
0
10
688.689000
20
639.040000
11
689.579186
21
641.148315
0
LINE
8
0
10
689.579186
20
641.148315
11
690.613453
21
643.186523
0
LINE
8
0
10
690.613453
20
643.186523
11
691.784244
21
645.148267
0
LINE
8
0
10
691.784244
20
645.148267
11
693.084000
21
647.027187
0
LINE
8
0
10
693.084000
20
647.027187
11
696.040172
21
650.511133
0
LINE
8
0
10
696.040172
20
650.511133
11
699.421500
21
653.587500
0
LINE
8
0
10
699.421500
20
653.587500
11
703.167516
21
656.205430
0
LINE
8
0
10
703.167516
20
656.205430
11
705.158385
21
657.326587
0
LINE
8
0
10
705.158385
20
657.326587
11
707.217750
21
658.314062
0
LINE
8
0
10
707.217750
20
658.314062
11
709.338053
21
659.161499
0
LINE
8
0
10
709.338053
20
659.161499
11
711.511734
21
659.862539
0
LINE
8
0
10
711.511734
20
659.862539
11
713.731236
21
660.410825
0
LINE
8
0
10
713.731236
20
660.410825
11
715.989000
21
660.800000
0
LINE
8
0
10
242.600000
20
648.050000
11
244.577349
21
648.147925
0
LINE
8
0
10
244.577349
20
648.147925
11
246.550977
21
648.092305
0
LINE
8
0
10
246.550977
20
648.092305
11
250.451563
21
647.539062
0
LINE
8
0
10
250.451563
20
647.539062
11
254.230742
21
646.427539
0
LINE
8
0
10
254.230742
20
646.427539
11
257.817500
21
644.795000
0
LINE
8
0
10
257.817500
20
644.795000
11
261.140820
21
642.678711
0
LINE
8
0
10
261.140820
20
642.678711
11
264.129687
21
640.115937
0
LINE
8
0
10
264.129687
20
640.115937
11
266.713086
21
637.143945
0
LINE
8
0
10
266.713086
20
637.143945
11
267.830542
21
635.516138
0
LINE
8
0
10
267.830542
20
635.516138
11
268.820000
21
633.800000
0
LINE
8
0
10
268.820000
20
633.800000
11
270.010723
21
631.396094
0
LINE
8
0
10
270.010723
20
631.396094
11
270.898281
21
628.888125
0
LINE
8
0
10
270.898281
20
628.888125
11
271.505762
21
626.300469
0
LINE
8
0
10
271.505762
20
626.300469
11
271.856250
21
623.657500
0
LINE
8
0
10
271.856250
20
623.657500
11
271.972832
21
620.983594
0
LINE
8
0
10
271.972832
20
620.983594
11
271.878594
21
618.303125
0
LINE
8
0
10
271.878594
20
618.303125
11
271.596621
21
615.640469
0
LINE
8
0
10
271.596621
20
615.640469
11
271.150000
21
613.020000
0
LINE
8
0
10
271.150000
20
613.020000
11
269.912910
21
609.905508
0
LINE
8
0
10
269.912910
20
609.905508
11
268.338906
21
606.953438
0
LINE
8
0
10
268.338906
20
606.953438
11
266.450137
21
604.199648
0
LINE
8
0
10
266.450137
20
604.199648
11
264.268750
21
601.680000
0
LINE
8
0
10
264.268750
20
601.680000
11
261.816895
21
599.430352
0
LINE
8
0
10
261.816895
20
599.430352
11
259.116719
21
597.486562
0
LINE
8
0
10
259.116719
20
597.486562
11
256.190371
21
595.884492
0
LINE
8
0
10
256.190371
20
595.884492
11
253.060000
21
594.660000
0
LINE
8
0
10
253.060000
20
594.660000
11
250.947227
21
594.068887
0
LINE
8
0
10
250.947227
20
594.068887
11
248.795313
21
593.664219
0
LINE
8
0
10
248.795313
20
593.664219
11
246.617617
21
593.440254
0
LINE
8
0
10
246.617617
20
593.440254
11
244.427500
21
593.391250
0
LINE
8
0
10
244.427500
20
593.391250
11
242.238320
21
593.511465
0
LINE
8
0
10
242.238320
20
593.511465
11
240.063438
21
593.795156
0
LINE
8
0
10
240.063438
20
593.795156
11
237.916211
21
594.236582
0
LINE
8
0
10
237.916211
20
594.236582
11
235.810000
21
594.830000
0
LINE
8
0
10
235.810000
20
594.830000
11
233.809758
21
595.590706
0
LINE
8
0
10
233.809758
20
595.590706
11
231.886816
21
596.515957
0
LINE
8
0
10
231.886816
20
596.515957
11
230.049099
21
597.595457
0
LINE
8
0
10
230.049099
20
597.595457
11
228.304531
21
598.818906
0
LINE
8
0
10
228.304531
20
598.818906
11
226.661038
21
600.176008
0
LINE
8
0
10
226.661038
20
600.176008
11
225.126543
21
601.656465
0
LINE
8
0
10
225.126543
20
601.656465
11
223.708972
21
603.249978
0
LINE
8
0
10
223.708972
20
603.249978
11
222.416250
21
604.946250
0
LINE
8
0
10
222.416250
20
604.946250
11
221.256301
21
606.734983
0
LINE
8
0
10
221.256301
20
606.734983
11
220.237051
21
608.605879
0
LINE
8
0
10
220.237051
20
608.605879
11
219.366423
21
610.548640
0
LINE
8
0
10
219.366423
20
610.548640
11
218.652344
21
612.552969
0
LINE
8
0
10
218.652344
20
612.552969
11
218.102737
21
614.608567
0
LINE
8
0
10
218.102737
20
614.608567
11
217.725527
21
616.705137
0
LINE
8
0
10
217.725527
20
616.705137
11
217.528640
21
618.832380
0
LINE
8
0
10
217.528640
20
618.832380
11
217.520000
21
620.980000
0
LINE
8
0
10
217.520000
20
620.980000
11
217.603796
21
623.540381
0
LINE
8
0
10
217.603796
20
623.540381
11
217.954121
21
626.055234
0
LINE
8
0
10
217.954121
20
626.055234
11
218.556252
21
628.509502
0
LINE
8
0
10
218.556252
20
628.509502
11
219.395469
21
630.888125
0
LINE
8
0
10
219.395469
20
630.888125
11
220.457048
21
633.176045
0
LINE
8
0
10
220.457048
20
633.176045
11
221.726270
21
635.358203
0
LINE
8
0
10
221.726270
20
635.358203
11
223.188411
21
637.419541
0
LINE
8
0
10
223.188411
20
637.419541
11
224.828750
21
639.345000
0
LINE
8
0
10
224.828750
20
639.345000
11
226.632566
21
641.119521
0
LINE
8
0
10
226.632566
20
641.119521
11
228.585137
21
642.728047
0
LINE
8
0
10
228.585137
20
642.728047
11
230.671741
21
644.155518
0
LINE
8
0
10
230.671741
20
644.155518
11
232.877656
21
645.386875
0
LINE
8
0
10
232.877656
20
645.386875
11
235.188162
21
646.407061
0
LINE
8
0
10
235.188162
20
646.407061
11
237.588535
21
647.201016
0
LINE
8
0
10
237.588535
20
647.201016
11
240.064055
21
647.753682
0
LINE
8
0
10
240.064055
20
647.753682
11
242.600000
21
648.050000
0
LINE
8
0
10
688.849000
20
627.910000
11
689.576510
21
630.288352
0
LINE
8
0
10
689.576510
20
630.288352
11
690.533297
21
632.567285
0
LINE
8
0
10
690.533297
20
632.567285
11
691.703248
21
634.735740
0
LINE
8
0
10
691.703248
20
634.735740
11
693.070250
21
636.782656
0
LINE
8
0
10
693.070250
20
636.782656
11
694.618189
21
638.696975
0
LINE
8
0
10
694.618189
20
638.696975
11
696.330953
21
640.467637
0
LINE
8
0
10
696.330953
20
640.467637
11
698.192428
21
642.083582
0
LINE
8
0
10
698.192428
20
642.083582
11
700.186500
21
643.533750
0
LINE
8
0
10
700.186500
20
643.533750
11
702.297057
21
644.807083
0
LINE
8
0
10
702.297057
20
644.807083
11
704.507984
21
645.892520
0
LINE
8
0
10
704.507984
20
645.892520
11
706.803170
21
646.779001
0
LINE
8
0
10
706.803170
20
646.779001
11
709.166500
21
647.455469
0
LINE
8
0
10
709.166500
20
647.455469
11
711.581861
21
647.910862
0
LINE
8
0
10
711.581861
20
647.910862
11
714.033141
21
648.134121
0
LINE
8
0
10
714.033141
20
648.134121
11
716.504225
21
648.114187
0
LINE
8
0
10
716.504225
20
648.114187
11
718.979000
21
647.840000
0
LINE
8
0
10
718.979000
20
647.840000
11
721.216036
21
647.470073
0
LINE
8
0
10
721.216036
20
647.470073
11
723.397789
21
646.899961
0
LINE
8
0
10
723.397789
20
646.899961
11
725.513976
21
646.140415
0
LINE
8
0
10
725.513976
20
646.140415
11
727.554312
21
645.202188
0
LINE
8
0
10
727.554312
20
645.202188
11
729.508517
21
644.096030
0
LINE
8
0
10
729.508517
20
644.096030
11
731.366305
21
642.832695
0
LINE
8
0
10
731.366305
20
642.832695
11
733.117394
21
641.422935
0
LINE
8
0
10
733.117394
20
641.422935
11
734.751500
21
639.877500
0
LINE
8
0
10
734.751500
20
639.877500
11
736.258341
21
638.207144
0
LINE
8
0
10
736.258341
20
638.207144
11
737.627633
21
636.422617
0
LINE
8
0
10
737.627633
20
636.422617
11
738.849093
21
634.534673
0
LINE
8
0
10
738.849093
20
634.534673
11
739.912437
21
632.554063
0
LINE
8
0
10
739.912437
20
632.554063
11
740.807384
21
630.491538
0
LINE
8
0
10
740.807384
20
630.491538
11
741.523648
21
628.357852
0
LINE
8
0
10
741.523648
20
628.357852
11
742.050948
21
626.163755
0
LINE
8
0
10
742.050948
20
626.163755
11
742.379000
21
623.920000
0
LINE
8
0
10
742.379000
20
623.920000
11
742.560157
21
621.923584
0
LINE
8
0
10
742.560157
20
621.923584
11
742.581852
21
619.926641
0
LINE
8
0
10
742.581852
20
619.926641
11
742.448917
21
617.938252
0
LINE
8
0
10
742.448917
20
617.938252
11
742.166187
21
615.967500
0
LINE
8
0
10
742.166187
20
615.967500
11
741.170680
21
612.115234
0
LINE
8
0
10
741.170680
20
612.115234
11
739.634000
21
608.442500
0
LINE
8
0
10
739.634000
20
608.442500
11
737.594820
21
605.021953
0
LINE
8
0
10
737.594820
20
605.021953
11
735.091813
21
601.926250
0
LINE
8
0
10
735.091813
20
601.926250
11
732.163648
21
599.228047
0
LINE
8
0
10
732.163648
20
599.228047
11
730.552218
21
598.050713
0
LINE
8
0
10
730.552218
20
598.050713
11
728.849000
21
597.000000
0
LINE
8
0
10
728.849000
20
597.000000
11
726.656422
21
595.861328
0
LINE
8
0
10
726.656422
20
595.861328
11
724.373375
21
594.946250
0
LINE
8
0
10
724.373375
20
594.946250
11
722.018141
21
594.248672
0
LINE
8
0
10
722.018141
20
594.248672
11
719.609000
21
593.762500
0
LINE
8
0
10
719.609000
20
593.762500
11
717.164234
21
593.481641
0
LINE
8
0
10
717.164234
20
593.481641
11
714.702125
21
593.400000
0
LINE
8
0
10
714.702125
20
593.400000
11
712.240953
21
593.511484
0
LINE
8
0
10
712.240953
20
593.511484
11
709.799000
21
593.810000
0
LINE
8
0
10
709.799000
20
593.810000
11
705.975191
21
594.932852
0
LINE
8
0
10
705.975191
20
594.932852
11
702.376031
21
596.588437
0
LINE
8
0
10
702.376031
20
596.588437
11
699.053668
21
598.727305
0
LINE
8
0
10
699.053668
20
598.727305
11
696.060250
21
601.300000
0
LINE
8
0
10
696.060250
20
601.300000
11
693.447926
21
604.257070
0
LINE
8
0
10
693.447926
20
604.257070
11
691.268844
21
607.549062
0
LINE
8
0
10
691.268844
20
607.549062
11
689.575152
21
611.126523
0
LINE
8
0
10
689.575152
20
611.126523
11
688.926625
21
613.006851
0
LINE
8
0
10
688.926625
20
613.006851
11
688.419000
21
614.940000
0
LINE
8
0
10
688.419000
20
614.940000
11
688.176813
21
618.190000
0
LINE
8
0
10
688.176813
20
618.190000
11
688.094000
21
621.455000
0
LINE
8
0
10
688.094000
20
621.455000
11
688.281187
21
624.705000
0
LINE
8
0
10
688.281187
20
624.705000
11
688.849000
21
627.910000
0
LINE
8
0
10
252.320000
20
631.640000
11
253.326079
21
631.894780
0
LINE
8
0
10
253.326079
20
631.894780
11
254.322695
21
631.974336
0
LINE
8
0
10
254.322695
20
631.974336
11
255.298042
21
631.892114
0
LINE
8
0
10
255.298042
20
631.892114
11
256.240313
21
631.661562
0
LINE
8
0
10
256.240313
20
631.661562
11
257.978398
21
630.809258
0
LINE
8
0
10
257.978398
20
630.809258
11
259.442500
21
629.525000
0
LINE
8
0
10
259.442500
20
629.525000
11
260.538164
21
627.916367
0
LINE
8
0
10
260.538164
20
627.916367
11
261.170938
21
626.090937
0
LINE
8
0
10
261.170938
20
626.090937
11
261.284224
21
625.130542
0
LINE
8
0
10
261.284224
20
625.130542
11
261.246367
21
624.156289
0
LINE
8
0
10
261.246367
20
624.156289
11
261.045562
21
623.181626
0
LINE
8
0
10
261.045562
20
623.181626
11
260.670000
21
622.220000
0
LINE
8
0
10
260.670000
20
622.220000
11
259.833691
21
620.667949
0
LINE
8
0
10
259.833691
20
620.667949
11
258.616406
21
619.444844
0
LINE
8
0
10
258.616406
20
619.444844
11
257.121855
21
618.570254
0
LINE
8
0
10
257.121855
20
618.570254
11
255.453750
21
618.063750
0
LINE
8
0
10
255.453750
20
618.063750
11
253.715801
21
617.944902
0
LINE
8
0
10
253.715801
20
617.944902
11
252.011719
21
618.233281
0
LINE
8
0
10
252.011719
20
618.233281
11
250.445215
21
618.948457
0
LINE
8
0
10
250.445215
20
618.948457
11
249.120000
21
620.110000
0
LINE
8
0
10
249.120000
20
620.110000
11
248.000371
21
621.550020
0
LINE
8
0
10
248.000371
20
621.550020
11
247.368594
21
623.220781
0
LINE
8
0
10
247.368594
20
623.220781
11
247.197832
21
625.007090
0
LINE
8
0
10
247.197832
20
625.007090
11
247.461250
21
626.793750
0
LINE
8
0
10
247.461250
20
626.793750
11
248.132012
21
628.465566
0
LINE
8
0
10
248.132012
20
628.465566
11
249.183281
21
629.907344
0
LINE
8
0
10
249.183281
20
629.907344
11
250.588223
21
631.003887
0
LINE
8
0
10
250.588223
20
631.003887
11
251.414934
21
631.386697
0
LINE
8
0
10
251.414934
20
631.386697
11
252.320000
21
631.640000
0
LINE
8
0
10
722.369000
20
631.610000
11
724.003785
21
631.935938
0
LINE
8
0
10
724.003785
20
631.935938
11
725.648531
21
631.853125
0
LINE
8
0
10
725.648531
20
631.853125
11
727.228824
21
631.401875
0
LINE
8
0
10
727.228824
20
631.401875
11
728.670250
21
630.622500
0
LINE
8
0
10
728.670250
20
630.622500
11
729.898395
21
629.555312
0
LINE
8
0
10
729.898395
20
629.555312
11
730.838844
21
628.240625
0
LINE
8
0
10
730.838844
20
628.240625
11
731.417184
21
626.718750
0
LINE
8
0
10
731.417184
20
626.718750
11
731.559000
21
625.030000
0
LINE
8
0
10
731.559000
20
625.030000
11
731.565946
21
624.006658
0
LINE
8
0
10
731.565946
20
624.006658
11
731.402691
21
623.034512
0
LINE
8
0
10
731.402691
20
623.034512
11
731.085599
21
622.121633
0
LINE
8
0
10
731.085599
20
622.121633
11
730.631031
21
621.276094
0
LINE
8
0
10
730.631031
20
621.276094
11
729.374918
21
619.819316
0
LINE
8
0
10
729.374918
20
619.819316
11
727.765250
21
618.728750
0
LINE
8
0
10
727.765250
20
618.728750
11
725.932926
21
618.068965
0
LINE
8
0
10
725.932926
20
618.068965
11
724.008844
21
617.904531
0
LINE
8
0
10
724.008844
20
617.904531
11
723.053299
21
618.028250
0
LINE
8
0
10
723.053299
20
618.028250
11
722.123902
21
618.300020
0
LINE
8
0
10
722.123902
20
618.300020
11
721.237015
21
618.727913
0
LINE
8
0
10
721.237015
20
618.727913
11
720.409000
21
619.320000
0
LINE
8
0
10
720.409000
20
619.320000
11
719.621539
21
619.929556
0
LINE
8
0
10
719.621539
20
619.929556
11
718.970719
21
620.637227
0
LINE
8
0
10
718.970719
20
620.637227
11
718.065875
21
622.280937
0
LINE
8
0
10
718.065875
20
622.280937
11
717.668219
21
624.119180
0
LINE
8
0
10
717.668219
20
624.119180
11
717.751500
21
626.020000
0
LINE
8
0
10
717.751500
20
626.020000
11
718.289469
21
627.851445
0
LINE
8
0
10
718.289469
20
627.851445
11
719.255875
21
629.481562
0
LINE
8
0
10
719.255875
20
629.481562
11
720.624469
21
630.778398
0
LINE
8
0
10
720.624469
20
630.778398
11
721.451383
21
631.260601
0
LINE
8
0
10
721.451383
20
631.260601
11
722.369000
21
631.610000
0
LINE
8
0
10
950.629000
20
621.440000
11
951.439000
21
623.280000
0
LINE
8
0
10
951.439000
20
623.280000
11
951.436012
21
621.463008
0
LINE
8
0
10
951.436012
20
621.463008
11
951.206969
21
619.690313
0
LINE
8
0
10
951.206969
20
619.690313
11
950.793004
21
617.955586
0
LINE
8
0
10
950.793004
20
617.955586
11
950.235250
21
616.252500
0
LINE
8
0
10
950.235250
20
616.252500
11
948.852906
21
612.915938
0
LINE
8
0
10
948.852906
20
612.915938
11
947.389000
21
609.630000
0
LINE
8
0
10
947.389000
20
609.630000
11
944.347945
21
603.474590
0
LINE
8
0
10
944.347945
20
603.474590
11
941.053063
21
597.453594
0
LINE
8
0
10
941.053063
20
597.453594
11
937.516773
21
591.571113
0
LINE
8
0
10
937.516773
20
591.571113
11
933.751500
21
585.831250
0
LINE
8
0
10
933.751500
20
585.831250
11
929.769664
21
580.238105
0
LINE
8
0
10
929.769664
20
580.238105
11
925.583687
21
574.795781
0
LINE
8
0
10
925.583687
20
574.795781
11
921.205992
21
569.508379
0
LINE
8
0
10
921.205992
20
569.508379
11
916.649000
21
564.380000
0
LINE
8
0
10
916.649000
20
564.380000
11
909.557047
21
556.878496
0
LINE
8
0
10
909.557047
20
556.878496
11
902.192750
21
549.652969
0
LINE
8
0
10
902.192750
20
549.652969
11
894.577203
21
542.694395
0
LINE
8
0
10
894.577203
20
542.694395
11
886.731500
21
535.993750
0
LINE
8
0
10
886.731500
20
535.993750
11
878.676734
21
529.542012
0
LINE
8
0
10
878.676734
20
529.542012
11
870.434000
21
523.330156
0
LINE
8
0
10
870.434000
20
523.330156
11
862.024391
21
517.349160
0
LINE
8
0
10
862.024391
20
517.349160
11
853.469000
21
511.590000
0
LINE
8
0
10
853.469000
20
511.590000
11
843.264176
21
504.926445
0
LINE
8
0
10
843.264176
20
504.926445
11
832.887906
21
498.543437
0
LINE
8
0
10
832.887906
20
498.543437
11
822.356246
21
492.422461
0
LINE
8
0
10
822.356246
20
492.422461
11
811.685250
21
486.545000
0
LINE
8
0
10
811.685250
20
486.545000
11
800.890973
21
480.892539
0
LINE
8
0
10
800.890973
20
480.892539
11
789.989469
21
475.446562
0
LINE
8
0
10
789.989469
20
475.446562
11
778.996793
21
470.188555
0
LINE
8
0
10
778.996793
20
470.188555
11
767.929000
21
465.100000
0
LINE
8
0
10
767.929000
20
465.100000
11
753.681480
21
458.979375
0
LINE
8
0
10
753.681480
20
458.979375
11
739.315719
21
453.141875
0
LINE
8
0
10
739.315719
20
453.141875
11
724.838160
21
447.586563
0
LINE
8
0
10
724.838160
20
447.586563
11
710.255250
21
442.312500
0
LINE
8
0
10
710.255250
20
442.312500
11
695.573434
21
437.318750
0
LINE
8
0
10
695.573434
20
437.318750
11
680.799156
21
432.604375
0
LINE
8
0
10
680.799156
20
432.604375
11
665.938863
21
428.168437
0
LINE
8
0
10
665.938863
20
428.168437
11
650.999000
21
424.010000
0
LINE
8
0
10
650.999000
20
424.010000
11
645.627750
21
422.613750
0
LINE
8
0
10
645.627750
20
422.613750
11
640.369000
21
420.880000
0
LINE
8
0
10
640.369000
20
420.880000
11
635.964313
21
420.176719
0
LINE
8
0
10
635.964313
20
420.176719
11
631.629000
21
419.153750
0
LINE
8
0
10
631.629000
20
419.153750
11
627.316188
21
418.023906
0
LINE
8
0
10
627.316188
20
418.023906
11
622.979000
21
417.000000
0
LINE
8
0
10
622.979000
20
417.000000
11
606.190602
21
413.371074
0
LINE
8
0
10
606.190602
20
413.371074
11
589.325563
21
410.065469
0
LINE
8
0
10
589.325563
20
410.065469
11
572.391617
21
407.114941
0
LINE
8
0
10
572.391617
20
407.114941
11
555.396500
21
404.551250
0
LINE
8
0
10
555.396500
20
404.551250
11
538.347945
21
402.406152
0
LINE
8
0
10
538.347945
20
402.406152
11
521.253688
21
400.711406
0
LINE
8
0
10
521.253688
20
400.711406
11
504.121461
21
399.498770
0
LINE
8
0
10
504.121461
20
399.498770
11
486.959000
21
398.800000
0
LINE
8
0
10
486.959000
20
398.800000
11
485.060660
21
399.071934
0
LINE
8
0
10
485.060660
20
399.071934
11
483.161031
21
399.121094
0
LINE
8
0
10
483.161031
20
399.121094
11
479.360250
21
398.856250
0
LINE
8
0
10
479.360250
20
398.856250
11
475.561344
21
398.615781
0
LINE
8
0
10
475.561344
20
398.615781
11
473.664059
21
398.695410
0
LINE
8
0
10
473.664059
20
398.695410
11
471.769000
21
399.010000
0
LINE
8
0
10
471.769000
20
399.010000
11
473.016188
21
399.656406
0
LINE
8
0
10
473.016188
20
399.656406
11
474.179000
21
400.446250
0
LINE
8
0
10
474.179000
20
400.446250
11
474.630914
21
400.932754
0
LINE
8
0
10
474.630914
20
400.932754
11
474.944313
21
401.500469
0
LINE
8
0
10
474.944313
20
401.500469
11
475.080055
21
402.164512
0
LINE
8
0
10
475.080055
20
402.164512
11
474.999000
21
402.940000
0
LINE
8
0
10
474.999000
20
402.940000
11
474.939000
21
457.960000
0
LINE
8
0
10
474.939000
20
457.960000
11
478.247008
21
457.604165
0
LINE
8
0
10
478.247008
20
457.604165
11
481.542125
21
457.565820
0
LINE
8
0
10
481.542125
20
457.565820
11
484.809117
21
457.830581
0
LINE
8
0
10
484.809117
20
457.830581
11
488.032750
21
458.384063
0
LINE
8
0
10
488.032750
20
458.384063
11
491.197789
21
459.211880
0
LINE
8
0
10
491.197789
20
459.211880
11
494.289000
21
460.299648
0
LINE
8
0
10
494.289000
20
460.299648
11
497.291148
21
461.632983
0
LINE
8
0
10
497.291148
20
461.632983
11
500.189000
21
463.197500
0
LINE
8
0
10
500.189000
20
463.197500
11
502.967320
21
464.978813
0
LINE
8
0
10
502.967320
20
464.978813
11
505.610875
21
466.962539
0
LINE
8
0
10
505.610875
20
466.962539
11
508.104430
21
469.134292
0
LINE
8
0
10
508.104430
20
469.134292
11
510.432750
21
471.479687
0
LINE
8
0
10
510.432750
20
471.479687
11
512.580602
21
473.984341
0
LINE
8
0
10
512.580602
20
473.984341
11
514.532750
21
476.633867
0
LINE
8
0
10
514.532750
20
476.633867
11
516.273961
21
479.413882
0
LINE
8
0
10
516.273961
20
479.413882
11
517.789000
21
482.310000
0
LINE
8
0
10
517.789000
20
482.310000
11
518.676773
21
484.316113
0
LINE
8
0
10
518.676773
20
484.316113
11
519.322437
21
486.433906
0
LINE
8
0
10
519.322437
20
486.433906
11
519.703258
21
488.617559
0
LINE
8
0
10
519.703258
20
488.617559
11
519.796500
21
490.821250
0
LINE
8
0
10
519.796500
20
490.821250
11
519.579430
21
492.999160
0
LINE
8
0
10
519.579430
20
492.999160
11
519.029313
21
495.105469
0
LINE
8
0
10
519.029313
20
495.105469
11
518.123414
21
497.094355
0
LINE
8
0
10
518.123414
20
497.094355
11
516.839000
21
498.920000
0
LINE
8
0
10
516.839000
20
498.920000
11
514.498453
21
501.462695
0
LINE
8
0
10
514.498453
20
501.462695
11
511.873375
21
503.657813
0
LINE
8
0
10
511.873375
20
503.657813
11
509.011109
21
505.534648
0
LINE
8
0
10
509.011109
20
505.534648
11
505.959000
21
507.122500
0
LINE
8
0
10
505.959000
20
507.122500
11
502.764391
21
508.450664
0
LINE
8
0
10
502.764391
20
508.450664
11
499.474625
21
509.548438
0
LINE
8
0
10
499.474625
20
509.548438
11
496.137047
21
510.445117
0
LINE
8
0
10
496.137047
20
510.445117
11
492.799000
21
511.170000
0
LINE
8
0
10
492.799000
20
511.170000
11
487.609469
21
511.965781
0
LINE
8
0
10
487.609469
20
511.965781
11
482.377750
21
512.353750
0
LINE
8
0
10
482.377750
20
512.353750
11
477.129156
21
512.372344
0
LINE
8
0
10
477.129156
20
512.372344
11
471.889000
21
512.060000
0
LINE
8
0
10
471.889000
20
512.060000
11
473.884000
21
513.136250
0
LINE
8
0
10
473.884000
20
513.136250
11
474.653688
21
513.875469
0
LINE
8
0
10
474.653688
20
513.875469
11
474.856070
21
514.367949
0
LINE
8
0
10
474.856070
20
514.367949
11
474.889000
21
514.970000
0
LINE
8
0
10
474.889000
20
514.970000
11
475.046500
21
519.798750
0
LINE
8
0
10
475.046500
20
519.798750
11
475.039000
21
524.620000
0
LINE
8
0
10
475.039000
20
524.620000
11
489.316729
21
524.688335
0
LINE
8
0
10
489.316729
20
524.688335
11
503.577555
21
525.068242
0
LINE
8
0
10
503.577555
20
525.068242
11
517.819806
21
525.746450
0
LINE
8
0
10
517.819806
20
525.746450
11
532.041812
21
526.709687
0
LINE
8
0
10
532.041812
20
526.709687
11
546.241905
21
527.944683
0
LINE
8
0
10
546.241905
20
527.944683
11
560.418414
21
529.438164
0
LINE
8
0
10
560.418414
20
529.438164
11
574.569669
21
531.176860
0
LINE
8
0
10
574.569669
20
531.176860
11
588.694000
21
533.147500
0
LINE
8
0
10
588.694000
20
533.147500
11
602.789737
21
535.336812
0
LINE
8
0
10
602.789737
20
535.336812
11
616.855211
21
537.731523
0
LINE
8
0
10
616.855211
20
537.731523
11
630.888751
21
540.318364
0
LINE
8
0
10
630.888751
20
540.318364
11
644.888687
21
543.084063
0
LINE
8
0
10
644.888687
20
543.084063
11
658.853351
21
546.015347
0
LINE
8
0
10
658.853351
20
546.015347
11
672.781070
21
549.098945
0
LINE
8
0
10
672.781070
20
549.098945
11
700.519000
21
555.670000
0
LINE
8
0
10
700.519000
20
555.670000
11
717.580738
21
559.981895
0
LINE
8
0
10
717.580738
20
559.981895
11
734.592906
21
564.477656
0
LINE
8
0
10
734.592906
20
564.477656
11
768.495250
21
573.916250
0
LINE
8
0
10
768.495250
20
573.916250
11
802.279469
21
583.776719
0
LINE
8
0
10
802.279469
20
583.776719
11
835.999000
21
593.850000
0
LINE
8
0
10
835.999000
20
593.850000
11
861.821500
21
601.533281
0
LINE
8
0
10
861.821500
20
601.533281
11
887.681500
21
609.138750
0
LINE
8
0
10
887.681500
20
609.138750
11
900.671266
21
612.711035
0
LINE
8
0
10
900.671266
20
612.711035
11
913.725250
21
616.022344
0
LINE
8
0
10
913.725250
20
616.022344
11
926.861734
21
618.992168
0
LINE
8
0
10
926.861734
20
618.992168
11
940.099000
21
621.540000
0
LINE
8
0
10
940.099000
20
621.540000
11
941.919000
21
619.830000
0
LINE
8
0
10
941.919000
20
619.830000
11
950.629000
21
621.440000
0
LINE
8
0
10
11.170000
20
621.750000
11
21.165311
21
619.887969
0
LINE
8
0
10
21.165311
20
619.887969
11
31.109987
21
617.788750
0
LINE
8
0
10
31.109987
20
617.788750
11
41.002145
21
615.462656
0
LINE
8
0
10
41.002145
20
615.462656
11
50.839900
21
612.920000
0
LINE
8
0
10
50.839900
20
612.920000
11
70.478041
21
607.418906
0
LINE
8
0
10
70.478041
20
607.418906
11
90.052450
21
601.693750
0
LINE
8
0
10
90.052450
20
601.693750
11
129.130000
21
589.980000
0
LINE
8
0
10
129.130000
20
589.980000
11
153.734492
21
582.658613
0
LINE
8
0
10
153.734492
20
582.658613
11
178.386562
21
575.471406
0
LINE
8
0
10
178.386562
20
575.471406
11
203.099102
21
568.488809
0
LINE
8
0
10
203.099102
20
568.488809
11
227.885000
21
561.781250
0
LINE
8
0
10
227.885000
20
561.781250
11
252.757148
21
555.419160
0
LINE
8
0
10
252.757148
20
555.419160
11
277.728438
21
549.472969
0
LINE
8
0
10
277.728438
20
549.472969
11
302.811758
21
544.013105
0
LINE
8
0
10
302.811758
20
544.013105
11
315.399458
21
541.487556
0
LINE
8
0
10
315.399458
20
541.487556
11
328.020000
21
539.110000
0
LINE
8
0
10
328.020000
20
539.110000
11
346.229703
21
535.905039
0
LINE
8
0
10
346.229703
20
535.905039
11
364.501562
21
533.032187
0
LINE
8
0
10
364.501562
20
533.032187
11
382.828453
21
530.524492
0
LINE
8
0
10
382.828453
20
530.524492
11
401.203250
21
528.415000
0
LINE
8
0
10
401.203250
20
528.415000
11
419.618828
21
526.736758
0
LINE
8
0
10
419.618828
20
526.736758
11
438.068062
21
525.522812
0
LINE
8
0
10
438.068062
20
525.522812
11
456.543828
21
524.806211
0
LINE
8
0
10
456.543828
20
524.806211
11
475.039000
21
524.620000
0
LINE
8
0
10
475.039000
20
524.620000
11
475.046500
21
519.798750
0
LINE
8
0
10
475.046500
20
519.798750
11
474.889000
21
514.970000
0
LINE
8
0
10
474.889000
20
514.970000
11
474.856070
21
514.367949
0
LINE
8
0
10
474.856070
20
514.367949
11
474.653688
21
513.875469
0
LINE
8
0
10
474.653688
20
513.875469
11
473.884000
21
513.136250
0
LINE
8
0
10
473.884000
20
513.136250
11
471.889000
21
512.060000
0
LINE
8
0
10
471.889000
20
512.060000
11
467.896773
21
511.464570
0
LINE
8
0
10
467.896773
20
511.464570
11
463.885563
21
510.682813
0
LINE
8
0
10
463.885563
20
510.682813
11
459.912320
21
509.669023
0
LINE
8
0
10
459.912320
20
509.669023
11
456.034000
21
508.377500
0
LINE
8
0
10
456.034000
20
508.377500
11
452.307555
21
506.762539
0
LINE
8
0
10
452.307555
20
506.762539
11
448.789938
21
504.778437
0
LINE
8
0
10
448.789938
20
504.778437
11
445.538102
21
502.379492
0
LINE
8
0
10
445.538102
20
502.379492
11
444.029649
21
501.010171
0
LINE
8
0
10
444.029649
20
501.010171
11
442.609000
21
499.520000
0
LINE
8
0
10
442.609000
20
499.520000
11
441.129527
21
497.581660
0
LINE
8
0
10
441.129527
20
497.581660
11
440.093844
21
495.448906
0
LINE
8
0
10
440.093844
20
495.448906
11
439.476051
21
493.177637
0
LINE
8
0
10
439.476051
20
493.177637
11
439.250250
21
490.823750
0
LINE
8
0
10
439.250250
20
490.823750
11
439.390543
21
488.443145
0
LINE
8
0
10
439.390543
20
488.443145
11
439.871031
21
486.091719
0
LINE
8
0
10
439.871031
20
486.091719
11
440.665816
21
483.825371
0
LINE
8
0
10
440.665816
20
483.825371
11
441.749000
21
481.700000
0
LINE
8
0
10
441.749000
20
481.700000
11
444.583199
21
477.275215
0
LINE
8
0
10
444.583199
20
477.275215
11
447.892594
21
473.185469
0
LINE
8
0
10
447.892594
20
473.185469
11
451.627379
21
469.471426
0
LINE
8
0
10
451.627379
20
469.471426
11
455.737750
21
466.173750
0
LINE
8
0
10
455.737750
20
466.173750
11
460.173902
21
463.333105
0
LINE
8
0
10
460.173902
20
463.333105
11
464.886031
21
460.990156
0
LINE
8
0
10
464.886031
20
460.990156
11
469.824332
21
459.185566
0
LINE
8
0
10
469.824332
20
459.185566
11
472.362733
21
458.497864
0
LINE
8
0
10
472.362733
20
458.497864
11
474.939000
21
457.960000
0
LINE
8
0
10
474.939000
20
457.960000
11
474.999000
21
402.940000
0
LINE
8
0
10
474.999000
20
402.940000
11
475.080055
21
402.164512
0
LINE
8
0
10
475.080055
20
402.164512
11
474.944313
21
401.500469
0
LINE
8
0
10
474.944313
20
401.500469
11
474.630914
21
400.932754
0
LINE
8
0
10
474.630914
20
400.932754
11
474.179000
21
400.446250
0
LINE
8
0
10
474.179000
20
400.446250
11
473.016188
21
399.656406
0
LINE
8
0
10
473.016188
20
399.656406
11
471.769000
21
399.010000
0
LINE
8
0
10
471.769000
20
399.010000
11
462.592637
21
399.359133
0
LINE
8
0
10
462.592637
20
399.359133
11
453.427734
21
399.866191
0
LINE
8
0
10
453.427734
20
399.866191
11
435.134937
21
401.329531
0
LINE
8
0
10
435.134937
20
401.329531
11
416.895859
21
403.350918
0
LINE
8
0
10
416.895859
20
403.350918
11
398.715750
21
405.881250
0
LINE
8
0
10
398.715750
20
405.881250
11
380.599859
21
408.871426
0
LINE
8
0
10
380.599859
20
408.871426
11
362.553437
21
412.272344
0
LINE
8
0
10
362.553437
20
412.272344
11
344.581734
21
416.034902
0
LINE
8
0
10
344.581734
20
416.034902
11
326.690000
21
420.110000
0
LINE
8
0
10
326.690000
20
420.110000
11
304.627891
21
425.950332
0
LINE
8
0
10
304.627891
20
425.950332
11
293.652178
21
429.085984
0
LINE
8
0
10
293.652178
20
429.085984
11
282.718125
21
432.368281
0
LINE
8
0
10
282.718125
20
432.368281
11
271.829307
21
435.799465
0
LINE
8
0
10
271.829307
20
435.799465
11
260.989297
21
439.381777
0
LINE
8
0
10
260.989297
20
439.381777
11
250.201670
21
443.117458
0
LINE
8
0
10
250.201670
20
443.117458
11
239.470000
21
447.008750
0
LINE
8
0
10
239.470000
20
447.008750
11
228.797861
21
451.057893
0
LINE
8
0
10
228.797861
20
451.057893
11
218.188828
21
455.267129
0
LINE
8
0
10
218.188828
20
455.267129
11
207.646475
21
459.638699
0
LINE
8
0
10
207.646475
20
459.638699
11
197.174375
21
464.174844
0
LINE
8
0
10
197.174375
20
464.174844
11
186.776104
21
468.877805
0
LINE
8
0
10
186.776104
20
468.877805
11
176.455234
21
473.749824
0
LINE
8
0
10
176.455234
20
473.749824
11
166.215342
21
478.793142
0
LINE
8
0
10
166.215342
20
478.793142
11
156.060000
21
484.010000
0
LINE
8
0
10
156.060000
20
484.010000
11
143.700504
21
490.725645
0
LINE
8
0
10
143.700504
20
490.725645
11
131.492172
21
497.733906
0
LINE
8
0
10
131.492172
20
497.733906
11
119.468992
21
505.059277
0
LINE
8
0
10
119.468992
20
505.059277
11
107.664950
21
512.726250
0
LINE
8
0
10
107.664950
20
512.726250
11
96.114033
21
520.759316
0
LINE
8
0
10
96.114033
20
520.759316
11
84.850228
21
529.182969
0
LINE
8
0
10
84.850228
20
529.182969
11
73.907521
21
538.021699
0
LINE
8
0
10
73.907521
20
538.021699
11
63.319900
21
547.300000
0
LINE
8
0
10
63.319900
20
547.300000
11
56.779143
21
553.521348
0
LINE
8
0
10
56.779143
20
553.521348
11
50.440072
21
559.964531
0
LINE
8
0
10
50.440072
20
559.964531
11
44.337490
21
566.635762
0
LINE
8
0
10
44.337490
20
566.635762
11
38.506200
21
573.541250
0
LINE
8
0
10
38.506200
20
573.541250
11
32.981004
21
580.687207
0
LINE
8
0
10
32.981004
20
580.687207
11
27.796703
21
588.079844
0
LINE
8
0
10
27.796703
20
588.079844
11
22.988101
21
595.725371
0
LINE
8
0
10
22.988101
20
595.725371
11
18.590000
21
603.630000
0
LINE
8
0
10
18.590000
20
603.630000
11
16.453281
21
608.040469
0
LINE
8
0
10
16.453281
20
608.040469
11
14.403750
21
612.498750
0
LINE
8
0
10
14.403750
20
612.498750
11
12.592344
21
617.052656
0
LINE
8
0
10
12.592344
20
617.052656
11
11.170000
21
621.750000
0
LINE
8
0
10
442.609000
20
499.520000
11
444.029649
21
501.010171
0
LINE
8
0
10
444.029649
20
501.010171
11
445.538102
21
502.379492
0
LINE
8
0
10
445.538102
20
502.379492
11
448.789938
21
504.778437
0
LINE
8
0
10
448.789938
20
504.778437
11
452.307555
21
506.762539
0
LINE
8
0
10
452.307555
20
506.762539
11
456.034000
21
508.377500
0
LINE
8
0
10
456.034000
20
508.377500
11
459.912320
21
509.669023
0
LINE
8
0
10
459.912320
20
509.669023
11
463.885563
21
510.682813
0
LINE
8
0
10
463.885563
20
510.682813
11
467.896773
21
511.464570
0
LINE
8
0
10
467.896773
20
511.464570
11
471.889000
21
512.060000
0
LINE
8
0
10
471.889000
20
512.060000
11
477.129156
21
512.372344
0
LINE
8
0
10
477.129156
20
512.372344
11
482.377750
21
512.353750
0
LINE
8
0
10
482.377750
20
512.353750
11
487.609469
21
511.965781
0
LINE
8
0
10
487.609469
20
511.965781
11
492.799000
21
511.170000
0
LINE
8
0
10
492.799000
20
511.170000
11
496.137047
21
510.445117
0
LINE
8
0
10
496.137047
20
510.445117
11
499.474625
21
509.548438
0
LINE
8
0
10
499.474625
20
509.548438
11
502.764391
21
508.450664
0
LINE
8
0
10
502.764391
20
508.450664
11
505.959000
21
507.122500
0
LINE
8
0
10
505.959000
20
507.122500
11
509.011109
21
505.534648
0
LINE
8
0
10
509.011109
20
505.534648
11
511.873375
21
503.657813
0
LINE
8
0
10
511.873375
20
503.657813
11
514.498453
21
501.462695
0
LINE
8
0
10
514.498453
20
501.462695
11
516.839000
21
498.920000
0
LINE
8
0
10
516.839000
20
498.920000
11
518.123414
21
497.094355
0
LINE
8
0
10
518.123414
20
497.094355
11
519.029313
21
495.105469
0
LINE
8
0
10
519.029313
20
495.105469
11
519.579430
21
492.999160
0
LINE
8
0
10
519.579430
20
492.999160
11
519.796500
21
490.821250
0
LINE
8
0
10
519.796500
20
490.821250
11
519.703258
21
488.617559
0
LINE
8
0
10
519.703258
20
488.617559
11
519.322437
21
486.433906
0
LINE
8
0
10
519.322437
20
486.433906
11
518.676773
21
484.316113
0
LINE
8
0
10
518.676773
20
484.316113
11
517.789000
21
482.310000
0
LINE
8
0
10
517.789000
20
482.310000
11
516.273961
21
479.413882
0
LINE
8
0
10
516.273961
20
479.413882
11
514.532750
21
476.633867
0
LINE
8
0
10
514.532750
20
476.633867
11
512.580602
21
473.984341
0
LINE
8
0
10
512.580602
20
473.984341
11
510.432750
21
471.479687
0
LINE
8
0
10
510.432750
20
471.479687
11
508.104430
21
469.134292
0
LINE
8
0
10
508.104430
20
469.134292
11
505.610875
21
466.962539
0
LINE
8
0
10
505.610875
20
466.962539
11
502.967320
21
464.978813
0
LINE
8
0
10
502.967320
20
464.978813
11
500.189000
21
463.197500
0
LINE
8
0
10
500.189000
20
463.197500
11
497.291148
21
461.632983
0
LINE
8
0
10
497.291148
20
461.632983
11
494.289000
21
460.299648
0
LINE
8
0
10
494.289000
20
460.299648
11
491.197789
21
459.211880
0
LINE
8
0
10
491.197789
20
459.211880
11
488.032750
21
458.384063
0
LINE
8
0
10
488.032750
20
458.384063
11
484.809117
21
457.830581
0
LINE
8
0
10
484.809117
20
457.830581
11
481.542125
21
457.565820
0
LINE
8
0
10
481.542125
20
457.565820
11
478.247008
21
457.604165
0
LINE
8
0
10
478.247008
20
457.604165
11
474.939000
21
457.960000
0
LINE
8
0
10
474.939000
20
457.960000
11
472.362733
21
458.497864
0
LINE
8
0
10
472.362733
20
458.497864
11
469.824332
21
459.185566
0
LINE
8
0
10
469.824332
20
459.185566
11
464.886031
21
460.990156
0
LINE
8
0
10
464.886031
20
460.990156
11
460.173902
21
463.333105
0
LINE
8
0
10
460.173902
20
463.333105
11
455.737750
21
466.173750
0
LINE
8
0
10
455.737750
20
466.173750
11
451.627379
21
469.471426
0
LINE
8
0
10
451.627379
20
469.471426
11
447.892594
21
473.185469
0
LINE
8
0
10
447.892594
20
473.185469
11
444.583199
21
477.275215
0
LINE
8
0
10
444.583199
20
477.275215
11
441.749000
21
481.700000
0
LINE
8
0
10
441.749000
20
481.700000
11
440.665816
21
483.825371
0
LINE
8
0
10
440.665816
20
483.825371
11
439.871031
21
486.091719
0
LINE
8
0
10
439.871031
20
486.091719
11
439.390543
21
488.443145
0
LINE
8
0
10
439.390543
20
488.443145
11
439.250250
21
490.823750
0
LINE
8
0
10
439.250250
20
490.823750
11
439.476051
21
493.177637
0
LINE
8
0
10
439.476051
20
493.177637
11
440.093844
21
495.448906
0
LINE
8
0
10
440.093844
20
495.448906
11
441.129527
21
497.581660
0
LINE
8
0
10
441.129527
20
497.581660
11
442.609000
21
499.520000
0
LINE
8
0
10
622.979000
20
417.000000
11
627.316188
21
418.023906
0
LINE
8
0
10
627.316188
20
418.023906
11
631.629000
21
419.153750
0
LINE
8
0
10
631.629000
20
419.153750
11
635.964313
21
420.176719
0
LINE
8
0
10
635.964313
20
420.176719
11
640.369000
21
420.880000
0
LINE
8
0
10
640.369000
20
420.880000
11
648.119000
21
399.490000
0
LINE
8
0
10
648.119000
20
399.490000
11
651.159000
21
398.410000
0
LINE
8
0
10
651.159000
20
398.410000
11
648.729000
21
398.080000
0
LINE
8
0
10
648.729000
20
398.080000
11
656.456187
21
373.260781
0
LINE
8
0
10
656.456187
20
373.260781
11
660.076383
21
360.764277
0
LINE
8
0
10
660.076383
20
360.764277
11
663.431500
21
348.198750
0
LINE
8
0
10
663.431500
20
348.198750
11
666.444430
21
335.555879
0
LINE
8
0
10
666.444430
20
335.555879
11
669.038063
21
322.827344
0
LINE
8
0
10
669.038063
20
322.827344
11
671.135289
21
310.004824
0
LINE
8
0
10
671.135289
20
310.004824
11
671.973653
21
303.555720
0
LINE
8
0
10
671.973653
20
303.555720
11
672.659000
21
297.080000
0
LINE
8
0
10
672.659000
20
297.080000
11
673.177379
21
290.018418
0
LINE
8
0
10
673.177379
20
290.018418
11
673.264156
21
282.932344
0
LINE
8
0
10
673.264156
20
282.932344
11
672.910543
21
275.853535
0
LINE
8
0
10
672.910543
20
275.853535
11
672.107750
21
268.813750
0
LINE
8
0
10
672.107750
20
268.813750
11
670.846988
21
261.844746
0
LINE
8
0
10
670.846988
20
261.844746
11
669.119469
21
254.978281
0
LINE
8
0
10
669.119469
20
254.978281
11
666.916402
21
248.246113
0
LINE
8
0
10
666.916402
20
248.246113
11
664.229000
21
241.680000
0
LINE
8
0
10
664.229000
20
241.680000
11
661.993900
21
237.200559
0
LINE
8
0
10
661.993900
20
237.200559
11
659.544449
21
232.856191
0
LINE
8
0
10
659.544449
20
232.856191
11
656.891297
21
228.647205
0
LINE
8
0
10
656.891297
20
228.647205
11
654.045094
21
224.573906
0
LINE
8
0
10
654.045094
20
224.573906
11
651.016488
21
220.636604
0
LINE
8
0
10
651.016488
20
220.636604
11
647.816129
21
216.835605
0
LINE
8
0
10
647.816129
20
216.835605
11
644.454667
21
213.171218
0
LINE
8
0
10
644.454667
20
213.171218
11
640.942750
21
209.643750
0
LINE
8
0
10
640.942750
20
209.643750
11
637.291029
21
206.253508
0
LINE
8
0
10
637.291029
20
206.253508
11
633.510152
21
203.000801
0
LINE
8
0
10
633.510152
20
203.000801
11
629.610770
21
199.885935
0
LINE
8
0
10
629.610770
20
199.885935
11
625.603531
21
196.909219
0
LINE
8
0
10
625.603531
20
196.909219
11
621.499085
21
194.070959
0
LINE
8
0
10
621.499085
20
194.070959
11
617.308082
21
191.371465
0
LINE
8
0
10
617.308082
20
191.371465
11
613.041170
21
188.811042
0
LINE
8
0
10
613.041170
20
188.811042
11
608.709000
21
186.390000
0
LINE
8
0
10
608.709000
20
186.390000
11
606.633844
21
185.378281
0
LINE
8
0
10
606.633844
20
185.378281
11
604.617750
21
184.251250
0
LINE
8
0
10
604.617750
20
184.251250
11
602.719781
21
182.946094
0
LINE
8
0
10
602.719781
20
182.946094
11
600.999000
21
181.400000
0
LINE
8
0
10
600.999000
20
181.400000
11
600.019000
21
181.860000
0
LINE
8
0
10
600.019000
20
181.860000
11
591.095250
21
177.858750
0
LINE
8
0
10
591.095250
20
177.858750
11
582.059000
21
174.120000
0
LINE
8
0
10
582.059000
20
174.120000
11
582.484000
21
165.825781
0
LINE
8
0
10
582.484000
20
165.825781
11
583.239000
21
157.551250
0
LINE
8
0
10
583.239000
20
157.551250
11
584.264000
21
149.301094
0
LINE
8
0
10
584.264000
20
149.301094
11
585.499000
21
141.080000
0
LINE
8
0
10
585.499000
20
141.080000
11
586.352018
21
137.471548
0
LINE
8
0
10
586.352018
20
137.471548
11
587.346422
21
133.914571
0
LINE
8
0
10
587.346422
20
133.914571
11
589.709000
21
126.937817
0
LINE
8
0
10
589.709000
20
126.937817
11
592.485953
21
120.115289
0
LINE
8
0
10
592.485953
20
120.115289
11
595.576500
21
113.412537
0
LINE
8
0
10
595.576500
20
113.412537
11
598.879859
21
106.795112
0
LINE
8
0
10
598.879859
20
106.795112
11
602.295250
21
100.228564
0
LINE
8
0
10
602.295250
20
100.228564
11
609.059000
21
87.110300
0
LINE
8
0
10
609.059000
20
87.110300
11
607.268324
21
84.588452
0
LINE
8
0
10
607.268324
20
84.588452
11
605.354059
21
82.162859
0
LINE
8
0
10
605.354059
20
82.162859
11
603.322225
21
79.837197
0
LINE
8
0
10
603.322225
20
79.837197
11
601.178844
21
77.615144
0
LINE
8
0
10
601.178844
20
77.615144
11
596.581520
21
73.496570
0
LINE
8
0
10
596.581520
20
73.496570
11
591.610250
21
69.836550
0
LINE
8
0
10
591.610250
20
69.836550
11
586.313199
21
66.664499
0
LINE
8
0
10
586.313199
20
66.664499
11
580.738531
21
64.009831
0
LINE
8
0
10
580.738531
20
64.009831
11
574.934410
21
61.901960
0
LINE
8
0
10
574.934410
20
61.901960
11
571.961356
21
61.062265
0
LINE
8
0
10
571.961356
20
61.062265
11
568.949000
21
60.370300
0
LINE
8
0
10
568.949000
20
60.370300
11
563.263434
21
59.508327
0
LINE
8
0
10
563.263434
20
59.508327
11
557.523844
21
59.142644
0
LINE
8
0
10
557.523844
20
59.142644
11
551.774645
21
59.273601
0
LINE
8
0
10
551.774645
20
59.273601
11
546.060250
21
59.901550
0
LINE
8
0
10
546.060250
20
59.901550
11
540.425074
21
61.026843
0
LINE
8
0
10
540.425074
20
61.026843
11
534.913531
21
62.649831
0
LINE
8
0
10
534.913531
20
62.649831
11
529.570035
21
64.770866
0
LINE
8
0
10
529.570035
20
64.770866
11
524.439000
21
67.390300
0
LINE
8
0
10
524.439000
20
67.390300
11
520.514000
21
69.726081
0
LINE
8
0
10
520.514000
20
69.726081
11
516.836500
21
72.419050
0
LINE
8
0
10
516.836500
20
72.419050
11
509.759000
21
78.190300
0
LINE
8
0
10
509.759000
20
78.190300
11
507.600074
21
87.848580
0
LINE
8
0
10
507.600074
20
87.848580
11
505.884469
21
97.583408
0
LINE
8
0
10
505.884469
20
97.583408
11
504.587691
21
107.379429
0
LINE
8
0
10
504.587691
20
107.379429
11
503.685250
21
117.221288
0
LINE
8
0
10
503.685250
20
117.221288
11
503.152652
21
127.093629
0
LINE
8
0
10
503.152652
20
127.093629
11
502.965406
21
136.981098
0
LINE
8
0
10
502.965406
20
136.981098
11
503.099020
21
146.868340
0
LINE
8
0
10
503.099020
20
146.868340
11
503.529000
21
156.740000
0
LINE
8
0
10
503.529000
20
156.740000
11
489.461500
21
155.900000
0
LINE
8
0
10
489.461500
20
155.900000
11
482.424000
21
155.595312
0
LINE
8
0
10
482.424000
20
155.595312
11
475.379000
21
155.480000
0
LINE
8
0
10
475.379000
20
155.480000
11
475.676969
21
147.391719
0
LINE
8
0
10
475.676969
20
147.391719
11
475.797750
21
139.298750
0
LINE
8
0
10
475.797750
20
139.298750
11
475.639000
21
123.110000
0
LINE
8
0
10
475.639000
20
123.110000
11
475.344918
21
117.203079
0
LINE
8
0
10
475.344918
20
117.203079
11
474.881969
21
111.310828
0
LINE
8
0
10
474.881969
20
111.310828
11
474.260348
21
105.434763
0
LINE
8
0
10
474.260348
20
105.434763
11
473.490250
21
99.576400
0
LINE
8
0
10
473.490250
20
99.576400
11
471.545406
21
87.918847
0
LINE
8
0
10
471.545406
20
87.918847
11
469.129000
21
76.350300
0
LINE
8
0
10
469.129000
20
76.350300
11
464.441715
21
72.168171
0
LINE
8
0
10
464.441715
20
72.168171
11
459.393844
21
68.404519
0
LINE
8
0
10
459.393844
20
68.404519
11
454.028863
21
65.104695
0
LINE
8
0
10
454.028863
20
65.104695
11
448.390250
21
62.314050
0
LINE
8
0
10
448.390250
20
62.314050
11
445.481917
21
61.123842
0
LINE
8
0
10
445.481917
20
61.123842
11
442.521480
21
60.077937
0
LINE
8
0
10
442.521480
20
60.077937
11
439.514374
21
59.182002
0
LINE
8
0
10
439.514374
20
59.182002
11
436.466031
21
58.441706
0
LINE
8
0
10
436.466031
20
58.441706
11
433.381888
21
57.862719
0
LINE
8
0
10
433.381888
20
57.862719
11
430.267379
21
57.450710
0
LINE
8
0
10
430.267379
20
57.450710
11
427.127938
21
57.211347
0
LINE
8
0
10
427.127938
20
57.211347
11
423.969000
21
57.150300
0
LINE
8
0
10
423.969000
20
57.150300
11
420.128901
21
57.124350
0
LINE
8
0
10
420.128901
20
57.124350
11
416.304102
21
57.352859
0
LINE
8
0
10
416.304102
20
57.352859
11
412.506595
21
57.828486
0
LINE
8
0
10
412.506595
20
57.828486
11
408.748375
21
58.543894
0
LINE
8
0
10
408.748375
20
58.543894
11
405.041437
21
59.491743
0
LINE
8
0
10
405.041437
20
59.491743
11
401.397773
21
60.664695
0
LINE
8
0
10
401.397773
20
60.664695
11
397.829380
21
62.055410
0
LINE
8
0
10
397.829380
20
62.055410
11
394.348250
21
63.656550
0
LINE
8
0
10
394.348250
20
63.656550
11
390.966378
21
65.460776
0
LINE
8
0
10
390.966378
20
65.460776
11
387.695758
21
67.460749
0
LINE
8
0
10
387.695758
20
67.460749
11
384.548384
21
69.649131
0
LINE
8
0
10
384.548384
20
69.649131
11
381.536250
21
72.018581
0
LINE
8
0
10
381.536250
20
72.018581
11
378.671351
21
74.561762
0
LINE
8
0
10
378.671351
20
74.561762
11
375.965680
21
77.271335
0
LINE
8
0
10
375.965680
20
77.271335
11
373.431231
21
80.139961
0
LINE
8
0
10
373.431231
20
80.139961
11
371.080000
21
83.160300
0
LINE
8
0
10
371.080000
20
83.160300
11
370.445000
21
84.490300
0
LINE
8
0
10
370.445000
20
84.490300
11
369.990000
21
85.880300
0
LINE
8
0
10
369.990000
20
85.880300
11
375.816250
21
97.154970
0
LINE
8
0
10
375.816250
20
97.154970
11
381.635000
21
108.451288
0
LINE
8
0
10
381.635000
20
108.451288
11
384.398594
21
114.164684
0
LINE
8
0
10
384.398594
20
114.164684
11
386.988750
21
119.952036
0
LINE
8
0
10
386.988750
20
119.952036
11
389.348281
21
125.836192
0
LINE
8
0
10
389.348281
20
125.836192
11
391.420000
21
131.840000
0
LINE
8
0
10
391.420000
20
131.840000
11
392.525371
21
135.895586
0
LINE
8
0
10
392.525371
20
135.895586
11
393.421094
21
139.994062
0
LINE
8
0
10
393.421094
20
139.994062
11
394.144082
21
144.126758
0
LINE
8
0
10
394.144082
20
144.126758
11
394.731250
21
148.285000
0
LINE
8
0
10
394.731250
20
148.285000
11
395.645781
21
156.643438
0
LINE
8
0
10
395.645781
20
156.643438
11
396.460000
21
165.000000
0
LINE
8
0
10
396.460000
20
165.000000
11
392.857520
21
165.879453
0
LINE
8
0
10
392.857520
20
165.879453
11
389.296406
21
166.892500
0
LINE
8
0
10
389.296406
20
166.892500
11
382.261250
21
169.197500
0
LINE
8
0
10
382.261250
20
169.197500
11
375.280469
21
171.671250
0
LINE
8
0
10
375.280469
20
171.671250
11
368.280000
21
174.070000
0
LINE
8
0
10
368.280000
20
174.070000
11
367.400000
21
171.800000
0
LINE
8
0
10
367.400000
20
171.800000
11
367.150000
21
174.950000
0
LINE
8
0
10
367.150000
20
174.950000
11
361.191719
21
177.662852
0
LINE
8
0
10
361.191719
20
177.662852
11
355.328125
21
180.604687
0
LINE
8
0
10
355.328125
20
180.604687
11
349.587344
21
183.787930
0
LINE
8
0
10
349.587344
20
183.787930
11
343.997500
21
187.225000
0
LINE
8
0
10
343.997500
20
187.225000
11
338.586719
21
190.928320
0
LINE
8
0
10
338.586719
20
190.928320
11
333.383125
21
194.910312
0
LINE
8
0
10
333.383125
20
194.910312
11
328.414844
21
199.183398
0
LINE
8
0
10
328.414844
20
199.183398
11
323.710000
21
203.760000
0
LINE
8
0
10
323.710000
20
203.760000
11
318.610508
21
209.375391
0
LINE
8
0
10
318.610508
20
209.375391
11
313.962188
21
215.366250
0
LINE
8
0
10
313.962188
20
215.366250
11
309.787773
21
221.694609
0
LINE
8
0
10
309.787773
20
221.694609
11
306.110000
21
228.322500
0
LINE
8
0
10
306.110000
20
228.322500
11
302.951602
21
235.211953
0
LINE
8
0
10
302.951602
20
235.211953
11
300.335312
21
242.325000
0
LINE
8
0
10
300.335312
20
242.325000
11
299.237563
21
245.953506
0
LINE
8
0
10
299.237563
20
245.953506
11
298.283867
21
249.623672
0
LINE
8
0
10
298.283867
20
249.623672
11
297.477065
21
253.330752
0
LINE
8
0
10
297.477065
20
253.330752
11
296.820000
21
257.070000
0
LINE
8
0
10
296.820000
20
257.070000
11
296.137852
21
261.138926
0
LINE
8
0
10
296.137852
20
261.138926
11
295.656562
21
265.227656
0
LINE
8
0
10
295.656562
20
265.227656
11
295.350117
21
269.331621
0
LINE
8
0
10
295.350117
20
269.331621
11
295.192500
21
273.446250
0
LINE
8
0
10
295.192500
20
273.446250
11
295.219688
21
281.689219
0
LINE
8
0
10
295.219688
20
281.689219
11
295.530000
21
289.920000
0
LINE
8
0
10
295.530000
20
289.920000
11
297.059336
21
303.547520
0
LINE
8
0
10
297.059336
20
303.547520
11
299.104063
21
317.094531
0
LINE
8
0
10
299.104063
20
317.094531
11
301.606758
21
330.563965
0
LINE
8
0
10
301.606758
20
330.563965
11
304.510000
21
343.958750
0
LINE
8
0
10
304.510000
20
343.958750
11
307.756367
21
357.281816
0
LINE
8
0
10
307.756367
20
357.281816
11
311.288437
21
370.536094
0
LINE
8
0
10
311.288437
20
370.536094
11
315.048789
21
383.724512
0
LINE
8
0
10
315.048789
20
383.724512
11
318.980000
21
396.850000
0
LINE
8
0
10
318.980000
20
396.850000
11
322.756250
21
408.506250
0
LINE
8
0
10
322.756250
20
408.506250
11
326.690000
21
420.110000
0
LINE
8
0
10
326.690000
20
420.110000
11
344.581734
21
416.034902
0
LINE
8
0
10
344.581734
20
416.034902
11
362.553437
21
412.272344
0
LINE
8
0
10
362.553437
20
412.272344
11
380.599859
21
408.871426
0
LINE
8
0
10
380.599859
20
408.871426
11
398.715750
21
405.881250
0
LINE
8
0
10
398.715750
20
405.881250
11
416.895859
21
403.350918
0
LINE
8
0
10
416.895859
20
403.350918
11
435.134937
21
401.329531
0
LINE
8
0
10
435.134937
20
401.329531
11
453.427734
21
399.866191
0
LINE
8
0
10
453.427734
20
399.866191
11
462.592637
21
399.359133
0
LINE
8
0
10
462.592637
20
399.359133
11
471.769000
21
399.010000
0
LINE
8
0
10
471.769000
20
399.010000
11
473.664059
21
398.695410
0
LINE
8
0
10
473.664059
20
398.695410
11
475.561344
21
398.615781
0
LINE
8
0
10
475.561344
20
398.615781
11
479.360250
21
398.856250
0
LINE
8
0
10
479.360250
20
398.856250
11
483.161031
21
399.121094
0
LINE
8
0
10
483.161031
20
399.121094
11
485.060660
21
399.071934
0
LINE
8
0
10
485.060660
20
399.071934
11
486.959000
21
398.800000
0
LINE
8
0
10
486.959000
20
398.800000
11
504.121461
21
399.498770
0
LINE
8
0
10
504.121461
20
399.498770
11
521.253688
21
400.711406
0
LINE
8
0
10
521.253688
20
400.711406
11
538.347945
21
402.406152
0
LINE
8
0
10
538.347945
20
402.406152
11
555.396500
21
404.551250
0
LINE
8
0
10
555.396500
20
404.551250
11
572.391617
21
407.114941
0
LINE
8
0
10
572.391617
20
407.114941
11
589.325563
21
410.065469
0
LINE
8
0
10
589.325563
20
410.065469
11
606.190602
21
413.371074
0
LINE
8
0
10
606.190602
20
413.371074
11
622.979000
21
417.000000
0
LINE
8
0
10
648.729000
20
398.080000
11
651.159000
21
398.410000
0
LINE
8
0
10
651.159000
20
398.410000
11
654.512340
21
396.985840
0
LINE
8
0
10
654.512340
20
396.985840
11
657.716969
21
395.287344
0
LINE
8
0
10
657.716969
20
395.287344
11
660.783551
21
393.350488
0
LINE
8
0
10
660.783551
20
393.350488
11
663.722750
21
391.211250
0
LINE
8
0
10
663.722750
20
391.211250
11
666.545230
21
388.905605
0
LINE
8
0
10
666.545230
20
388.905605
11
669.261656
21
386.469531
0
LINE
8
0
10
669.261656
20
386.469531
11
674.419000
21
381.350000
0
LINE
8
0
10
674.419000
20
381.350000
11
678.973512
21
376.076367
0
LINE
8
0
10
678.973512
20
376.076367
11
683.296344
21
370.615938
0
LINE
8
0
10
683.296344
20
370.615938
11
687.393941
21
364.984414
0
LINE
8
0
10
687.393941
20
364.984414
11
691.272750
21
359.197500
0
LINE
8
0
10
691.272750
20
359.197500
11
694.939215
21
353.270898
0
LINE
8
0
10
694.939215
20
353.270898
11
698.399781
21
347.220312
0
LINE
8
0
10
698.399781
20
347.220312
11
701.660895
21
341.061445
0
LINE
8
0
10
701.660895
20
341.061445
11
704.729000
21
334.810000
0
LINE
8
0
10
704.729000
20
334.810000
11
707.308707
21
329.084902
0
LINE
8
0
10
707.308707
20
329.084902
11
709.744156
21
323.287969
0
LINE
8
0
10
709.744156
20
323.287969
11
712.011090
21
317.420488
0
LINE
8
0
10
712.011090
20
317.420488
11
714.085250
21
311.483750
0
LINE
8
0
10
714.085250
20
311.483750
11
715.942379
21
305.479043
0
LINE
8
0
10
715.942379
20
305.479043
11
717.558219
21
299.407656
0
LINE
8
0
10
717.558219
20
299.407656
11
718.908512
21
293.270879
0
LINE
8
0
10
718.908512
20
293.270879
11
719.969000
21
287.070000
0
LINE
8
0
10
719.969000
20
287.070000
11
720.557574
21
281.277207
0
LINE
8
0
10
720.557574
20
281.277207
11
720.687594
21
275.462031
0
LINE
8
0
10
720.687594
20
275.462031
11
720.369254
21
269.655527
0
LINE
8
0
10
720.369254
20
269.655527
11
719.612750
21
263.888750
0
LINE
8
0
10
719.612750
20
263.888750
11
718.428277
21
258.192754
0
LINE
8
0
10
718.428277
20
258.192754
11
716.826031
21
252.598594
0
LINE
8
0
10
716.826031
20
252.598594
11
714.816207
21
247.137324
0
LINE
8
0
10
714.816207
20
247.137324
11
712.409000
21
241.840000
0
LINE
8
0
10
712.409000
20
241.840000
11
709.823043
21
237.159004
0
LINE
8
0
10
709.823043
20
237.159004
11
706.974469
21
232.631406
0
LINE
8
0
10
706.974469
20
232.631406
11
703.869723
21
228.276543
0
LINE
8
0
10
703.869723
20
228.276543
11
700.515250
21
224.113750
0
LINE
8
0
10
700.515250
20
224.113750
11
696.917496
21
220.162363
0
LINE
8
0
10
696.917496
20
220.162363
11
693.082906
21
216.441719
0
LINE
8
0
10
693.082906
20
216.441719
11
689.017926
21
212.971152
0
LINE
8
0
10
689.017926
20
212.971152
11
684.729000
21
209.770000
0
LINE
8
0
10
684.729000
20
209.770000
11
686.414000
21
206.978750
0
LINE
8
0
10
686.414000
20
206.978750
11
688.519000
21
204.480000
0
LINE
8
0
10
688.519000
20
204.480000
11
699.620250
21
192.645000
0
LINE
8
0
10
699.620250
20
192.645000
11
705.229469
21
186.783750
0
LINE
8
0
10
705.229469
20
186.783750
11
710.999000
21
181.080000
0
LINE
8
0
10
710.999000
20
181.080000
11
709.438316
21
176.158933
0
LINE
8
0
10
709.438316
20
176.158933
11
707.431031
21
171.432090
0
LINE
8
0
10
707.431031
20
171.432090
11
705.006793
21
166.918381
0
LINE
8
0
10
705.006793
20
166.918381
11
702.195250
21
162.636719
0
LINE
8
0
10
702.195250
20
162.636719
11
699.026051
21
158.606013
0
LINE
8
0
10
699.026051
20
158.606013
11
695.528844
21
154.845176
0
LINE
8
0
10
695.528844
20
154.845176
11
691.733277
21
151.373118
0
LINE
8
0
10
691.733277
20
151.373118
11
687.669000
21
148.208750
0
LINE
8
0
10
687.669000
20
148.208750
11
683.365660
21
145.370984
0
LINE
8
0
10
683.365660
20
145.370984
11
678.852906
21
142.878730
0
LINE
8
0
10
678.852906
20
142.878730
11
674.160387
21
140.750901
0
LINE
8
0
10
674.160387
20
140.750901
11
669.317750
21
139.006406
0
LINE
8
0
10
669.317750
20
139.006406
11
664.354645
21
137.664158
0
LINE
8
0
10
664.354645
20
137.664158
11
659.300719
21
136.743066
0
LINE
8
0
10
659.300719
20
136.743066
11
654.185621
21
136.262043
0
LINE
8
0
10
654.185621
20
136.262043
11
649.039000
21
136.240000
0
LINE
8
0
10
649.039000
20
136.240000
11
645.065426
21
136.294863
0
LINE
8
0
10
645.065426
20
136.294863
11
641.139781
21
136.686406
0
LINE
8
0
10
641.139781
20
136.686406
11
637.262184
21
137.372559
0
LINE
8
0
10
637.262184
20
137.372559
11
633.432750
21
138.311250
0
LINE
8
0
10
633.432750
20
138.311250
11
629.651598
21
139.460410
0
LINE
8
0
10
629.651598
20
139.460410
11
625.918844
21
140.777969
0
LINE
8
0
10
625.918844
20
140.777969
11
618.599000
21
143.750000
0
LINE
8
0
10
618.599000
20
143.750000
11
613.591969
21
152.868594
0
LINE
8
0
10
613.591969
20
152.868594
11
608.955250
21
162.181250
0
LINE
8
0
10
608.955250
20
162.181250
11
604.740406
21
171.690781
0
LINE
8
0
10
604.740406
20
171.690781
11
600.999000
21
181.400000
0
LINE
8
0
10
600.999000
20
181.400000
11
602.719781
21
182.946094
0
LINE
8
0
10
602.719781
20
182.946094
11
604.617750
21
184.251250
0
LINE
8
0
10
604.617750
20
184.251250
11
606.633844
21
185.378281
0
LINE
8
0
10
606.633844
20
185.378281
11
608.709000
21
186.390000
0
LINE
8
0
10
608.709000
20
186.390000
11
613.041170
21
188.811042
0
LINE
8
0
10
613.041170
20
188.811042
11
617.308082
21
191.371465
0
LINE
8
0
10
617.308082
20
191.371465
11
621.499085
21
194.070959
0
LINE
8
0
10
621.499085
20
194.070959
11
625.603531
21
196.909219
0
LINE
8
0
10
625.603531
20
196.909219
11
629.610770
21
199.885935
0
LINE
8
0
10
629.610770
20
199.885935
11
633.510152
21
203.000801
0
LINE
8
0
10
633.510152
20
203.000801
11
637.291029
21
206.253508
0
LINE
8
0
10
637.291029
20
206.253508
11
640.942750
21
209.643750
0
LINE
8
0
10
640.942750
20
209.643750
11
644.454667
21
213.171218
0
LINE
8
0
10
644.454667
20
213.171218
11
647.816129
21
216.835605
0
LINE
8
0
10
647.816129
20
216.835605
11
651.016488
21
220.636604
0
LINE
8
0
10
651.016488
20
220.636604
11
654.045094
21
224.573906
0
LINE
8
0
10
654.045094
20
224.573906
11
656.891297
21
228.647205
0
LINE
8
0
10
656.891297
20
228.647205
11
659.544449
21
232.856191
0
LINE
8
0
10
659.544449
20
232.856191
11
661.993900
21
237.200559
0
LINE
8
0
10
661.993900
20
237.200559
11
664.229000
21
241.680000
0
LINE
8
0
10
664.229000
20
241.680000
11
666.916402
21
248.246113
0
LINE
8
0
10
666.916402
20
248.246113
11
669.119469
21
254.978281
0
LINE
8
0
10
669.119469
20
254.978281
11
670.846988
21
261.844746
0
LINE
8
0
10
670.846988
20
261.844746
11
672.107750
21
268.813750
0
LINE
8
0
10
672.107750
20
268.813750
11
672.910543
21
275.853535
0
LINE
8
0
10
672.910543
20
275.853535
11
673.264156
21
282.932344
0
LINE
8
0
10
673.264156
20
282.932344
11
673.177379
21
290.018418
0
LINE
8
0
10
673.177379
20
290.018418
11
672.659000
21
297.080000
0
LINE
8
0
10
672.659000
20
297.080000
11
671.973653
21
303.555720
0
LINE
8
0
10
671.973653
20
303.555720
11
671.135289
21
310.004824
0
LINE
8
0
10
671.135289
20
310.004824
11
669.038063
21
322.827344
0
LINE
8
0
10
669.038063
20
322.827344
11
666.444430
21
335.555879
0
LINE
8
0
10
666.444430
20
335.555879
11
663.431500
21
348.198750
0
LINE
8
0
10
663.431500
20
348.198750
11
660.076383
21
360.764277
0
LINE
8
0
10
660.076383
20
360.764277
11
656.456187
21
373.260781
0
LINE
8
0
10
656.456187
20
373.260781
11
648.729000
21
398.080000
0
LINE
8
0
10
286.040000
20
373.970000
11
289.452441
21
377.718398
0
LINE
8
0
10
289.452441
20
377.718398
11
293.016406
21
381.412188
0
LINE
8
0
10
293.016406
20
381.412188
11
296.756855
21
384.951758
0
LINE
8
0
10
296.756855
20
384.951758
11
300.698750
21
388.237500
0
LINE
8
0
10
300.698750
20
388.237500
11
304.867051
21
391.169805
0
LINE
8
0
10
304.867051
20
391.169805
11
309.286719
21
393.649062
0
LINE
8
0
10
309.286719
20
393.649062
11
311.598616
21
394.687671
0
LINE
8
0
10
311.598616
20
394.687671
11
313.982715
21
395.575664
0
LINE
8
0
10
313.982715
20
395.575664
11
316.442136
21
396.300591
0
LINE
8
0
10
316.442136
20
396.300591
11
318.980000
21
396.850000
0
LINE
8
0
10
318.980000
20
396.850000
11
315.048789
21
383.724512
0
LINE
8
0
10
315.048789
20
383.724512
11
311.288437
21
370.536094
0
LINE
8
0
10
311.288437
20
370.536094
11
307.756367
21
357.281816
0
LINE
8
0
10
307.756367
20
357.281816
11
304.510000
21
343.958750
0
LINE
8
0
10
304.510000
20
343.958750
11
301.606758
21
330.563965
0
LINE
8
0
10
301.606758
20
330.563965
11
299.104063
21
317.094531
0
LINE
8
0
10
299.104063
20
317.094531
11
297.059336
21
303.547520
0
LINE
8
0
10
297.059336
20
303.547520
11
295.530000
21
289.920000
0
LINE
8
0
10
295.530000
20
289.920000
11
295.219688
21
281.689219
0
LINE
8
0
10
295.219688
20
281.689219
11
295.192500
21
273.446250
0
LINE
8
0
10
295.192500
20
273.446250
11
295.350117
21
269.331621
0
LINE
8
0
10
295.350117
20
269.331621
11
295.656562
21
265.227656
0
LINE
8
0
10
295.656562
20
265.227656
11
296.137852
21
261.138926
0
LINE
8
0
10
296.137852
20
261.138926
11
296.820000
21
257.070000
0
LINE
8
0
10
296.820000
20
257.070000
11
297.477065
21
253.330752
0
LINE
8
0
10
297.477065
20
253.330752
11
298.283867
21
249.623672
0
LINE
8
0
10
298.283867
20
249.623672
11
299.237563
21
245.953506
0
LINE
8
0
10
299.237563
20
245.953506
11
300.335312
21
242.325000
0
LINE
8
0
10
300.335312
20
242.325000
11
302.951602
21
235.211953
0
LINE
8
0
10
302.951602
20
235.211953
11
306.110000
21
228.322500
0
LINE
8
0
10
306.110000
20
228.322500
11
309.787773
21
221.694609
0
LINE
8
0
10
309.787773
20
221.694609
11
313.962188
21
215.366250
0
LINE
8
0
10
313.962188
20
215.366250
11
318.610508
21
209.375391
0
LINE
8
0
10
318.610508
20
209.375391
11
323.710000
21
203.760000
0
LINE
8
0
10
323.710000
20
203.760000
11
328.414844
21
199.183398
0
LINE
8
0
10
328.414844
20
199.183398
11
333.383125
21
194.910312
0
LINE
8
0
10
333.383125
20
194.910312
11
338.586719
21
190.928320
0
LINE
8
0
10
338.586719
20
190.928320
11
343.997500
21
187.225000
0
LINE
8
0
10
343.997500
20
187.225000
11
349.587344
21
183.787930
0
LINE
8
0
10
349.587344
20
183.787930
11
355.328125
21
180.604687
0
LINE
8
0
10
355.328125
20
180.604687
11
361.191719
21
177.662852
0
LINE
8
0
10
361.191719
20
177.662852
11
367.150000
21
174.950000
0
LINE
8
0
10
367.150000
20
174.950000
11
367.400000
21
171.800000
0
LINE
8
0
10
367.400000
20
171.800000
11
364.009531
21
163.478281
0
LINE
8
0
10
364.009531
20
163.478281
11
360.248750
21
155.318750
0
LINE
8
0
10
360.248750
20
155.318750
11
356.216094
21
147.284844
0
LINE
8
0
10
356.216094
20
147.284844
11
352.010000
21
139.340000
0
LINE
8
0
10
352.010000
20
139.340000
11
348.983347
21
137.766069
0
LINE
8
0
10
348.983347
20
137.766069
11
345.875996
21
136.363555
0
LINE
8
0
10
345.875996
20
136.363555
11
342.697483
21
135.133247
0
LINE
8
0
10
342.697483
20
135.133247
11
339.457344
21
134.075938
0
LINE
8
0
10
339.457344
20
134.075938
11
336.165115
21
133.192417
0
LINE
8
0
10
336.165115
20
133.192417
11
332.830332
21
132.483477
0
LINE
8
0
10
332.830332
20
132.483477
11
329.462532
21
131.949907
0
LINE
8
0
10
329.462532
20
131.949907
11
326.071250
21
131.592500
0
LINE
8
0
10
326.071250
20
131.592500
11
322.666023
21
131.412046
0
LINE
8
0
10
322.666023
20
131.412046
11
319.256387
21
131.409336
0
LINE
8
0
10
319.256387
20
131.409336
11
315.851877
21
131.585161
0
LINE
8
0
10
315.851877
20
131.585161
11
312.462031
21
131.940313
0
LINE
8
0
10
312.462031
20
131.940313
11
309.096384
21
132.475581
0
LINE
8
0
10
309.096384
20
132.475581
11
305.764473
21
133.191758
0
LINE
8
0
10
305.764473
20
133.191758
11
302.475833
21
134.089634
0
LINE
8
0
10
302.475833
20
134.089634
11
299.240000
21
135.170000
0
LINE
8
0
10
299.240000
20
135.170000
11
295.803176
21
136.497346
0
LINE
8
0
10
295.803176
20
136.497346
11
292.458066
21
138.028613
0
LINE
8
0
10
292.458066
20
138.028613
11
289.212712
21
139.755144
0
LINE
8
0
10
289.212712
20
139.755144
11
286.075156
21
141.668281
0
LINE
8
0
10
286.075156
20
141.668281
11
283.053440
21
143.759368
0
LINE
8
0
10
283.053440
20
143.759368
11
280.155605
21
146.019746
0
LINE
8
0
10
280.155605
20
146.019746
11
277.389695
21
148.440759
0
LINE
8
0
10
277.389695
20
148.440759
11
274.763750
21
151.013750
0
LINE
8
0
10
274.763750
20
151.013750
11
272.285813
21
153.730061
0
LINE
8
0
10
272.285813
20
153.730061
11
269.963926
21
156.581035
0
LINE
8
0
10
269.963926
20
156.581035
11
267.806130
21
159.558015
0
LINE
8
0
10
267.806130
20
159.558015
11
265.820469
21
162.652344
0
LINE
8
0
10
265.820469
20
162.652344
11
264.014983
21
165.855364
0
LINE
8
0
10
264.014983
20
165.855364
11
262.397715
21
169.158418
0
LINE
8
0
10
262.397715
20
169.158418
11
260.976707
21
172.552849
0
LINE
8
0
10
260.976707
20
172.552849
11
259.760000
21
176.030000
0
LINE
8
0
10
259.760000
20
176.030000
11
268.970000
21
186.050000
0
LINE
8
0
10
268.970000
20
186.050000
11
272.881250
21
190.263750
0
LINE
8
0
10
272.881250
20
190.263750
11
276.927500
21
194.357500
0
LINE
8
0
10
276.927500
20
194.357500
11
280.850000
21
198.560000
0
LINE
8
0
10
280.850000
20
198.560000
11
282.683984
21
200.773516
0
LINE
8
0
10
282.683984
20
200.773516
11
284.390000
21
203.100000
0
LINE
8
0
10
284.390000
20
203.100000
11
277.299844
21
208.259062
0
LINE
8
0
10
277.299844
20
208.259062
11
273.883379
21
211.009805
0
LINE
8
0
10
273.883379
20
211.009805
11
270.583750
21
213.892500
0
LINE
8
0
10
270.583750
20
213.892500
11
267.424277
21
216.920508
0
LINE
8
0
10
267.424277
20
216.920508
11
264.428281
21
220.107188
0
LINE
8
0
10
264.428281
20
220.107188
11
261.619082
21
223.465898
0
LINE
8
0
10
261.619082
20
223.465898
11
259.020000
21
227.010000
0
LINE
8
0
10
259.020000
20
227.010000
11
255.351797
21
232.426250
0
LINE
8
0
10
255.351797
20
232.426250
11
252.133125
21
238.125625
0
LINE
8
0
10
252.133125
20
238.125625
11
249.387891
21
244.067812
0
LINE
8
0
10
249.387891
20
244.067812
11
247.140000
21
250.212500
0
LINE
8
0
10
247.140000
20
250.212500
11
245.413359
21
256.519375
0
LINE
8
0
10
245.413359
20
256.519375
11
244.231875
21
262.948125
0
LINE
8
0
10
244.231875
20
262.948125
11
243.619453
21
269.458438
0
LINE
8
0
10
243.619453
20
269.458438
11
243.534111
21
272.731582
0
LINE
8
0
10
243.534111
20
272.731582
11
243.600000
21
276.010000
0
LINE
8
0
10
243.600000
20
276.010000
11
244.089707
21
282.277676
0
LINE
8
0
10
244.089707
20
282.277676
11
244.986406
21
288.480781
0
LINE
8
0
10
244.986406
20
288.480781
11
246.241465
21
294.619434
0
LINE
8
0
10
246.241465
20
294.619434
11
247.806250
21
300.693750
0
LINE
8
0
10
247.806250
20
300.693750
11
249.632129
21
306.703848
0
LINE
8
0
10
249.632129
20
306.703848
11
251.670469
21
312.649844
0
LINE
8
0
10
251.670469
20
312.649844
11
256.190000
21
324.350000
0
LINE
8
0
10
256.190000
20
324.350000
11
259.146055
21
330.982754
0
LINE
8
0
10
259.146055
20
330.982754
11
262.322188
21
337.515781
0
LINE
8
0
10
262.322188
20
337.515781
11
265.719102
21
343.937480
0
LINE
8
0
10
265.719102
20
343.937480
11
269.337500
21
350.236250
0
LINE
8
0
10
269.337500
20
350.236250
11
273.178086
21
356.400488
0
LINE
8
0
10
273.178086
20
356.400488
11
277.241562
21
362.418594
0
LINE
8
0
10
277.241562
20
362.418594
11
281.528633
21
368.278965
0
LINE
8
0
10
281.528633
20
368.278965
11
286.040000
21
373.970000
0
LINE
8
0
10
45.669900
20
342.140000
11
46.121619
21
344.144219
0
LINE
8
0
10
46.121619
20
344.144219
11
46.816150
21
346.173750
0
LINE
8
0
10
46.816150
20
346.173750
11
47.338552
21
347.046543
0
LINE
8
0
10
47.338552
20
347.046543
11
48.022556
21
347.743906
0
LINE
8
0
10
48.022556
20
347.743906
11
48.901795
21
348.205254
0
LINE
8
0
10
48.901795
20
348.205254
11
50.009900
21
348.370000
0
LINE
8
0
10
50.009900
20
348.370000
11
50.779392
21
347.691992
0
LINE
8
0
10
50.779392
20
347.691992
11
51.350837
21
346.890938
0
LINE
8
0
10
51.350837
20
346.890938
11
51.762439
21
345.993789
0
LINE
8
0
10
51.762439
20
345.993789
11
52.052400
21
345.027500
0
LINE
8
0
10
52.052400
20
345.027500
11
52.759900
21
341.010000
0
LINE
8
0
10
52.759900
20
341.010000
11
53.949587
21
333.838066
0
LINE
8
0
10
53.949587
20
333.838066
11
55.711150
21
326.778281
0
LINE
8
0
10
55.711150
20
326.778281
11
58.033338
21
319.880918
0
LINE
8
0
10
58.033338
20
319.880918
11
60.904900
21
313.196250
0
LINE
8
0
10
60.904900
20
313.196250
11
62.543181
21
309.949387
0
LINE
8
0
10
62.543181
20
309.949387
11
64.314588
21
306.774551
0
LINE
8
0
10
64.314588
20
306.774551
11
66.217712
21
303.678025
0
LINE
8
0
10
66.217712
20
303.678025
11
68.251150
21
300.666094
0
LINE
8
0
10
68.251150
20
300.666094
11
70.413494
21
297.745042
0
LINE
8
0
10
70.413494
20
297.745042
11
72.703338
21
294.921152
0
LINE
8
0
10
72.703338
20
294.921152
11
75.119275
21
292.200710
0
LINE
8
0
10
75.119275
20
292.200710
11
77.659900
21
289.590000
0
LINE
8
0
10
77.659900
20
289.590000
11
81.609787
21
285.850703
0
LINE
8
0
10
81.609787
20
285.850703
11
85.789603
21
282.372500
0
LINE
8
0
10
85.789603
20
282.372500
11
90.180830
21
279.166172
0
LINE
8
0
10
90.180830
20
279.166172
11
94.764950
21
276.242500
0
LINE
8
0
10
94.764950
20
276.242500
11
99.523445
21
273.612266
0
LINE
8
0
10
99.523445
20
273.612266
11
104.437797
21
271.286250
0
LINE
8
0
10
104.437797
20
271.286250
11
109.489488
21
269.275234
0
LINE
8
0
10
109.489488
20
269.275234
11
114.660000
21
267.590000
0
LINE
8
0
10
114.660000
20
267.590000
11
120.230000
21
266.080000
0
LINE
8
0
10
120.230000
20
266.080000
11
120.223281
21
262.198379
0
LINE
8
0
10
120.223281
20
262.198379
11
120.016875
21
258.312656
0
LINE
8
0
10
120.016875
20
258.312656
11
119.601406
21
254.440293
0
LINE
8
0
10
119.601406
20
254.440293
11
118.967500
21
250.598750
0
LINE
8
0
10
118.967500
20
250.598750
11
118.105781
21
246.805488
0
LINE
8
0
10
118.105781
20
246.805488
11
117.006875
21
243.077969
0
LINE
8
0
10
117.006875
20
243.077969
11
115.661406
21
239.433652
0
LINE
8
0
10
115.661406
20
239.433652
11
114.060000
21
235.890000
0
LINE
8
0
10
114.060000
20
235.890000
11
111.696500
21
231.573301
0
LINE
8
0
10
111.696500
20
231.573301
11
109.085141
21
227.403906
0
LINE
8
0
10
109.085141
20
227.403906
11
106.239636
21
223.390371
0
LINE
8
0
10
106.239636
20
223.390371
11
103.173700
21
219.541250
0
LINE
8
0
10
103.173700
20
219.541250
11
99.901045
21
215.865098
0
LINE
8
0
10
99.901045
20
215.865098
11
96.435384
21
212.370469
0
LINE
8
0
10
96.435384
20
212.370469
11
92.790432
21
209.065918
0
LINE
8
0
10
92.790432
20
209.065918
11
88.979900
21
205.960000
0
LINE
8
0
10
88.979900
20
205.960000
11
86.213045
21
204.045000
0
LINE
8
0
10
86.213045
20
204.045000
11
83.326306
21
202.255625
0
LINE
8
0
10
83.326306
20
202.255625
11
80.329177
21
200.641563
0
LINE
8
0
10
80.329177
20
200.641563
11
77.231150
21
199.252500
0
LINE
8
0
10
77.231150
20
199.252500
11
74.041716
21
198.138125
0
LINE
8
0
10
74.041716
20
198.138125
11
70.770369
21
197.348125
0
LINE
8
0
10
70.770369
20
197.348125
11
67.426599
21
196.932187
0
LINE
8
0
10
67.426599
20
196.932187
11
64.019900
21
196.940000
0
LINE
8
0
10
64.019900
20
196.940000
11
60.779705
21
197.403613
0
LINE
8
0
10
60.779705
20
197.403613
11
57.673338
21
198.314531
0
LINE
8
0
10
57.673338
20
198.314531
11
54.722127
21
199.627871
0
LINE
8
0
10
54.722127
20
199.627871
11
51.947400
21
201.298750
0
LINE
8
0
10
51.947400
20
201.298750
11
49.370486
21
203.282285
0
LINE
8
0
10
49.370486
20
203.282285
11
47.012713
21
205.533594
0
LINE
8
0
10
47.012713
20
205.533594
11
44.895408
21
208.007793
0
LINE
8
0
10
44.895408
20
208.007793
11
43.039900
21
210.660000
0
LINE
8
0
10
43.039900
20
210.660000
11
43.189900
21
209.590000
0
LINE
8
0
10
43.189900
20
209.590000
11
41.806907
21
212.925488
0
LINE
8
0
10
41.806907
20
212.925488
11
40.598038
21
216.306563
0
LINE
8
0
10
40.598038
20
216.306563
11
39.552263
21
219.728887
0
LINE
8
0
10
39.552263
20
219.728887
11
38.658552
21
223.188125
0
LINE
8
0
10
38.658552
20
223.188125
11
37.283198
21
230.200000
0
LINE
8
0
10
37.283198
20
230.200000
11
36.383737
21
237.307500
0
LINE
8
0
10
36.383737
20
237.307500
11
35.871928
21
244.475937
0
LINE
8
0
10
35.871928
20
244.475937
11
35.659530
21
251.670625
0
LINE
8
0
10
35.659530
20
251.670625
11
35.658301
21
258.856875
0
LINE
8
0
10
35.658301
20
258.856875
11
35.780000
21
266.000000
0
LINE
8
0
10
35.780000
20
266.000000
11
36.344410
21
275.590098
0
LINE
8
0
10
36.344410
20
275.590098
11
37.111547
21
285.165781
0
LINE
8
0
10
37.111547
20
285.165781
11
38.076023
21
294.723887
0
LINE
8
0
10
38.076023
20
294.723887
11
39.232450
21
304.261250
0
LINE
8
0
10
39.232450
20
304.261250
11
40.575439
21
313.774707
0
LINE
8
0
10
40.575439
20
313.774707
11
42.099603
21
323.261094
0
LINE
8
0
10
42.099603
20
323.261094
11
43.799553
21
332.717246
0
LINE
8
0
10
43.799553
20
332.717246
11
45.669900
21
342.140000
0
LINE
8
0
10
195.460000
20
317.320000
11
202.659551
21
320.241328
0
LINE
8
0
10
202.659551
20
320.241328
11
210.060781
21
322.662500
0
LINE
8
0
10
210.060781
20
322.662500
11
217.618809
21
324.541797
0
LINE
8
0
10
217.618809
20
324.541797
11
221.442595
21
325.265205
0
LINE
8
0
10
221.442595
20
325.265205
11
225.288750
21
325.837500
0
LINE
8
0
10
225.288750
20
325.837500
11
229.151663
21
326.253467
0
LINE
8
0
10
229.151663
20
326.253467
11
233.025723
21
326.507891
0
LINE
8
0
10
233.025723
20
326.507891
11
236.905320
21
326.595557
0
LINE
8
0
10
236.905320
20
326.595557
11
240.784844
21
326.511250
0
LINE
8
0
10
240.784844
20
326.511250
11
244.658684
21
326.249756
0
LINE
8
0
10
244.658684
20
326.249756
11
248.521230
21
325.805859
0
LINE
8
0
10
248.521230
20
325.805859
11
252.366873
21
325.174346
0
LINE
8
0
10
252.366873
20
325.174346
11
256.190000
21
324.350000
0
LINE
8
0
10
256.190000
20
324.350000
11
251.670469
21
312.649844
0
LINE
8
0
10
251.670469
20
312.649844
11
249.632129
21
306.703848
0
LINE
8
0
10
249.632129
20
306.703848
11
247.806250
21
300.693750
0
LINE
8
0
10
247.806250
20
300.693750
11
246.241465
21
294.619434
0
LINE
8
0
10
246.241465
20
294.619434
11
244.986406
21
288.480781
0
LINE
8
0
10
244.986406
20
288.480781
11
244.089707
21
282.277676
0
LINE
8
0
10
244.089707
20
282.277676
11
243.600000
21
276.010000
0
LINE
8
0
10
243.600000
20
276.010000
11
243.534111
21
272.731582
0
LINE
8
0
10
243.534111
20
272.731582
11
243.619453
21
269.458438
0
LINE
8
0
10
243.619453
20
269.458438
11
244.231875
21
262.948125
0
LINE
8
0
10
244.231875
20
262.948125
11
245.413359
21
256.519375
0
LINE
8
0
10
245.413359
20
256.519375
11
247.140000
21
250.212500
0
LINE
8
0
10
247.140000
20
250.212500
11
249.387891
21
244.067812
0
LINE
8
0
10
249.387891
20
244.067812
11
252.133125
21
238.125625
0
LINE
8
0
10
252.133125
20
238.125625
11
255.351797
21
232.426250
0
LINE
8
0
10
255.351797
20
232.426250
11
259.020000
21
227.010000
0
LINE
8
0
10
259.020000
20
227.010000
11
261.619082
21
223.465898
0
LINE
8
0
10
261.619082
20
223.465898
11
264.428281
21
220.107188
0
LINE
8
0
10
264.428281
20
220.107188
11
267.424277
21
216.920508
0
LINE
8
0
10
267.424277
20
216.920508
11
270.583750
21
213.892500
0
LINE
8
0
10
270.583750
20
213.892500
11
273.883379
21
211.009805
0
LINE
8
0
10
273.883379
20
211.009805
11
277.299844
21
208.259062
0
LINE
8
0
10
277.299844
20
208.259062
11
284.390000
21
203.100000
0
LINE
8
0
10
284.390000
20
203.100000
11
282.683984
21
200.773516
0
LINE
8
0
10
282.683984
20
200.773516
11
280.850000
21
198.560000
0
LINE
8
0
10
280.850000
20
198.560000
11
276.927500
21
194.357500
0
LINE
8
0
10
276.927500
20
194.357500
11
272.881250
21
190.263750
0
LINE
8
0
10
272.881250
20
190.263750
11
268.970000
21
186.050000
0
LINE
8
0
10
268.970000
20
186.050000
11
259.760000
21
176.030000
0
LINE
8
0
10
259.760000
20
176.030000
11
256.969570
21
173.365645
0
LINE
8
0
10
256.969570
20
173.365645
11
254.287187
21
170.598281
0
LINE
8
0
10
254.287187
20
170.598281
11
249.225000
21
164.788750
0
LINE
8
0
10
249.225000
20
164.788750
11
244.530312
21
158.669844
0
LINE
8
0
10
244.530312
20
158.669844
11
240.160000
21
152.310000
0
LINE
8
0
10
240.160000
20
152.310000
11
233.290208
21
149.450835
0
LINE
8
0
10
233.290208
20
149.450835
11
226.299316
21
146.941680
0
LINE
8
0
10
226.299316
20
146.941680
11
219.201931
21
144.778169
0
LINE
8
0
10
219.201931
20
144.778169
11
212.012656
21
142.955938
0
LINE
8
0
10
212.012656
20
142.955938
11
204.746096
21
141.470620
0
LINE
8
0
10
204.746096
20
141.470620
11
197.416855
21
140.317852
0
LINE
8
0
10
197.416855
20
140.317852
11
190.039539
21
139.493267
0
LINE
8
0
10
190.039539
20
139.493267
11
182.628750
21
138.992500
0
LINE
8
0
10
182.628750
20
138.992500
11
175.199094
21
138.811187
0
LINE
8
0
10
175.199094
20
138.811187
11
167.765176
21
138.944961
0
LINE
8
0
10
167.765176
20
138.944961
11
160.341599
21
139.389458
0
LINE
8
0
10
160.341599
20
139.389458
11
152.942969
21
140.140312
0
LINE
8
0
10
152.942969
20
140.140312
11
145.583889
21
141.193159
0
LINE
8
0
10
145.583889
20
141.193159
11
138.278965
21
142.543633
0
LINE
8
0
10
138.278965
20
142.543633
11
131.042800
21
144.187368
0
LINE
8
0
10
131.042800
20
144.187368
11
123.890000
21
146.120000
0
LINE
8
0
10
123.890000
20
146.120000
11
116.470933
21
148.256875
0
LINE
8
0
10
116.470933
20
148.256875
11
109.094984
21
150.626250
0
LINE
8
0
10
109.094984
20
150.626250
11
101.809031
21
153.275000
0
LINE
8
0
10
101.809031
20
153.275000
11
94.659950
21
156.250000
0
LINE
8
0
10
94.659950
20
156.250000
11
87.694619
21
159.598125
0
LINE
8
0
10
87.694619
20
159.598125
11
80.959916
21
163.366250
0
LINE
8
0
10
80.959916
20
163.366250
11
74.502717
21
167.601250
0
LINE
8
0
10
74.502717
20
167.601250
11
71.392831
21
169.908477
0
LINE
8
0
10
71.392831
20
169.908477
11
68.369900
21
172.350000
0
LINE
8
0
10
68.369900
20
172.350000
11
64.053455
21
176.076816
0
LINE
8
0
10
64.053455
20
176.076816
11
60.056462
21
180.133281
0
LINE
8
0
10
60.056462
20
180.133281
11
56.386189
21
184.487168
0
LINE
8
0
10
56.386189
20
184.487168
11
53.049900
21
189.106250
0
LINE
8
0
10
53.049900
20
189.106250
11
50.054861
21
193.958301
0
LINE
8
0
10
50.054861
20
193.958301
11
47.408338
21
199.011094
0
LINE
8
0
10
47.408338
20
199.011094
11
45.117595
21
204.232402
0
LINE
8
0
10
45.117595
20
204.232402
11
43.189900
21
209.590000
0
LINE
8
0
10
43.189900
20
209.590000
11
43.039900
21
210.660000
0
LINE
8
0
10
43.039900
20
210.660000
11
44.895408
21
208.007793
0
LINE
8
0
10
44.895408
20
208.007793
11
47.012713
21
205.533594
0
LINE
8
0
10
47.012713
20
205.533594
11
49.370486
21
203.282285
0
LINE
8
0
10
49.370486
20
203.282285
11
51.947400
21
201.298750
0
LINE
8
0
10
51.947400
20
201.298750
11
54.722127
21
199.627871
0
LINE
8
0
10
54.722127
20
199.627871
11
57.673338
21
198.314531
0
LINE
8
0
10
57.673338
20
198.314531
11
60.779705
21
197.403613
0
LINE
8
0
10
60.779705
20
197.403613
11
64.019900
21
196.940000
0
LINE
8
0
10
64.019900
20
196.940000
11
67.426599
21
196.932187
0
LINE
8
0
10
67.426599
20
196.932187
11
70.770369
21
197.348125
0
LINE
8
0
10
70.770369
20
197.348125
11
74.041716
21
198.138125
0
LINE
8
0
10
74.041716
20
198.138125
11
77.231150
21
199.252500
0
LINE
8
0
10
77.231150
20
199.252500
11
80.329177
21
200.641563
0
LINE
8
0
10
80.329177
20
200.641563
11
83.326306
21
202.255625
0
LINE
8
0
10
83.326306
20
202.255625
11
86.213045
21
204.045000
0
LINE
8
0
10
86.213045
20
204.045000
11
88.979900
21
205.960000
0
LINE
8
0
10
88.979900
20
205.960000
11
92.790432
21
209.065918
0
LINE
8
0
10
92.790432
20
209.065918
11
96.435384
21
212.370469
0
LINE
8
0
10
96.435384
20
212.370469
11
99.901045
21
215.865098
0
LINE
8
0
10
99.901045
20
215.865098
11
103.173700
21
219.541250
0
LINE
8
0
10
103.173700
20
219.541250
11
106.239636
21
223.390371
0
LINE
8
0
10
106.239636
20
223.390371
11
109.085141
21
227.403906
0
LINE
8
0
10
109.085141
20
227.403906
11
111.696500
21
231.573301
0
LINE
8
0
10
111.696500
20
231.573301
11
114.060000
21
235.890000
0
LINE
8
0
10
114.060000
20
235.890000
11
115.661406
21
239.433652
0
LINE
8
0
10
115.661406
20
239.433652
11
117.006875
21
243.077969
0
LINE
8
0
10
117.006875
20
243.077969
11
118.105781
21
246.805488
0
LINE
8
0
10
118.105781
20
246.805488
11
118.967500
21
250.598750
0
LINE
8
0
10
118.967500
20
250.598750
11
119.601406
21
254.440293
0
LINE
8
0
10
119.601406
20
254.440293
11
120.016875
21
258.312656
0
LINE
8
0
10
120.016875
20
258.312656
11
120.223281
21
262.198379
0
LINE
8
0
10
120.223281
20
262.198379
11
120.230000
21
266.080000
0
LINE
8
0
10
120.230000
20
266.080000
11
114.660000
21
267.590000
0
LINE
8
0
10
114.660000
20
267.590000
11
120.155293
21
268.125664
0
LINE
8
0
10
120.155293
20
268.125664
11
125.543594
21
269.199687
0
LINE
8
0
10
125.543594
20
269.199687
11
130.806035
21
270.766367
0
LINE
8
0
10
130.806035
20
270.766367
11
135.923750
21
272.780000
0
LINE
8
0
10
135.923750
20
272.780000
11
140.877871
21
275.194883
0
LINE
8
0
10
140.877871
20
275.194883
11
145.649531
21
277.965312
0
LINE
8
0
10
145.649531
20
277.965312
11
150.219863
21
281.045586
0
LINE
8
0
10
150.219863
20
281.045586
11
154.570000
21
284.390000
0
LINE
8
0
10
154.570000
20
284.390000
11
159.591836
21
288.620684
0
LINE
8
0
10
159.591836
20
288.620684
11
164.480312
21
293.035469
0
LINE
8
0
10
164.480312
20
293.035469
11
174.175000
21
301.983750
0
LINE
8
0
10
174.175000
20
301.983750
11
179.140117
21
306.300449
0
LINE
8
0
10
179.140117
20
306.300449
11
184.289688
21
310.367656
0
LINE
8
0
10
184.289688
20
310.367656
11
189.703164
21
314.076973
0
LINE
8
0
10
189.703164
20
314.076973
11
192.533696
21
315.763547
0
LINE
8
0
10
192.533696
20
315.763547
11
195.460000
21
317.320000
0
LINE
8
0
10
710.999000
20
181.080000
11
715.508316
21
176.602715
0
LINE
8
0
10
715.508316
20
176.602715
11
719.848531
21
171.882969
0
LINE
8
0
10
719.848531
20
171.882969
11
723.929293
21
166.916426
0
LINE
8
0
10
723.929293
20
166.916426
11
727.660250
21
161.698750
0
LINE
8
0
10
727.660250
20
161.698750
11
730.951051
21
156.225605
0
LINE
8
0
10
730.951051
20
156.225605
11
732.403158
21
153.391877
0
LINE
8
0
10
732.403158
20
153.391877
11
733.711344
21
150.492656
0
LINE
8
0
10
733.711344
20
150.492656
11
734.864315
21
147.527400
0
LINE
8
0
10
734.864315
20
147.527400
11
735.850777
21
144.495566
0
LINE
8
0
10
735.850777
20
144.495566
11
736.659437
21
141.396614
0
LINE
8
0
10
736.659437
20
141.396614
11
737.279000
21
138.230000
0
LINE
8
0
10
737.279000
20
138.230000
11
737.636969
21
134.305332
0
LINE
8
0
10
737.636969
20
134.305332
11
737.754000
21
130.324531
0
LINE
8
0
10
737.754000
20
130.324531
11
737.589781
21
126.333652
0
LINE
8
0
10
737.589781
20
126.333652
11
737.104000
21
122.378750
0
LINE
8
0
10
737.104000
20
122.378750
11
736.256344
21
118.505879
0
LINE
8
0
10
736.256344
20
118.505879
11
735.006500
21
114.761094
0
LINE
8
0
10
735.006500
20
114.761094
11
733.314156
21
111.190449
0
LINE
8
0
10
733.314156
20
111.190449
11
731.139000
21
107.840000
0
LINE
8
0
10
731.139000
20
107.840000
11
728.185875
21
104.419298
0
LINE
8
0
10
728.185875
20
104.419298
11
724.902750
21
101.316267
0
LINE
8
0
10
724.902750
20
101.316267
11
721.329000
21
98.548606
0
LINE
8
0
10
721.329000
20
98.548606
11
717.504000
21
96.134012
0
LINE
8
0
10
717.504000
20
96.134012
11
713.467125
21
94.090187
0
LINE
8
0
10
713.467125
20
94.090187
11
709.257750
21
92.434827
0
LINE
8
0
10
709.257750
20
92.434827
11
704.915250
21
91.185631
0
LINE
8
0
10
704.915250
20
91.185631
11
700.479000
21
90.360300
0
LINE
8
0
10
700.479000
20
90.360300
11
696.089566
21
89.806277
0
LINE
8
0
10
696.089566
20
89.806277
11
691.684781
21
89.625612
0
LINE
8
0
10
691.684781
20
89.625612
11
687.281168
21
89.790417
0
LINE
8
0
10
687.281168
20
89.790417
11
682.895250
21
90.272800
0
LINE
8
0
10
682.895250
20
90.272800
11
678.543551
21
91.044870
0
LINE
8
0
10
678.543551
20
91.044870
11
674.242594
21
92.078738
0
LINE
8
0
10
674.242594
20
92.078738
11
670.008902
21
93.346511
0
LINE
8
0
10
670.008902
20
93.346511
11
665.859000
21
94.820300
0
LINE
8
0
10
665.859000
20
94.820300
11
660.332906
21
97.265064
0
LINE
8
0
10
660.332906
20
97.265064
11
654.974625
21
100.078408
0
LINE
8
0
10
654.974625
20
100.078408
11
649.817906
21
103.251069
0
LINE
8
0
10
649.817906
20
103.251069
11
644.896500
21
106.773787
0
LINE
8
0
10
644.896500
20
106.773787
11
640.244156
21
110.637301
0
LINE
8
0
10
640.244156
20
110.637301
11
635.894625
21
114.832348
0
LINE
8
0
10
635.894625
20
114.832348
11
631.881656
21
119.349669
0
LINE
8
0
10
631.881656
20
119.349669
11
628.239000
21
124.180000
0
LINE
8
0
10
628.239000
20
124.180000
11
625.572594
21
128.937969
0
LINE
8
0
10
625.572594
20
128.937969
11
623.115250
21
133.811250
0
LINE
8
0
10
623.115250
20
133.811250
11
618.599000
21
143.750000
0
LINE
8
0
10
618.599000
20
143.750000
11
625.918844
21
140.777969
0
LINE
8
0
10
625.918844
20
140.777969
11
629.651598
21
139.460410
0
LINE
8
0
10
629.651598
20
139.460410
11
633.432750
21
138.311250
0
LINE
8
0
10
633.432750
20
138.311250
11
637.262184
21
137.372559
0
LINE
8
0
10
637.262184
20
137.372559
11
641.139781
21
136.686406
0
LINE
8
0
10
641.139781
20
136.686406
11
645.065426
21
136.294863
0
LINE
8
0
10
645.065426
20
136.294863
11
649.039000
21
136.240000
0
LINE
8
0
10
649.039000
20
136.240000
11
654.185621
21
136.262043
0
LINE
8
0
10
654.185621
20
136.262043
11
659.300719
21
136.743066
0
LINE
8
0
10
659.300719
20
136.743066
11
664.354645
21
137.664158
0
LINE
8
0
10
664.354645
20
137.664158
11
669.317750
21
139.006406
0
LINE
8
0
10
669.317750
20
139.006406
11
674.160387
21
140.750901
0
LINE
8
0
10
674.160387
20
140.750901
11
678.852906
21
142.878730
0
LINE
8
0
10
678.852906
20
142.878730
11
683.365660
21
145.370984
0
LINE
8
0
10
683.365660
20
145.370984
11
687.669000
21
148.208750
0
LINE
8
0
10
687.669000
20
148.208750
11
691.733277
21
151.373118
0
LINE
8
0
10
691.733277
20
151.373118
11
695.528844
21
154.845176
0
LINE
8
0
10
695.528844
20
154.845176
11
699.026051
21
158.606013
0
LINE
8
0
10
699.026051
20
158.606013
11
702.195250
21
162.636719
0
LINE
8
0
10
702.195250
20
162.636719
11
705.006793
21
166.918381
0
LINE
8
0
10
705.006793
20
166.918381
11
707.431031
21
171.432090
0
LINE
8
0
10
707.431031
20
171.432090
11
709.438316
21
176.158933
0
LINE
8
0
10
709.438316
20
176.158933
11
710.999000
21
181.080000
0
LINE
8
0
10
240.160000
20
152.310000
11
244.530312
21
158.669844
0
LINE
8
0
10
244.530312
20
158.669844
11
249.225000
21
164.788750
0
LINE
8
0
10
249.225000
20
164.788750
11
254.287187
21
170.598281
0
LINE
8
0
10
254.287187
20
170.598281
11
256.969570
21
173.365645
0
LINE
8
0
10
256.969570
20
173.365645
11
259.760000
21
176.030000
0
LINE
8
0
10
259.760000
20
176.030000
11
260.976707
21
172.552849
0
LINE
8
0
10
260.976707
20
172.552849
11
262.397715
21
169.158418
0
LINE
8
0
10
262.397715
20
169.158418
11
264.014983
21
165.855364
0
LINE
8
0
10
264.014983
20
165.855364
11
265.820469
21
162.652344
0
LINE
8
0
10
265.820469
20
162.652344
11
267.806130
21
159.558015
0
LINE
8
0
10
267.806130
20
159.558015
11
269.963926
21
156.581035
0
LINE
8
0
10
269.963926
20
156.581035
11
272.285813
21
153.730061
0
LINE
8
0
10
272.285813
20
153.730061
11
274.763750
21
151.013750
0
LINE
8
0
10
274.763750
20
151.013750
11
277.389695
21
148.440759
0
LINE
8
0
10
277.389695
20
148.440759
11
280.155605
21
146.019746
0
LINE
8
0
10
280.155605
20
146.019746
11
283.053440
21
143.759368
0
LINE
8
0
10
283.053440
20
143.759368
11
286.075156
21
141.668281
0
LINE
8
0
10
286.075156
20
141.668281
11
289.212712
21
139.755144
0
LINE
8
0
10
289.212712
20
139.755144
11
292.458066
21
138.028613
0
LINE
8
0
10
292.458066
20
138.028613
11
295.803176
21
136.497346
0
LINE
8
0
10
295.803176
20
136.497346
11
299.240000
21
135.170000
0
LINE
8
0
10
299.240000
20
135.170000
11
302.475833
21
134.089634
0
LINE
8
0
10
302.475833
20
134.089634
11
305.764473
21
133.191758
0
LINE
8
0
10
305.764473
20
133.191758
11
309.096384
21
132.475581
0
LINE
8
0
10
309.096384
20
132.475581
11
312.462031
21
131.940313
0
LINE
8
0
10
312.462031
20
131.940313
11
315.851877
21
131.585161
0
LINE
8
0
10
315.851877
20
131.585161
11
319.256387
21
131.409336
0
LINE
8
0
10
319.256387
20
131.409336
11
322.666023
21
131.412046
0
LINE
8
0
10
322.666023
20
131.412046
11
326.071250
21
131.592500
0
LINE
8
0
10
326.071250
20
131.592500
11
329.462532
21
131.949907
0
LINE
8
0
10
329.462532
20
131.949907
11
332.830332
21
132.483477
0
LINE
8
0
10
332.830332
20
132.483477
11
336.165115
21
133.192417
0
LINE
8
0
10
336.165115
20
133.192417
11
339.457344
21
134.075938
0
LINE
8
0
10
339.457344
20
134.075938
11
342.697483
21
135.133247
0
LINE
8
0
10
342.697483
20
135.133247
11
345.875996
21
136.363555
0
LINE
8
0
10
345.875996
20
136.363555
11
348.983347
21
137.766069
0
LINE
8
0
10
348.983347
20
137.766069
11
352.010000
21
139.340000
0
LINE
8
0
10
352.010000
20
139.340000
11
350.890313
21
135.993594
0
LINE
8
0
10
350.890313
20
135.993594
11
349.577500
21
132.721250
0
LINE
8
0
10
349.577500
20
132.721250
11
346.590000
21
126.320000
0
LINE
8
0
10
346.590000
20
126.320000
11
344.103379
21
121.645782
0
LINE
8
0
10
344.103379
20
121.645782
11
341.198281
21
117.248130
0
LINE
8
0
10
341.198281
20
117.248130
11
337.923105
21
113.119547
0
LINE
8
0
10
337.923105
20
113.119547
11
334.326250
21
109.252538
0
LINE
8
0
10
334.326250
20
109.252538
11
330.456113
21
105.639604
0
LINE
8
0
10
330.456113
20
105.639604
11
326.361094
21
102.273252
0
LINE
8
0
10
326.361094
20
102.273252
11
322.089590
21
99.145982
0
LINE
8
0
10
322.089590
20
99.145982
11
317.690000
21
96.250300
0
LINE
8
0
10
317.690000
20
96.250300
11
312.390137
21
93.352058
0
LINE
8
0
10
312.390137
20
93.352058
11
306.884844
21
90.813112
0
LINE
8
0
10
306.884844
20
90.813112
11
301.206816
21
88.675886
0
LINE
8
0
10
301.206816
20
88.675886
11
295.388750
21
86.982800
0
LINE
8
0
10
295.388750
20
86.982800
11
289.463340
21
85.776277
0
LINE
8
0
10
289.463340
20
85.776277
11
283.463281
21
85.098737
0
LINE
8
0
10
283.463281
20
85.098737
11
277.421270
21
84.992605
0
LINE
8
0
10
277.421270
20
84.992605
11
274.394749
21
85.167072
0
LINE
8
0
10
274.394749
20
85.167072
11
271.370000
21
85.500300
0
LINE
8
0
10
271.370000
20
85.500300
11
267.024316
21
86.305924
0
LINE
8
0
10
267.024316
20
86.305924
11
262.728906
21
87.447170
0
LINE
8
0
10
262.728906
20
87.447170
11
258.534980
21
88.934347
0
LINE
8
0
10
258.534980
20
88.934347
11
254.493750
21
90.777762
0
LINE
8
0
10
254.493750
20
90.777762
11
250.656426
21
92.987727
0
LINE
8
0
10
250.656426
20
92.987727
11
247.074219
21
95.574548
0
LINE
8
0
10
247.074219
20
95.574548
11
243.798340
21
98.548537
0
LINE
8
0
10
243.798340
20
98.548537
11
240.880000
21
101.920000
0
LINE
8
0
10
240.880000
20
101.920000
11
239.596050
21
103.550364
0
LINE
8
0
10
239.596050
20
103.550364
11
238.451523
21
105.253223
0
LINE
8
0
10
238.451523
20
105.253223
11
236.557187
21
108.849531
0
LINE
8
0
10
236.557187
20
108.849531
11
235.149883
21
112.655137
0
LINE
8
0
10
235.149883
20
112.655137
11
234.182500
21
116.616250
0
LINE
8
0
10
234.182500
20
116.616250
11
233.607930
21
120.679082
0
LINE
8
0
10
233.607930
20
120.679082
11
233.379063
21
124.789844
0
LINE
8
0
10
233.379063
20
124.789844
11
233.448789
21
128.894746
0
LINE
8
0
10
233.448789
20
128.894746
11
233.770000
21
132.940000
0
LINE
8
0
10
233.770000
20
132.940000
11
234.140137
21
135.486348
0
LINE
8
0
10
234.140137
20
135.486348
11
234.691094
21
137.984531
0
LINE
8
0
10
234.691094
20
137.984531
11
236.218750
21
142.861250
0
LINE
8
0
10
236.218750
20
142.861250
11
238.119531
21
147.619844
0
LINE
8
0
10
238.119531
20
147.619844
11
240.160000
21
152.310000
0
LINE
8
0
10
609.059000
20
87.110300
11
612.260348
21
81.253737
0
LINE
8
0
10
612.260348
20
81.253737
11
615.194156
21
75.174050
0
LINE
8
0
10
615.194156
20
75.174050
11
617.755074
21
68.904988
0
LINE
8
0
10
617.755074
20
68.904988
11
619.837750
21
62.480300
0
LINE
8
0
10
619.837750
20
62.480300
11
620.666825
21
59.220144
0
LINE
8
0
10
620.666825
20
59.220144
11
621.336832
21
55.933737
0
LINE
8
0
10
621.336832
20
55.933737
11
621.834603
21
52.625300
0
LINE
8
0
10
621.834603
20
52.625300
11
622.146969
21
49.299050
0
LINE
8
0
10
622.146969
20
49.299050
11
622.260760
21
45.959206
0
LINE
8
0
10
622.260760
20
45.959206
11
622.162809
21
42.609988
0
LINE
8
0
10
622.162809
20
42.609988
11
621.839945
21
39.255612
0
LINE
8
0
10
621.839945
20
39.255612
11
621.279000
21
35.900300
0
LINE
8
0
10
621.279000
20
35.900300
11
619.614469
21
30.078114
0
LINE
8
0
10
619.614469
20
30.078114
11
618.570738
21
27.217766
0
LINE
8
0
10
618.570738
20
27.217766
11
617.367750
21
24.422812
0
LINE
8
0
10
617.367750
20
24.422812
11
615.991793
21
21.716926
0
LINE
8
0
10
615.991793
20
21.716926
11
614.429156
21
19.123780
0
LINE
8
0
10
614.429156
20
19.123780
11
612.666129
21
16.667047
0
LINE
8
0
10
612.666129
20
16.667047
11
610.689000
21
14.370400
0
LINE
8
0
10
610.689000
20
14.370400
11
608.579903
21
12.538461
0
LINE
8
0
10
608.579903
20
12.538461
11
606.354820
21
10.870703
0
LINE
8
0
10
606.354820
20
10.870703
11
604.024562
21
9.366070
0
LINE
8
0
10
604.024562
20
9.366070
11
601.599938
21
8.023508
0
LINE
8
0
10
601.599938
20
8.023508
11
599.091759
21
6.841962
0
LINE
8
0
10
599.091759
20
6.841962
11
596.510836
21
5.820377
0
LINE
8
0
10
596.510836
20
5.820377
11
593.867979
21
4.957700
0
LINE
8
0
10
593.867979
20
4.957700
11
591.174000
21
4.252874
0
LINE
8
0
10
591.174000
20
4.252874
11
588.439708
21
3.704845
0
LINE
8
0
10
588.439708
20
3.704845
11
585.675914
21
3.312559
0
LINE
8
0
10
585.675914
20
3.312559
11
582.893429
21
3.074961
0
LINE
8
0
10
582.893429
20
3.074961
11
580.103063
21
2.990995
0
LINE
8
0
10
580.103063
20
2.990995
11
577.315626
21
3.059608
0
LINE
8
0
10
577.315626
20
3.059608
11
574.541930
21
3.279745
0
LINE
8
0
10
574.541930
20
3.279745
11
571.792784
21
3.650350
0
LINE
8
0
10
571.792784
20
3.650350
11
569.079000
21
4.170370
0
LINE
8
0
10
569.079000
20
4.170370
11
564.102359
21
5.382246
0
LINE
8
0
10
564.102359
20
5.382246
11
559.279000
21
7.032873
0
LINE
8
0
10
559.279000
20
7.032873
11
554.615016
21
9.080999
0
LINE
8
0
10
554.615016
20
9.080999
11
550.116500
21
11.485373
0
LINE
8
0
10
550.116500
20
11.485373
11
545.789547
21
14.204741
0
LINE
8
0
10
545.789547
20
14.204741
11
541.640250
21
17.197853
0
LINE
8
0
10
541.640250
20
17.197853
11
537.674703
21
20.423457
0
LINE
8
0
10
537.674703
20
20.423457
11
533.899000
21
23.840300
0
LINE
8
0
10
533.899000
20
23.840300
11
530.987594
21
26.958327
0
LINE
8
0
10
530.987594
20
26.958327
11
528.197125
21
30.192019
0
LINE
8
0
10
528.197125
20
30.192019
11
525.544469
21
33.540788
0
LINE
8
0
10
525.544469
20
33.540788
11
523.046500
21
37.004050
0
LINE
8
0
10
523.046500
20
37.004050
11
520.720094
21
40.581218
0
LINE
8
0
10
520.720094
20
40.581218
11
518.582125
21
44.271706
0
LINE
8
0
10
518.582125
20
44.271706
11
516.649469
21
48.074929
0
LINE
8
0
10
516.649469
20
48.074929
11
514.939000
21
51.990300
0
LINE
8
0
10
514.939000
20
51.990300
11
513.795621
21
55.144714
0
LINE
8
0
10
513.795621
20
55.144714
11
512.890719
21
58.359363
0
LINE
8
0
10
512.890719
20
58.359363
11
512.175895
21
61.621355
0
LINE
8
0
10
512.175895
20
61.621355
11
511.602750
21
64.917800
0
LINE
8
0
10
511.602750
20
64.917800
11
509.759000
21
78.190300
0
LINE
8
0
10
509.759000
20
78.190300
11
516.836500
21
72.419050
0
LINE
8
0
10
516.836500
20
72.419050
11
520.514000
21
69.726081
0
LINE
8
0
10
520.514000
20
69.726081
11
524.439000
21
67.390300
0
LINE
8
0
10
524.439000
20
67.390300
11
529.570035
21
64.770866
0
LINE
8
0
10
529.570035
20
64.770866
11
534.913531
21
62.649831
0
LINE
8
0
10
534.913531
20
62.649831
11
540.425074
21
61.026843
0
LINE
8
0
10
540.425074
20
61.026843
11
546.060250
21
59.901550
0
LINE
8
0
10
546.060250
20
59.901550
11
551.774645
21
59.273601
0
LINE
8
0
10
551.774645
20
59.273601
11
557.523844
21
59.142644
0
LINE
8
0
10
557.523844
20
59.142644
11
563.263434
21
59.508327
0
LINE
8
0
10
563.263434
20
59.508327
11
568.949000
21
60.370300
0
LINE
8
0
10
568.949000
20
60.370300
11
571.961356
21
61.062265
0
LINE
8
0
10
571.961356
20
61.062265
11
574.934410
21
61.901960
0
LINE
8
0
10
574.934410
20
61.901960
11
580.738531
21
64.009831
0
LINE
8
0
10
580.738531
20
64.009831
11
586.313199
21
66.664499
0
LINE
8
0
10
586.313199
20
66.664499
11
591.610250
21
69.836550
0
LINE
8
0
10
591.610250
20
69.836550
11
596.581520
21
73.496570
0
LINE
8
0
10
596.581520
20
73.496570
11
601.178844
21
77.615144
0
LINE
8
0
10
601.178844
20
77.615144
11
603.322225
21
79.837197
0
LINE
8
0
10
603.322225
20
79.837197
11
605.354059
21
82.162859
0
LINE
8
0
10
605.354059
20
82.162859
11
607.268324
21
84.588452
0
LINE
8
0
10
607.268324
20
84.588452
11
609.059000
21
87.110300
0
LINE
8
0
10
356.830000
20
48.990300
11
357.538613
21
53.875534
0
LINE
8
0
10
357.538613
20
53.875534
11
358.600781
21
58.677800
0
LINE
8
0
10
358.600781
20
58.677800
11
359.973496
21
63.399441
0
LINE
8
0
10
359.973496
20
63.399441
11
361.613750
21
68.042800
0
LINE
8
0
10
361.613750
20
68.042800
11
363.478535
21
72.610222
0
LINE
8
0
10
363.478535
20
72.610222
11
365.524844
21
77.104050
0
LINE
8
0
10
365.524844
20
77.104050
11
369.990000
21
85.880300
0
LINE
8
0
10
369.990000
20
85.880300
11
370.445000
21
84.490300
0
LINE
8
0
10
370.445000
20
84.490300
11
371.080000
21
83.160300
0
LINE
8
0
10
371.080000
20
83.160300
11
373.431231
21
80.139961
0
LINE
8
0
10
373.431231
20
80.139961
11
375.965680
21
77.271335
0
LINE
8
0
10
375.965680
20
77.271335
11
378.671351
21
74.561762
0
LINE
8
0
10
378.671351
20
74.561762
11
381.536250
21
72.018581
0
LINE
8
0
10
381.536250
20
72.018581
11
384.548384
21
69.649131
0
LINE
8
0
10
384.548384
20
69.649131
11
387.695758
21
67.460749
0
LINE
8
0
10
387.695758
20
67.460749
11
390.966378
21
65.460776
0
LINE
8
0
10
390.966378
20
65.460776
11
394.348250
21
63.656550
0
LINE
8
0
10
394.348250
20
63.656550
11
397.829380
21
62.055410
0
LINE
8
0
10
397.829380
20
62.055410
11
401.397773
21
60.664695
0
LINE
8
0
10
401.397773
20
60.664695
11
405.041437
21
59.491743
0
LINE
8
0
10
405.041437
20
59.491743
11
408.748375
21
58.543894
0
LINE
8
0
10
408.748375
20
58.543894
11
412.506595
21
57.828486
0
LINE
8
0
10
412.506595
20
57.828486
11
416.304102
21
57.352859
0
LINE
8
0
10
416.304102
20
57.352859
11
420.128901
21
57.124350
0
LINE
8
0
10
420.128901
20
57.124350
11
423.969000
21
57.150300
0
LINE
8
0
10
423.969000
20
57.150300
11
427.127938
21
57.211347
0
LINE
8
0
10
427.127938
20
57.211347
11
430.267379
21
57.450710
0
LINE
8
0
10
430.267379
20
57.450710
11
433.381888
21
57.862719
0
LINE
8
0
10
433.381888
20
57.862719
11
436.466031
21
58.441706
0
LINE
8
0
10
436.466031
20
58.441706
11
439.514374
21
59.182002
0
LINE
8
0
10
439.514374
20
59.182002
11
442.521480
21
60.077937
0
LINE
8
0
10
442.521480
20
60.077937
11
445.481917
21
61.123842
0
LINE
8
0
10
445.481917
20
61.123842
11
448.390250
21
62.314050
0
LINE
8
0
10
448.390250
20
62.314050
11
454.028863
21
65.104695
0
LINE
8
0
10
454.028863
20
65.104695
11
459.393844
21
68.404519
0
LINE
8
0
10
459.393844
20
68.404519
11
464.441715
21
72.168171
0
LINE
8
0
10
464.441715
20
72.168171
11
469.129000
21
76.350300
0
LINE
8
0
10
469.129000
20
76.350300
11
468.115250
21
68.950456
0
LINE
8
0
10
468.115250
20
68.950456
11
467.049000
21
61.529050
0
LINE
8
0
10
467.049000
20
61.529050
11
466.339156
21
57.860945
0
LINE
8
0
10
466.339156
20
57.860945
11
465.427750
21
54.248269
0
LINE
8
0
10
465.427750
20
54.248269
11
464.251969
21
50.711296
0
LINE
8
0
10
464.251969
20
50.711296
11
462.749000
21
47.270300
0
LINE
8
0
10
462.749000
20
47.270300
11
460.585504
21
42.929929
0
LINE
8
0
10
460.585504
20
42.929929
11
458.198531
21
38.703583
0
LINE
8
0
10
458.198531
20
38.703583
11
455.589605
21
34.609661
0
LINE
8
0
10
455.589605
20
34.609661
11
452.760250
21
30.666562
0
LINE
8
0
10
452.760250
20
30.666562
11
449.711988
21
26.892688
0
LINE
8
0
10
449.711988
20
26.892688
11
446.446344
21
23.306436
0
LINE
8
0
10
446.446344
20
23.306436
11
442.964840
21
19.926207
0
LINE
8
0
10
442.964840
20
19.926207
11
439.269000
21
16.770400
0
LINE
8
0
10
439.269000
20
16.770400
11
434.923473
21
13.386969
0
LINE
8
0
10
434.923473
20
13.386969
11
430.321656
21
10.331785
0
LINE
8
0
10
430.321656
20
10.331785
11
425.493199
21
7.638713
0
LINE
8
0
10
425.493199
20
7.638713
11
420.467750
21
5.341620
0
LINE
8
0
10
420.467750
20
5.341620
11
415.274957
21
3.474374
0
LINE
8
0
10
415.274957
20
3.474374
11
409.944469
21
2.070839
0
LINE
8
0
10
409.944469
20
2.070839
11
404.505934
21
1.164883
0
LINE
8
0
10
404.505934
20
1.164883
11
398.989000
21
0.790373
0
LINE
8
0
10
398.989000
20
0.790373
11
394.907455
21
1.044005
0
LINE
8
0
10
394.907455
20
1.044005
11
390.827703
21
1.583809
0
LINE
8
0
10
390.827703
20
1.583809
11
386.791943
21
2.426896
0
LINE
8
0
10
386.791943
20
2.426896
11
382.842375
21
3.590374
0
LINE
8
0
10
382.842375
20
3.590374
11
379.021197
21
5.091354
0
LINE
8
0
10
379.021197
20
5.091354
11
375.370609
21
6.946945
0
LINE
8
0
10
375.370609
20
6.946945
11
371.932811
21
9.174257
0
LINE
8
0
10
371.932811
20
9.174257
11
368.750000
21
11.790400
0
LINE
8
0
10
368.750000
20
11.790400
11
367.055415
21
13.664503
0
LINE
8
0
10
367.055415
20
13.664503
11
365.492227
21
15.636461
0
LINE
8
0
10
365.492227
20
15.636461
11
364.059409
21
17.698186
0
LINE
8
0
10
364.059409
20
17.698186
11
362.755938
21
19.841592
0
LINE
8
0
10
362.755938
20
19.841592
11
360.532930
21
24.341106
0
LINE
8
0
10
360.532930
20
24.341106
11
358.815000
21
29.070312
0
LINE
8
0
10
358.815000
20
29.070312
11
357.593945
21
33.964524
0
LINE
8
0
10
357.593945
20
33.964524
11
356.861562
21
38.959052
0
LINE
8
0
10
356.861562
20
38.959052
11
356.609648
21
43.989206
0
LINE
8
0
10
356.609648
20
43.989206
11
356.830000
21
48.990300
 0 
ENDSEC
 0 
EOF