<?xml version="1.0" encoding="UTF-8" standalone="no"?>
<svg
   viewBox="0 0 957 1045"
   version="1.1"
   id="svg58"
   sodipodi:docname="baby-fox-bw.svg"
   inkscape:version="1.2.2 (732a01da63, 2022-12-09)"
   xmlns:inkscape="http://www.inkscape.org/namespaces/inkscape"
   xmlns:sodipodi="http://sodipodi.sourceforge.net/DTD/sodipodi-0.dtd"
   xmlns="http://www.w3.org/2000/svg"
   xmlns:svg="http://www.w3.org/2000/svg"
   xmlns:rdf="http://www.w3.org/1999/02/22-rdf-syntax-ns#"
   xmlns:cc="http://creativecommons.org/ns#"
   xmlns:dc="http://purl.org/dc/elements/1.1/">
  <defs
     id="defs62" />
  <sodipodi:namedview
     id="namedview60"
     pagecolor="#ffffff"
     bordercolor="#000000"
     borderopacity="0.25"
     inkscape:showpageshadow="2"
     inkscape:pageopacity="0.0"
     inkscape:pagecheckerboard="0"
     inkscape:deskcolor="#d1d1d1"
     showgrid="false"
     inkscape:zoom="0.98277512"
     inkscape:cx="315.94206"
     inkscape:cy="521.99124"
     inkscape:window-width="3440"
     inkscape:window-height="1369"
     inkscape:window-x="-8"
     inkscape:window-y="-8"
     inkscape:window-maximized="1"
     inkscape:current-layer="svg58" />
  <path
     fill="#ffffff"
     d=" M 0.00 0.00 L 437.59 0.00 C 434.01 0.67 430.44 1.41 426.84 1.96 C 392.77 5.72 359.07 13.47 327.18 26.12 C 286.71 41.85 249.44 65.06 216.02 92.65 C 195.13 80.91 172.57 72.53 149.94 64.85 C 135.94 55.81 120.52 49.26 104.87 43.64 C 84.16 36.32 62.81 30.57 40.98 27.80 C 33.69 27.12 26.33 26.98 19.03 27.44 C 14.51 27.96 9.64 29.02 6.23 32.25 C 3.59 34.78 2.41 38.33 1.51 41.77 C 1.13 42.41 0.38 43.68 0.00 44.32 L 0.00 0.00 Z"
     id="path2" />
  <path
     fill="#ffdfd3"
     d=" M 437.59 0.00 L 454.31 0.00 C 445.15 0.55 436.01 1.43 426.84 1.96 C 430.44 1.41 434.01 0.67 437.59 0.00 Z"
     id="path4" />
  <path
     fill="#ff6932"
     d=" M 454.31 0.00 L 508.74 0.00 C 551.01 1.92 593.16 9.86 632.67 25.20 C 671.51 40.03 707.54 61.68 739.96 87.61 C 760.45 77.10 782.19 69.35 803.98 62.06 C 825.97 55.62 848.28 50.01 871.02 47.00 C 883.14 45.70 895.49 44.50 907.59 46.68 C 913.37 47.80 919.61 49.70 923.35 54.56 C 928.00 60.65 928.95 68.58 929.29 75.99 C 928.55 105.28 917.82 132.94 908.12 160.19 C 904.19 168.04 901.15 176.30 897.36 184.22 C 889.98 199.81 882.45 215.41 872.93 229.83 C 871.81 231.09 872.27 232.59 873.31 233.72 C 894.00 262.27 913.65 291.54 933.07 320.97 C 942.13 334.06 949.71 348.37 953.55 363.91 C 958.68 382.86 957.37 403.11 951.44 421.72 C 951.23 422.18 950.83 423.10 950.63 423.56 C 947.71 424.07 944.81 424.61 941.92 425.17 C 941.46 424.74 940.55 423.89 940.10 423.46 C 904.65 429.62 870.47 441.14 836.00 451.15 C 791.06 464.63 746.09 478.10 700.52 489.33 C 626.77 507.50 551.23 520.87 475.04 520.38 C 425.70 520.62 376.49 514.85 328.02 505.89 C 260.62 493.62 194.69 474.66 129.13 455.02 C 103.07 447.23 77.08 439.22 50.84 432.08 C 37.76 428.55 24.53 425.57 11.17 423.25 C 5.25 404.86 3.56 384.92 8.10 366.03 C 11.56 351.47 17.94 337.68 26.30 325.30 C 45.07 296.54 64.47 268.18 84.14 240.03 C 77.24 234.62 73.02 226.78 68.64 219.36 C 59.80 203.70 52.09 187.43 44.93 170.94 C 42.81 166.22 41.20 161.28 38.82 156.67 C 34.07 143.18 29.13 129.72 25.53 115.86 C 21.67 101.31 18.50 86.26 19.74 71.12 C 20.65 63.17 23.74 54.34 31.50 50.70 C 40.99 46.44 51.71 46.32 61.93 46.65 C 91.95 48.49 121.30 56.00 149.94 64.85 C 172.57 72.53 195.13 80.91 216.02 92.65 C 249.44 65.06 286.71 41.85 327.18 26.12 C 359.07 13.47 392.77 5.72 426.84 1.96 C 436.01 1.43 445.15 0.55 454.31 0.00 Z"
     id="path6"
     style="stroke:#000000;stroke-opacity:1;fill:none;stroke-width:5;stroke-dasharray:none" />
  <path
     fill="#ffffff"
     d=" M 508.74 0.00 L 957.00 0.00 L 957.00 1045.00 L 0.00 1045.00 L 0.00 55.31 C 1.81 63.32 2.30 71.76 5.82 79.30 C 13.37 105.12 24.27 129.88 37.25 153.41 C 37.13 154.75 37.60 156.03 38.82 156.67 C 41.20 161.28 42.81 166.22 44.93 170.94 C 52.09 187.43 59.80 203.70 68.64 219.36 C 73.02 226.78 77.24 234.62 84.14 240.03 C 64.47 268.18 45.07 296.54 26.30 325.30 C 17.94 337.68 11.56 351.47 8.10 366.03 C 3.56 384.92 5.25 404.86 11.17 423.25 C 12.74 429.63 15.75 435.50 18.59 441.37 C 29.74 462.80 45.64 481.40 63.32 497.70 C 91.05 523.05 122.93 543.45 156.06 560.99 C 209.99 589.28 267.68 610.07 326.69 624.89 C 324.07 632.63 321.39 640.34 318.98 648.15 C 305.23 650.59 294.96 661.05 286.04 671.03 C 273.71 685.97 263.78 702.84 256.19 720.65 C 235.87 715.73 214.35 719.26 195.46 727.68 C 179.58 735.61 168.21 749.67 154.57 760.61 C 143.28 769.84 129.44 776.74 114.66 777.41 C 100.73 773.36 87.87 765.72 77.66 755.41 C 63.78 741.79 55.16 723.22 52.76 703.99 C 52.19 701.47 52.36 698.25 50.01 696.63 C 46.72 696.62 46.23 700.42 45.67 702.86 C 40.46 727.94 37.01 753.41 35.78 779.00 C 35.37 797.96 35.33 817.75 43.19 835.41 C 47.84 849.85 56.44 863.18 68.37 872.65 C 84.25 886.04 104.09 893.45 123.89 898.88 C 161.79 909.95 203.87 908.88 240.16 892.69 C 237.45 898.92 234.49 905.20 233.77 912.06 C 232.62 922.72 233.65 934.59 240.88 943.08 C 248.14 952.61 259.76 957.79 271.37 959.50 C 287.49 961.71 303.86 956.92 317.69 948.75 C 329.55 941.33 340.56 931.52 346.59 918.68 C 348.67 914.45 350.67 910.18 352.01 905.66 C 357.69 895.11 363.17 884.42 367.40 873.20 C 367.62 872.63 368.06 871.50 368.28 870.93 C 377.66 873.97 386.79 877.86 396.46 880.00 C 395.31 891.11 394.68 902.41 391.42 913.16 C 386.33 929.35 377.56 944.02 369.99 959.12 C 363.82 970.64 358.21 982.87 356.83 996.01 C 355.62 1009.25 359.36 1023.49 368.75 1033.21 C 376.86 1040.72 388.14 1043.90 398.99 1044.21 C 413.78 1043.95 428.05 1037.66 439.27 1028.23 C 449.41 1020.13 457.28 1009.44 462.75 997.73 C 467.25 988.70 467.59 978.43 469.13 968.65 C 472.63 953.29 475.09 937.66 475.64 921.89 C 475.88 911.10 475.91 900.30 475.38 889.52 C 484.78 889.53 494.15 888.81 503.53 888.26 C 502.01 914.55 503.39 941.17 509.76 966.81 C 511.18 975.59 511.53 984.69 514.94 993.01 C 519.19 1003.60 525.99 1013.00 533.90 1021.16 C 543.71 1030.49 555.61 1038.22 569.08 1040.83 C 583.44 1044.00 599.77 1040.84 610.69 1030.63 C 616.26 1024.74 619.40 1016.89 621.28 1009.10 C 624.93 991.21 617.86 973.18 609.06 957.89 C 600.37 940.32 589.65 923.31 585.50 903.92 C 583.74 892.98 582.38 881.95 582.06 870.88 C 588.09 868.41 594.14 865.96 600.02 863.14 C 600.26 863.25 600.75 863.49 601.00 863.60 C 605.65 876.68 611.70 889.22 618.60 901.25 C 621.51 907.91 624.52 914.57 628.24 920.82 C 637.43 934.11 650.93 944.16 665.86 950.18 C 676.80 954.36 688.81 956.64 700.48 954.64 C 712.40 953.02 723.74 946.69 731.14 937.16 C 737.62 928.56 738.52 917.12 737.28 906.77 C 734.50 889.70 723.17 875.54 711.00 863.92 C 703.16 856.46 695.99 848.34 688.52 840.52 C 686.97 838.97 685.72 837.17 684.73 835.23 C 696.46 827.07 705.87 815.83 712.41 803.16 C 719.35 789.28 722.16 773.32 719.97 757.93 C 717.55 741.31 711.78 725.36 704.73 710.19 C 696.80 693.41 686.88 677.45 674.42 663.65 C 667.76 656.70 660.31 649.99 651.16 646.59 C 650.14 646.22 649.13 645.86 648.12 645.51 C 645.48 638.40 642.97 631.24 640.37 624.12 C 643.82 622.80 647.40 621.86 651.00 620.99 C 690.94 610.27 730.10 596.60 767.93 579.90 C 797.53 566.54 826.50 551.57 853.47 533.41 C 876.46 518.34 898.12 501.00 916.65 480.62 C 929.03 467.16 939.63 451.96 947.39 435.37 C 949.25 431.00 951.77 426.63 951.44 421.72 C 957.37 403.11 958.68 382.86 953.55 363.91 C 949.71 348.37 942.13 334.06 933.07 320.97 C 913.65 291.54 894.00 262.27 873.31 233.72 C 872.27 232.59 871.81 231.09 872.93 229.83 C 882.45 215.41 889.98 199.81 897.36 184.22 C 901.15 176.30 904.19 168.04 908.12 160.19 C 917.69 145.23 925.19 129.05 932.10 112.73 C 939.22 95.07 945.70 76.92 948.31 57.98 C 948.83 49.78 949.84 40.45 944.57 33.47 C 939.61 27.48 931.12 27.53 924.02 26.91 C 908.13 27.01 892.42 30.08 877.02 33.85 C 851.74 40.45 826.73 49.05 803.98 62.06 C 782.19 69.35 760.45 77.10 739.96 87.61 C 707.54 61.68 671.51 40.03 632.67 25.20 C 593.16 9.86 551.01 1.92 508.74 0.00 Z"
     id="path8" />
  <path
     fill="#583d00"
     d=" M 877.02 33.85 C 892.42 30.08 908.13 27.01 924.02 26.91 C 931.12 27.53 939.61 27.48 944.57 33.47 C 949.84 40.45 948.83 49.78 948.31 57.98 C 945.70 76.92 939.22 95.07 932.10 112.73 C 925.19 129.05 917.69 145.23 908.12 160.19 C 917.82 132.94 928.55 105.28 929.29 75.99 C 928.95 68.58 928.00 60.65 923.35 54.56 C 919.61 49.70 913.37 47.80 907.59 46.68 C 895.49 44.50 883.14 45.70 871.02 47.00 C 848.28 50.01 825.97 55.62 803.98 62.06 C 826.73 49.05 851.74 40.45 877.02 33.85 Z"
     id="path10"
     style="fill:#000000;fill-opacity:1" />
  <path
     fill="#583d00"
     d=" M 6.23 32.25 C 9.64 29.02 14.51 27.96 19.03 27.44 C 26.33 26.98 33.69 27.12 40.98 27.80 C 62.81 30.57 84.16 36.32 104.87 43.64 C 120.52 49.26 135.94 55.81 149.94 64.85 C 121.30 56.00 91.95 48.49 61.93 46.65 C 51.71 46.32 40.99 46.44 31.50 50.70 C 23.74 54.34 20.65 63.17 19.74 71.12 C 18.50 86.26 21.67 101.31 25.53 115.86 C 29.13 129.72 34.07 143.18 38.82 156.67 C 37.60 156.03 37.13 154.75 37.25 153.41 C 24.27 129.88 13.37 105.12 5.82 79.30 C 3.02 67.00 0.11 54.49 1.51 41.77 C 2.41 38.33 3.59 34.78 6.23 32.25 Z"
     id="path12"
     style="fill:#000000;fill-opacity:1" />
  <path
     fill="#d5cebf"
     d=" M 1.51 41.77 C 0.11 54.49 3.02 67.00 5.82 79.30 C 2.30 71.76 1.81 63.32 0.00 55.31 L 0.00 44.32 C 0.38 43.68 1.13 42.41 1.51 41.77 Z"
     id="path14" />
  <path
     fill="#ffc37e"
     d=" M 842.50 94.76 C 850.34 94.18 858.76 93.21 866.08 96.77 C 871.89 99.44 876.93 105.26 876.52 112.00 C 876.04 122.49 870.86 131.95 865.73 140.84 C 861.11 148.77 855.87 156.32 851.22 164.23 C 847.14 170.84 842.43 177.47 835.51 181.36 C 834.42 182.19 833.11 181.70 832.47 180.62 C 816.58 161.28 799.78 142.68 782.04 125.02 C 780.85 124.27 781.00 122.79 782.16 122.09 C 795.91 110.85 812.21 103.08 829.06 97.72 C 833.51 96.60 837.94 95.38 842.50 94.76 Z"
     id="path16"
     style="fill:#000000;fill-opacity:1" />
  <path
     fill="#ffc37e"
     d=" M 96.35 104.59 C 114.88 102.35 133.03 108.79 149.52 116.60 C 157.58 120.46 165.22 125.23 172.23 130.78 C 173.68 131.58 172.35 132.90 171.65 133.65 C 154.36 151.48 137.94 170.15 122.49 189.59 C 121.78 190.94 119.99 191.25 118.83 190.28 C 113.03 186.42 108.81 180.69 105.18 174.85 C 97.51 161.84 88.40 149.58 82.49 135.61 C 80.44 129.27 77.90 122.20 80.62 115.66 C 83.33 109.39 89.94 105.91 96.35 104.59 Z"
     id="path18"
     style="fill:#000000;fill-opacity:1" />
  <path
     fill="#ffffff"
     d=" M 234.08 384.21 C 248.51 381.79 263.83 389.98 270.11 403.15 C 274.81 412.03 274.51 422.71 271.15 431.98 C 272.54 425.07 272.42 417.45 268.82 411.20 C 263.90 401.82 253.14 396.01 242.60 396.95 C 228.94 397.82 217.23 410.27 217.52 424.02 C 217.05 435.51 224.95 446.57 235.81 450.17 C 241.36 451.95 247.49 452.17 253.06 450.34 C 244.43 454.07 234.29 454.29 225.65 450.45 C 217.56 447.11 210.98 440.47 207.36 432.53 C 203.78 424.36 203.53 414.80 206.59 406.43 C 210.91 394.84 221.76 385.86 234.08 384.21 Z"
     id="path20" />
  <path
     fill="#ffffff"
     d=" M 715.99 384.20 C 730.15 381.85 745.11 389.69 751.63 402.40 C 757.53 413.36 756.79 427.50 749.77 437.77 C 741.46 450.48 724.12 456.82 709.80 451.19 C 716.27 452.23 723.14 451.34 728.85 448.00 C 738.17 442.75 743.78 431.71 742.38 421.08 C 741.18 409.00 731.04 398.58 718.98 397.16 C 705.80 395.00 692.09 404.16 688.85 417.09 C 687.79 421.32 688.04 425.75 688.42 430.06 C 685.65 422.34 685.66 413.60 688.69 405.96 C 693.04 394.54 703.86 385.84 715.99 384.20 Z"
     id="path22" />
  <path
     fill="#553018"
     d=" M 242.60 396.95 C 253.14 396.01 263.90 401.82 268.82 411.20 C 272.42 417.45 272.54 425.07 271.15 431.98 C 268.32 440.47 261.66 447.61 253.06 450.34 C 247.49 452.17 241.36 451.95 235.81 450.17 C 224.95 446.57 217.05 435.51 217.52 424.02 C 217.23 410.27 228.94 397.82 242.60 396.95 Z"
     id="path24"
     style="fill:#000000;fill-opacity:1" />
  <path
     fill="#553018"
     d=" M 688.85 417.09 C 692.09 404.16 705.80 395.00 718.98 397.16 C 731.04 398.58 741.18 409.00 742.38 421.08 C 743.78 431.71 738.17 442.75 728.85 448.00 C 723.14 451.34 716.27 452.23 709.80 451.19 C 699.35 448.95 690.74 440.50 688.42 430.06 C 688.04 425.75 687.79 421.32 688.85 417.09 Z"
     id="path26"
     style="fill:#000000;fill-opacity:1" />
  <path
     fill="#995c3c"
     d=" M 252.32 413.36 C 257.69 411.51 263.16 417.71 260.67 422.78 C 259.04 427.34 252.24 428.60 249.12 424.89 C 245.46 421.46 247.29 414.34 252.32 413.36 Z"
     id="path28"
     style="fill:#ffffff;fill-opacity:1" />
  <path
     fill="#995c3c"
     d=" M 722.37 413.39 C 726.65 411.94 731.83 415.28 731.56 419.97 C 732.08 425.55 724.64 429.29 720.41 425.68 C 715.84 422.72 717.24 414.87 722.37 413.39 Z"
     id="path30"
     style="fill:#ffffff;fill-opacity:1" />
  <path
     fill="#f5e8bb"
     d=" M 950.63 423.56 C 950.83 423.10 951.23 422.18 951.44 421.72 C 951.77 426.63 949.25 431.00 947.39 435.37 C 939.63 451.96 929.03 467.16 916.65 480.62 C 898.12 501.00 876.46 518.34 853.47 533.41 C 826.50 551.57 797.53 566.54 767.93 579.90 C 730.10 596.60 690.94 610.27 651.00 620.99 C 647.40 621.86 643.82 622.80 640.37 624.12 C 634.43 624.75 628.80 626.80 622.98 628.00 C 578.32 638.08 532.76 645.05 486.96 646.20 C 481.90 645.11 476.82 647.21 471.77 645.99 C 473.35 645.17 475.54 644.29 475.00 642.06 C 474.95 623.72 475.02 605.38 474.94 587.04 C 492.59 589.81 510.34 578.42 517.79 562.69 C 520.46 557.53 520.79 550.69 516.84 546.08 C 511.02 538.81 501.66 535.56 492.80 533.83 C 485.92 532.48 478.86 532.32 471.89 532.94 C 473.04 532.18 475.06 531.80 474.89 530.03 C 475.15 526.81 475.00 523.59 475.04 520.38 C 551.23 520.87 626.77 507.50 700.52 489.33 C 746.09 478.10 791.06 464.63 836.00 451.15 C 870.47 441.14 904.65 429.62 940.10 423.46 C 940.55 423.89 941.46 424.74 941.92 425.17 C 944.81 424.61 947.71 424.07 950.63 423.56 Z"
     id="path32"
     style="fill:none;stroke:#000000;stroke-opacity:1;stroke-width:4;stroke-dasharray:none" />
  <path
     fill="#fbeebe"
     d=" M 11.17 423.25 C 24.53 425.57 37.76 428.55 50.84 432.08 C 77.08 439.22 103.07 447.23 129.13 455.02 C 194.69 474.66 260.62 493.62 328.02 505.89 C 376.49 514.85 425.70 520.62 475.04 520.38 C 475.00 523.59 475.15 526.81 474.89 530.03 C 475.06 531.80 473.04 532.18 471.89 532.94 C 461.32 534.32 449.94 537.20 442.61 545.48 C 438.05 550.34 438.50 557.87 441.75 563.30 C 448.63 575.51 461.11 584.58 474.94 587.04 C 475.02 605.38 474.95 623.72 475.00 642.06 C 475.54 644.29 473.35 645.17 471.77 645.99 C 422.80 644.56 374.29 636.13 326.69 624.89 C 267.68 610.07 209.99 589.28 156.06 560.99 C 122.93 543.45 91.05 523.05 63.32 497.70 C 45.64 481.40 29.74 462.80 18.59 441.37 C 15.75 435.50 12.74 429.63 11.17 423.25 Z"
     id="path34"
     style="fill:none;stroke:#000000;stroke-opacity:1;stroke-width:4;stroke-dasharray:none" />
  <path
     fill="#553018"
     d=" M 442.61 545.48 C 449.94 537.20 461.32 534.32 471.89 532.94 C 478.86 532.32 485.92 532.48 492.80 533.83 C 501.66 535.56 511.02 538.81 516.84 546.08 C 520.79 550.69 520.46 557.53 517.79 562.69 C 510.34 578.42 492.59 589.81 474.94 587.04 C 461.11 584.58 448.63 575.51 441.75 563.30 C 438.50 557.87 438.05 550.34 442.61 545.48 Z"
     id="path36"
     style="fill:#000000;fill-opacity:1" />
  <path
     fill="#ff6932"
     d=" M 622.98 628.00 C 628.80 626.80 634.43 624.75 640.37 624.12 C 642.97 631.24 645.48 638.40 648.12 645.51 C 649.13 645.86 650.14 646.22 651.16 646.59 C 650.55 646.67 649.34 646.84 648.73 646.92 C 659.26 679.88 669.43 713.31 672.66 747.92 C 674.61 766.69 672.05 786.06 664.23 803.32 C 652.90 827.57 631.97 846.07 608.71 858.61 C 605.93 859.91 603.15 861.35 601.00 863.60 C 600.75 863.49 600.26 863.25 600.02 863.14 C 594.14 865.96 588.09 868.41 582.06 870.88 C 582.38 881.95 583.74 892.98 585.50 903.92 C 589.65 923.31 600.37 940.32 609.06 957.89 C 599.85 971.59 585.11 981.34 568.95 984.63 C 553.90 987.59 537.80 985.26 524.44 977.61 C 518.99 974.81 514.51 970.60 509.76 966.81 C 503.39 941.17 502.01 914.55 503.53 888.26 C 494.15 888.81 484.78 889.53 475.38 889.52 C 475.91 900.30 475.88 911.10 475.64 921.89 C 475.09 937.66 472.63 953.29 469.13 968.65 C 457.15 980.32 440.86 988.01 423.97 987.85 C 403.47 988.68 383.11 978.34 371.08 961.84 C 370.60 960.97 370.23 960.07 369.99 959.12 C 377.56 944.02 386.33 929.35 391.42 913.16 C 394.68 902.41 395.31 891.11 396.46 880.00 C 386.79 877.86 377.66 873.97 368.28 870.93 C 368.06 871.50 367.62 872.63 367.40 873.20 C 367.34 872.41 367.22 870.84 367.15 870.05 C 351.16 863.11 335.88 853.86 323.71 841.24 C 309.53 826.80 299.92 807.95 296.82 787.93 C 294.71 777.11 295.02 766.03 295.53 755.08 C 298.87 718.63 308.32 683.07 318.98 648.15 C 321.39 640.34 324.07 632.63 326.69 624.89 C 374.29 636.13 422.80 644.56 471.77 645.99 C 476.82 647.21 481.90 645.11 486.96 646.20 C 532.76 645.05 578.32 638.08 622.98 628.00 Z"
     id="path38"
     style="fill:none;fill-opacity:1;stroke:#000000;stroke-opacity:1;stroke-width:4;stroke-dasharray:none" />
  <path
     fill="#fe480a"
     d=" M 648.73 646.92 C 649.34 646.84 650.55 646.67 651.16 646.59 C 660.31 649.99 667.76 656.70 674.42 663.65 C 686.88 677.45 696.80 693.41 704.73 710.19 C 711.78 725.36 717.55 741.31 719.97 757.93 C 722.16 773.32 719.35 789.28 712.41 803.16 C 705.87 815.83 696.46 827.07 684.73 835.23 C 685.72 837.17 686.97 838.97 688.52 840.52 C 695.99 848.34 703.16 856.46 711.00 863.92 C 703.92 890.65 676.52 909.90 649.04 908.76 C 638.38 909.10 628.23 905.40 618.60 901.25 C 611.70 889.22 605.65 876.68 601.00 863.60 C 603.15 861.35 605.93 859.91 608.71 858.61 C 631.97 846.07 652.90 827.57 664.23 803.32 C 672.05 786.06 674.61 766.69 672.66 747.92 C 669.43 713.31 659.26 679.88 648.73 646.92 Z"
     id="path40"
     style="fill:none;stroke:#000000;stroke-opacity:1;stroke-width:4;stroke-dasharray:none" />
  <path
     fill="#fe480a"
     d=" M 286.04 671.03 C 294.96 661.05 305.23 650.59 318.98 648.15 C 308.32 683.07 298.87 718.63 295.53 755.08 C 295.02 766.03 294.71 777.11 296.82 787.93 C 299.92 807.95 309.53 826.80 323.71 841.24 C 335.88 853.86 351.16 863.11 367.15 870.05 C 367.22 870.84 367.34 872.41 367.40 873.20 C 363.17 884.42 357.69 895.11 352.01 905.66 C 336.10 914.51 316.34 916.08 299.24 909.83 C 280.68 903.31 265.69 887.72 259.76 868.97 C 262.87 865.67 265.95 862.34 268.97 858.95 C 273.98 853.15 280.04 848.28 284.39 841.90 C 274.77 835.29 265.65 827.70 259.02 817.99 C 248.66 803.96 242.84 786.48 243.60 768.99 C 244.32 752.19 249.90 736.08 256.19 720.65 C 263.78 702.84 273.71 685.97 286.04 671.03 Z"
     id="path42"
     style="fill:none;stroke:#000000;stroke-opacity:1;stroke-width:4;stroke-dasharray:none" />
  <path
     fill="#fbeebe"
     d=" M 45.67 702.86 C 46.23 700.42 46.72 696.62 50.01 696.63 C 52.36 698.25 52.19 701.47 52.76 703.99 C 55.16 723.22 63.78 741.79 77.66 755.41 C 87.87 765.72 100.73 773.36 114.66 777.41 C 116.51 777.94 118.36 778.45 120.23 778.92 C 120.47 789.25 118.68 799.81 114.06 809.11 C 108.10 820.81 99.35 831.03 88.98 839.04 C 81.77 844.27 73.18 848.69 64.02 848.06 C 55.22 847.46 47.62 841.61 43.04 834.34 C 43.08 834.60 43.15 835.14 43.19 835.41 C 35.33 817.75 35.37 797.96 35.78 779.00 C 37.01 753.41 40.46 727.94 45.67 702.86 Z"
     id="path44"
     style="fill:#000000;fill-opacity:1" />
  <path
     fill="#ff6932"
     d=" M 195.46 727.68 C 214.35 719.26 235.87 715.73 256.19 720.65 C 249.90 736.08 244.32 752.19 243.60 768.99 C 242.84 786.48 248.66 803.96 259.02 817.99 C 265.65 827.70 274.77 835.29 284.39 841.90 C 280.04 848.28 273.98 853.15 268.97 858.95 C 265.95 862.34 262.87 865.67 259.76 868.97 C 252.17 875.93 245.79 884.08 240.16 892.69 C 203.87 908.88 161.79 909.95 123.89 898.88 C 104.09 893.45 84.25 886.04 68.37 872.65 C 56.44 863.18 47.84 849.85 43.19 835.41 C 43.15 835.14 43.08 834.60 43.04 834.34 C 47.62 841.61 55.22 847.46 64.02 848.06 C 73.18 848.69 81.77 844.27 88.98 839.04 C 99.35 831.03 108.10 820.81 114.06 809.11 C 118.68 799.81 120.47 789.25 120.23 778.92 C 118.36 778.45 116.51 777.94 114.66 777.41 C 129.44 776.74 143.28 769.84 154.57 760.61 C 168.21 749.67 179.58 735.61 195.46 727.68 Z"
     id="path46"
     style="fill:none;stroke:#000000;stroke-opacity:1;stroke-width:4;stroke-dasharray:none" />
  <path
     fill="#f1e3b0"
     d=" M 711.00 863.92 C 723.17 875.54 734.50 889.70 737.28 906.77 C 738.52 917.12 737.62 928.56 731.14 937.16 C 723.74 946.69 712.40 953.02 700.48 954.64 C 688.81 956.64 676.80 954.36 665.86 950.18 C 650.93 944.16 637.43 934.11 628.24 920.82 C 624.52 914.57 621.51 907.91 618.60 901.25 C 628.23 905.40 638.38 909.10 649.04 908.76 C 676.52 909.90 703.92 890.65 711.00 863.92 Z"
     id="path48"
     style="fill:#000000;fill-opacity:1" />
  <path
     fill="#f1e3b0"
     d=" M 240.16 892.69 C 245.79 884.08 252.17 875.93 259.76 868.97 C 265.69 887.72 280.68 903.31 299.24 909.83 C 316.34 916.08 336.10 914.51 352.01 905.66 C 350.67 910.18 348.67 914.45 346.59 918.68 C 340.56 931.52 329.55 941.33 317.69 948.75 C 303.86 956.92 287.49 961.71 271.37 959.50 C 259.76 957.79 248.14 952.61 240.88 943.08 C 233.65 934.59 232.62 922.72 233.77 912.06 C 234.49 905.20 237.45 898.92 240.16 892.69 Z"
     id="path50"
     style="fill:#000000;fill-opacity:1" />
  <path
     fill="#fbeebe"
     d=" M 609.06 957.89 C 617.86 973.18 624.93 991.21 621.28 1009.10 C 619.40 1016.89 616.26 1024.74 610.69 1030.63 C 599.77 1040.84 583.44 1044.00 569.08 1040.83 C 555.61 1038.22 543.71 1030.49 533.90 1021.16 C 525.99 1013.00 519.19 1003.60 514.94 993.01 C 511.53 984.69 511.18 975.59 509.76 966.81 C 514.51 970.60 518.99 974.81 524.44 977.61 C 537.80 985.26 553.90 987.59 568.95 984.63 C 585.11 981.34 599.85 971.59 609.06 957.89 Z"
     id="path52"
     style="fill:#000000;fill-opacity:1" />
  <path
     fill="#fbeebe"
     d=" M 356.83 996.01 C 358.21 982.87 363.82 970.64 369.99 959.12 C 370.23 960.07 370.60 960.97 371.08 961.84 C 383.11 978.34 403.47 988.68 423.97 987.85 C 440.86 988.01 457.15 980.32 469.13 968.65 C 467.59 978.43 467.25 988.70 462.75 997.73 C 457.28 1009.44 449.41 1020.13 439.27 1028.23 C 428.05 1037.66 413.78 1043.95 398.99 1044.21 C 388.14 1043.90 376.86 1040.72 368.75 1033.21 C 359.36 1023.49 355.62 1009.25 356.83 996.01 Z"
     id="path54"
     style="fill:#000000;fill-opacity:1" />
  <metadata
     id="metadata56">
    <rdf:RDF>
      <cc:Work>
        <dc:format>image/svg+xml</dc:format>
        <dc:type
           rdf:resource="http://purl.org/dc/dcmitype/StillImage" />
        <cc:license
           rdf:resource="http://creativecommons.org/licenses/publicdomain/" />
        <dc:publisher>
          <cc:Agent
             rdf:about="http://openclipart.org/">
            <dc:title>Openclipart</dc:title>
          </cc:Agent>
        </dc:publisher>
      </cc:Work>
      <cc:License
         rdf:about="http://creativecommons.org/licenses/publicdomain/">
        <cc:permits
           rdf:resource="http://creativecommons.org/ns#Reproduction" />
        <cc:permits
           rdf:resource="http://creativecommons.org/ns#Distribution" />
        <cc:permits
           rdf:resource="http://creativecommons.org/ns#DerivativeWorks" />
      </cc:License>
    </rdf:RDF>
  </metadata>
</svg>
