<?xml version="1.0" standalone="no"?>
 <!DOCTYPE svg PUBLIC "-//W3C//DTD SVG 1.1//EN" 
 "http://www.w3.org/Graphics/SVG/1.1/DTD/svg11.dtd"> 
<svg
  xmlns:svg="http://www.w3.org/2000/svg"
  xmlns="http://www.w3.org/2000/svg"
  xmlns:xlink="http://www.w3.org/1999/xlink"
  version="1.1"
  width="12.489180cm" height="9.636760cm" viewBox="0 0 124891800 96367600">
<title>SVG Picture created as vulpes-minora-brd.svg date 2023/05/31 23:07:51 </title>
  <desc>Picture generated by PCBNEW </desc>
<g style="fill:#000000; fill-opacity:1.000000;stroke:#000000; stroke-opacity:1.000000;
stroke-linecap:round; stroke-linejoin:round;"
 transform="translate(0 0) scale(1 1)">
</g>
<g style="fill:#000000; fill-opacity:0.0; 
stroke:#000000; stroke-width:0.000000; stroke-opacity:1; 
stroke-linecap:round; stroke-linejoin:round;">
</g>
<g style="fill:#000000; fill-opacity:0.0; 
stroke:#000000; stroke-width:150000.000000; stroke-opacity:1; 
stroke-linecap:round; stroke-linejoin:round;">
<text x="121285000.000000" y="22701404.000000"
textLength="1864286.000000" font-size="1333333.000000" lengthAdjust="spacingAndGlyphs"
text-anchor="middle" opacity="0">J3</text>
<g class="stroked-text"><desc>J3</desc>
<path d="M120951666 21653784
L120951666 22368070
L120904047 22510927
L120808809 22606165
L120665952 22653784
L120570714 22653784
" />
<path d="M121332619 21653784
L121951666 21653784
L121618333 22034737
L121761190 22034737
L121856428 22082356
L121904047 22129975
L121951666 22225213
L121951666 22463308
L121904047 22558546
L121856428 22606165
L121761190 22653784
L121475476 22653784
L121380238 22606165
L121332619 22558546
" />
</g><text x="121285000.000000" y="22701404.000000"
textLength="1909286.000000" font-size="1333333.000000" lengthAdjust="spacingAndGlyphs"
text-anchor="middle" opacity="0">J2</text>
<g class="stroked-text"><desc>J2</desc>
<path d="M120951666 21653784
L120951666 22368070
L120904047 22510927
L120808809 22606165
L120665952 22653784
L120570714 22653784
" />
<path d="M121380238 21749023
L121427857 21701404
L121523095 21653784
L121761190 21653784
L121856428 21701404
L121904047 21749023
L121951666 21844261
L121951666 21939499
L121904047 22082356
L121332619 22653784
L121951666 22653784
" />
</g><text x="118136723.000000" y="55715000.000000"
textLength="4480714.000000" font-size="1333333.000000" lengthAdjust="spacingAndGlyphs"
text-anchor="middle" opacity="0">REF**</text>
<g class="stroked-text"><desc>REF**</desc>
<path d="M116803389 55667380
L116470056 55191190
" />
<path d="M116231961 55667380
L116231961 54667380
L116612913 54667380
L116708151 54715000
L116755770 54762619
L116803389 54857857
L116803389 55000714
L116755770 55095952
L116708151 55143571
L116612913 55191190
L116231961 55191190
" />
<path d="M117231961 55143571
L117565294 55143571
" />
<path d="M117708151 55667380
L117231961 55667380
L117231961 54667380
L117708151 54667380
" />
<path d="M118470056 55143571
L118136723 55143571
" />
<path d="M118136723 55667380
L118136723 54667380
L118612913 54667380
" />
<path d="M119136723 54667380
L119136723 54905476
" />
<path d="M118898627 54810238
L119136723 54905476
L119374818 54810238
" />
<path d="M118993865 55095952
L119136723 54905476
L119279580 55095952
" />
<path d="M119898627 54667380
L119898627 54905476
" />
<path d="M119660532 54810238
L119898627 54905476
L120136723 54810238
" />
<path d="M119755770 55095952
L119898627 54905476
L120041484 55095952
" />
</g><text x="117336723.000000" y="55715000.000000"
textLength="4480714.000000" font-size="1333333.000000" lengthAdjust="spacingAndGlyphs"
text-anchor="middle" opacity="0">REF**</text>
<g class="stroked-text"><desc>REF**</desc>
<path d="M116003389 55667380
L115670056 55191190
" />
<path d="M115431961 55667380
L115431961 54667380
L115812913 54667380
L115908151 54715000
L115955770 54762619
L116003389 54857857
L116003389 55000714
L115955770 55095952
L115908151 55143571
L115812913 55191190
L115431961 55191190
" />
<path d="M116431961 55143571
L116765294 55143571
" />
<path d="M116908151 55667380
L116431961 55667380
L116431961 54667380
L116908151 54667380
" />
<path d="M117670056 55143571
L117336723 55143571
" />
<path d="M117336723 55667380
L117336723 54667380
L117812913 54667380
" />
<path d="M118336723 54667380
L118336723 54905476
" />
<path d="M118098627 54810238
L118336723 54905476
L118574818 54810238
" />
<path d="M118193865 55095952
L118336723 54905476
L118479580 55095952
" />
<path d="M119098627 54667380
L119098627 54905476
" />
<path d="M118860532 54810238
L119098627 54905476
L119336723 54810238
" />
<path d="M118955770 55095952
L119098627 54905476
L119241484 55095952
" />
</g></g>
<g style="fill:#000000; fill-opacity:0.0; 
stroke:#000000; stroke-width:254000.000000; stroke-opacity:1; 
stroke-linecap:round; stroke-linejoin:round;">
<path d="M124570001 44993903
L124570001 33993903
" />
<path d="M124570001 33993903
L122187001 33993903
" />
<path d="M124570001 44993903
L122187001 44993903
" />
</g>
<g style="fill:#000000; fill-opacity:0.0; 
stroke:#000000; stroke-width:150000.000000; stroke-opacity:1; 
stroke-linecap:round; stroke-linejoin:round;">
<path d="M124085000 8001404
L124085000 6001404
" />
<path d="M118235000 8001404
L118235000 20101404
" />
<path d="M124085000 6001404
L118485000 6001404
" />
<path d="M124335000 20101404
L118235000 20101404
" />
<path d="M118485000 8001404
L118485000 6001404
" />
<path d="M124335000 8001404
L118235000 8001404
" />
<path d="M124335000 8001404
L124335000 20101404
" />
<path d="M118485000 8001404
L118485000 6001404
" />
<path d="M124335000 8001404
L124335000 20101404
" />
<path d="M118485000 6001404
L124085000 6001404
" />
<path d="M118235000 20101404
L124335000 20101404
" />
<path d="M124085000 8001404
L124085000 6001404
" />
<path d="M118235000 8001404
L124335000 8001404
" />
<path d="M118235000 8001404
L118235000 20101404
" />
</g>
<g style="fill:#000000; fill-opacity:0.0; 
stroke:#000000; stroke-width:50000.000000; stroke-opacity:1; 
stroke-linecap:round; stroke-linejoin:round;">
<path d="M46239271 82576296
L46239271 70576296
" />
<path d="M30239271 70576296
L46239271 70576296
" />
<path d="M30239271 70576296
L30239271 82576296
" />
<path d="M46239271 82576296
L30239271 82576296
" />
</g>
<g style="fill:#000000; fill-opacity:0.0; 
stroke:#000000; stroke-width:200000.000000; stroke-opacity:1; 
stroke-linecap:round; stroke-linejoin:round;">
<path d="M111231000 6596653
L111231000 11676653
" />
<path d="M103865000 11676653
L103865000 6596653
" />
<path d="M103865000 6596653
L111231000 6596653
" />
<path d="M111231000 11676653
L103865000 11676653
" />
</g>
<g style="fill:#000000; fill-opacity:0.0; 
stroke:#000000; stroke-width:120000.000000; stroke-opacity:1; 
stroke-linecap:round; stroke-linejoin:round;">
<circle cx="121255000.000000" cy="28713904.000000" r="1750000.000000" /> 
<circle cx="121255000.000000" cy="28713904.000000" r="1750000.000000" /> 
</g>
<g style="fill:#000000; fill-opacity:0.0; 
stroke:#000000; stroke-width:50000.000000; stroke-opacity:1; 
stroke-linecap:round; stroke-linejoin:round;">
<path d="M32235000 68573903
L44235000 68573903
" />
<path d="M32235000 68573903
L32235000 84573903
" />
<path d="M44235000 84573903
L44235000 68573903
" />
<path d="M44235000 84573903
L32235000 84573903
" />
<g >
</g>
<g >
</g>
<g >
</g>
<g >
</g>
<g >
</g>
<g >
</g>
<g >
</g>
<g >
</g>
<g >
</g>
<g >
</g>
<g >
</g>
<g >
</g>
<g >
</g>
<g >
</g>
<g >
</g>
<g >
</g>
<g >
</g>
<g >
</g>
<g >
</g>
<g >
</g>
<g >
</g>
<g >
</g>
<g >
</g>
<g >
</g>
<g >
</g>
<g >
</g>
<g >
</g>
<g >
</g>
<g >
</g>
<g >
</g>
<g >
</g>
<g >
</g>
<g >
</g>
<g >
</g>
<g >
</g>
<g >
</g>
<g >
</g>
<g >
</g>
<g >
</g>
<g >
</g>
<g >
</g>
<g >
</g>
<g >
</g>
<g >
</g>
<g >
</g>
<g >
</g>
<g >
</g>
<g >
</g>
<g >
</g>
<g >
</g>
<g >
</g>
<g >
</g>
<g >
</g>
<g >
</g>
<g >
</g>
<g >
</g>
<g >
</g>
<g >
</g>
<g >
</g>
<g >
</g>
<g >
</g>
<g >
</g>
<g >
</g>
<g >
</g>
<g >
</g>
<g >
</g>
<g >
</g>
</g>
<g style="fill:#000000; fill-opacity:0.0; 
stroke:#000000; stroke-width:50000.000000; stroke-opacity:1; 
stroke-linecap:round; stroke-linejoin:round;">
</g>
<g style="fill:#000000; fill-opacity:0.0; 
stroke:#000000; stroke-width:150000.000000; stroke-opacity:1; 
stroke-linecap:round; stroke-linejoin:round;">
<circle cx="75839270.000000" cy="25576294.000000" r="3200000.000000" /> 
<circle cx="16725001.000000" cy="17773904.000000" r="3200000.000000" /> 
<circle cx="14395001.000000" cy="76453904.000000" r="3200000.000000" /> 
<circle cx="100259361.000000" cy="72606567.000000" r="3200000.000000" /> 
<g >
</g>
<g >
</g>
<g >
</g>
<g >
</g>
<g >
</g>
<g >
</g>
<g >
</g>
<g >
</g>
<g >
</g>
<g >
</g>
<g >
</g>
<g >
</g>
<g >
</g>
<g >
</g>
<g >
</g>
<g >
</g>
<g >
</g>
<g >
</g>
<g >
</g>
<g >
</g>
<g >
</g>
<g >
</g>
<g >
</g>
<g >
</g>
<g >
</g>
<g >
</g>
<g >
</g>
<g >
</g>
<g >
</g>
<g >
</g>
<g >
</g>
<g >
</g>
<g >
</g>
<g >
</g>
<g >
</g>
<g >
</g>
<g >
</g>
<g >
</g>
<g >
</g>
<g >
</g>
<g >
</g>
<g >
</g>
<g >
</g>
<g >
</g>
<g >
</g>
<g >
</g>
<g >
</g>
<g >
</g>
<g >
</g>
<g >
</g>
<g >
</g>
<g >
</g>
<g >
</g>
<g >
</g>
<g >
</g>
<g >
</g>
<g >
</g>
<g >
</g>
<g >
</g>
<g >
</g>
<g >
</g>
<g >
</g>
<g >
</g>
<g >
</g>
<g >
</g>
<g >
</g>
<g >
</g>
</g>
<g style="fill:#000000; fill-opacity:0.0; 
stroke:#000000; stroke-width:150000.000000; stroke-opacity:1; 
stroke-linecap:round; stroke-linejoin:round;">
</g>
<g style="fill:#000000; fill-opacity:0.0; 
stroke:#000000; stroke-width:120000.000000; stroke-opacity:1; 
stroke-linecap:round; stroke-linejoin:round;">
<path d="M35739275 60076300
L35739275 46076300
" />
<path d="M35739275 46076300
L21739275 46076300
" />
<path d="M21739275 60076300
L35739275 60076300
" />
<path d="M21739275 46076300
L21739275 60076300
" />
<path d="M40739265 41076297
L40739265 55076297
" />
<path d="M54739265 55076297
L54739265 41076297
" />
<path d="M40739265 55076297
L54739265 55076297
" />
<path d="M54739265 41076297
L40739265 41076297
" />
<path d="M78739275 48576295
L78739275 62576295
" />
<path d="M78739275 62576295
L92739275 62576295
" />
<path d="M92739275 48576295
L78739275 48576295
" />
<path d="M92739275 62576295
L92739275 48576295
" />
<path d="M16739273 58576296
L2739273 58576296
" />
<path d="M2739273 58576296
L2739273 72576296
" />
<path d="M16739273 72576296
L16739273 58576296
" />
<path d="M2739273 72576296
L16739273 72576296
" />
<path d="M59739275 41076299
L73739275 41076299
" />
<path d="M73739275 27076299
L59739275 27076299
" />
<path d="M73739275 41076299
L73739275 27076299
" />
<path d="M59739275 27076299
L59739275 41076299
" />
<path d="M59739274 8076300
L59739274 22076300
" />
<path d="M73739274 8076300
L59739274 8076300
" />
<path d="M73739274 22076300
L73739274 8076300
" />
<path d="M59739274 22076300
L73739274 22076300
" />
<path d="M59739269 46076295
L59739269 60076295
" />
<path d="M59739269 60076295
L73739269 60076295
" />
<path d="M73739269 46076295
L59739269 46076295
" />
<path d="M73739269 60076295
L73739269 46076295
" />
<path d="M21739271 41076295
L35739271 41076295
" />
<path d="M35739271 27076295
L21739271 27076295
" />
<path d="M21739271 27076295
L21739271 41076295
" />
<path d="M35739271 41076295
L35739271 27076295
" />
<path d="M40739273 17076297
L54739273 17076297
" />
<path d="M40739273 3076297
L40739273 17076297
" />
<path d="M54739273 17076297
L54739273 3076297
" />
<path d="M54739273 3076297
L40739273 3076297
" />
<path d="M92739277 43576301
L92739277 29576301
" />
<path d="M78739277 43576301
L92739277 43576301
" />
<path d="M78739277 29576301
L78739277 43576301
" />
<path d="M92739277 29576301
L78739277 29576301
" />
<path d="M92739270 24576294
L92739270 10576294
" />
<path d="M78739270 24576294
L92739270 24576294
" />
<path d="M78739270 10576294
L78739270 24576294
" />
<path d="M92739270 10576294
L78739270 10576294
" />
<path d="M54739270 22076293
L40739270 22076293
" />
<path d="M40739270 22076293
L40739270 36076293
" />
<path d="M40739270 36076293
L54739270 36076293
" />
<path d="M54739270 36076293
L54739270 22076293
" />
<path d="M16739276 34576297
L16739276 20576297
" />
<path d="M2739276 34576297
L16739276 34576297
" />
<path d="M16739276 20576297
L2739276 20576297
" />
<path d="M2739276 20576297
L2739276 34576297
" />
<path d="M35739276 8076307
L21739276 8076307
" />
<path d="M21739276 8076307
L21739276 22076307
" />
<path d="M35739276 22076307
L35739276 8076307
" />
<path d="M21739276 22076307
L35739276 22076307
" />
<path d="M2739278 53576297
L16739278 53576297
" />
<path d="M16739278 53576297
L16739278 39576297
" />
<path d="M2739278 39576297
L2739278 53576297
" />
<path d="M16739278 39576297
L2739278 39576297
" />
<path d="M95768552 73228453
L81981243 70797378
" />
<path d="M81981243 70797378
L79550168 84584687
" />
<path d="M79550168 84584687
L93337477 87015762
" />
<path d="M93337477 87015762
L95768552 73228453
" />
<path d="M112127509 93313755
L116915791 80158059
" />
<path d="M116915791 80158059
L103760095 75369777
" />
<path d="M103760095 75369777
L98971813 88525473
" />
<path d="M98971813 88525473
L112127509 93313755
" />
<path d="M59739271 70076295
L59739271 84076295
" />
<path d="M73739271 70076295
L59739271 70076295
" />
<path d="M59739271 84076295
L73739271 84076295
" />
<path d="M73739271 84076295
L73739271 70076295
" />
<g >
</g>
<g >
</g>
<g >
</g>
<g >
</g>
<g >
</g>
<g >
</g>
<g >
</g>
<g >
</g>
<g >
</g>
<g >
</g>
<g >
</g>
<g >
</g>
<g >
</g>
<g >
</g>
<g >
</g>
<g >
</g>
<g >
</g>
<g >
</g>
<g >
</g>
<g >
</g>
<g >
</g>
<g >
</g>
<g >
</g>
<g >
</g>
<g >
</g>
<g >
</g>
<g >
</g>
<g >
</g>
<g >
</g>
<g >
</g>
<g >
</g>
<g >
</g>
<g >
</g>
<g >
</g>
<g >
</g>
<g >
</g>
<g >
</g>
<g >
</g>
<g >
</g>
<g >
</g>
<g >
</g>
<g >
</g>
<g >
</g>
<g >
</g>
<g >
</g>
<g >
</g>
<g >
</g>
<g >
</g>
<g >
</g>
<g >
</g>
<g >
</g>
<g >
</g>
<g >
</g>
<g >
</g>
<g >
</g>
<g >
</g>
<g >
</g>
<g >
</g>
<g >
</g>
<g >
</g>
<g >
</g>
<g >
</g>
<g >
</g>
<g >
</g>
<g >
</g>
<g >
</g>
<g >
</g>
</g>
<g style="fill:#000000; fill-opacity:0.0; 
stroke:#000000; stroke-width:120000.000000; stroke-opacity:1; 
stroke-linecap:round; stroke-linejoin:round;">
</g>
<g style="fill:#000000; fill-opacity:0.0; 
stroke:#000000; stroke-width:250000.000000; stroke-opacity:1; 
stroke-linecap:round; stroke-linejoin:round;">
<path d="M115017055.000000,94738833.000000 C114816361.000000,95290208.000000 114404775.000000,95739228.000000 113872914.000000,95987041.000000" />
<path d="M96965000 8053904
L122285000 8048889
" />
<path d="M164383 84436200
L165001 21833904
" />
<path d="M805963.000000,85985509.000000 C395081.000000,85574597.000000 164291.000000,85017289.000000 164383.000000,84436200.000000" />
<path d="M95682000 90053618
L76210056 86619720
" />
<path d="M7866723.000000,11705000.000000 C19506723.000000,4995000.000000 36106723.000000,685000.000000 47755001.000000,573904.000000" />
<path d="M90545001.000000,6603904.000000 C77665001.000000,2713904.000000 68796723.000000,125000.000000 47755001.000000,573904.000000" />
<path d="M124745362.000000,66573903.000000 C124675000.000000,67973903.000000 124285000.000000,68843904.000000 123665001.000000,70593904.000000" />
<path d="M165001.000000,21833904.000000 C125000.000000,18603904.000000 425002.000000,16533904.000000 7866723.000000,11705000.000000" />
<path d="M113872914.000000,95987041.000000 C113341054.000000,96234847.000000 112732513.000000,96261145.000000 112181253.000000,96060122.000000" />
<path d="M115017055 94738833
L123665001 70593904
" />
<path d="M90545001.000000,6603904.000000 C91298166.000000,6830457.000000 94715000.000000,8113904.000000 96965000.000000,8053904.000000" />
<path d="M76210056 86619720
L2355235 86627168
" />
<path d="M124745362 66573903
L124765000 10553904
" />
<path d="M124064748.000000,8788480.000000 C124525878.000000,9258986.000000 124778258.000000,9895254.000000 124765000.000000,10553904.000000" />
<path d="M122285000.000000,8048889.000000 C122972539.000000,8052886.000000 123603621.000000,8317995.000000 124064748.000000,8788480.000000" />
<path d="M2355235.000000,86627168.000000 C1774145.000000,86627233.000000 1216842.000000,86396411.000000 805963.000000,85985509.000000" />
<path d="M112181253 96060122
L95682000 90053618
" />
<g >
</g>
<g >
</g>
<g >
</g>
<g >
</g>
<g >
</g>
<g >
</g>
<g >
</g>
<g >
</g>
<g >
</g>
<g >
</g>
<g >
</g>
<g >
</g>
<g >
</g>
<g >
</g>
<g >
</g>
<g >
</g>
<g >
</g>
<g >
</g>
<g >
</g>
<g >
</g>
<g >
</g>
<g >
</g>
<g >
</g>
<g >
</g>
<g >
</g>
<g >
</g>
<g >
</g>
<g >
</g>
<g >
</g>
<g >
</g>
<g >
</g>
<g >
</g>
<g >
</g>
<g >
</g>
<g >
</g>
<g >
</g>
<g >
</g>
<g >
</g>
<g >
</g>
<g >
</g>
<g >
</g>
<g >
</g>
<g >
</g>
<g >
</g>
<g >
</g>
<g >
</g>
<g >
</g>
<g >
</g>
<g >
</g>
<g >
</g>
<g >
</g>
<g >
</g>
<g >
</g>
<g >
</g>
<g >
</g>
<g >
</g>
<g >
</g>
<g >
</g>
<g >
</g>
<g >
</g>
<g >
</g>
<g >
</g>
<g >
</g>
<g >
</g>
<g >
</g>
<g >
</g>
<g >
</g>
</g> 
</svg>
